<svg xmlns="http://www.w3.org/2000/svg" width="1920" height="1080" viewBox="0 0 1920 1080" role="img" aria-labelledby="title description" data-theme="graphite" data-theme-appearance="light">
  <title id="title">Ongoing / From cached rows to attention views</title><desc id="description">The read model joins catalog tables, resolves stacks against baselines, and asks the pure domain rules which views each project belongs to and why.. Architecture structure.</desc>
  <defs><marker id="arrow" viewBox="0 0 10 10" refX="9" refY="5" markerWidth="5" markerHeight="5" orient="auto-start-reverse"><path d="M 0 0 L 10 5 L 0 10 z" fill="#85857f"/></marker></defs>
  <rect width="1920" height="1080" fill="#f8f8f6"/>
  <g font-family="Arial, Helvetica, sans-serif"><text x="96" y="58" font-size="12" letter-spacing="3" fill="#626b6f">FRACTAL / SYSTEM MODEL</text>
  <g data-export-layer="title"><text x="96" y="116" font-size="48" font-weight="600" fill="#292927"><tspan x="96" dy="0">Ongoing / From cached rows to attention views</tspan></text></g>
  <g data-export-layer="subtitle"><text x="96" y="170" font-size="19" font-weight="400" fill="#74746f"><tspan x="96" dy="0">The read model joins catalog tables, resolves stacks against baselines, and asks the pure domain rules which views each project belongs to and why.</tspan></text></g>
  <g data-export-layer="diagram" transform="translate(298.925 210) scale(0.347)"><g data-element="domain"><rect x="1340.9099999999999" y="785" width="1114.77" height="847.5" rx="14" fill="#eeeeeb" stroke="#d5d5d0" stroke-width="1.3"/>
      <g transform="translate(2429.68 802) scale(0.667)" color="#89A579" opacity="0.85"><title>Subsystem</title><g fill="none" stroke="currentColor" stroke-width="1.5" stroke-linecap="round" stroke-linejoin="round"><rect x="3" y="8" width="13" height="13" rx="2"/><path d="M8 5V3h13v13h-2"/></g></g>
      <text x="1364.91" y="815" font-size="14" font-weight="600" fill="#292927"><tspan x="1364.91" dy="0">Domain rules</tspan></text>
      <text x="1360.91" y="839" font-size="12" font-weight="400" fill="#6d6d68"></text>
      </g><g data-element="catalog"><rect x="2695" y="683" width="1074.34" height="495" rx="14" fill="#eeeeeb" stroke="#d5d5d0" stroke-width="1.3"/>
      <g transform="translate(3743.34 700) scale(0.667)" color="#B59669" opacity="0.85"><title>Subsystem</title><g fill="none" stroke="currentColor" stroke-width="1.5" stroke-linecap="round" stroke-linejoin="round"><rect x="3" y="8" width="13" height="13" rx="2"/><path d="M8 5V3h13v13h-2"/></g></g>
      <text x="2719" y="713" font-size="14" font-weight="600" fill="#292927"><tspan x="2719" dy="0">App-owned catalog</tspan></text>
      <text x="2715" y="737" font-size="12" font-weight="400" fill="#6d6d68"></text>
      </g><path d="M238,1188 L254,1188 L254,1691 L456.79,1691" fill="none" stroke="#85857f" stroke-width="1.5" marker-end="url(#arrow)"/><path d="M238,1188 L456.79,1188" fill="none" stroke="#85857f" stroke-width="1.5" marker-end="url(#arrow)"/><path d="M670.79,1188 L863.12,1188 L863.12,940 L895.12,940" fill="none" stroke="#85857f" stroke-width="1.5" marker-end="url(#arrow)"/><path d="M670.79,1188 L696.79,1188 L696.79,1280 L863.12,1280 L863.12,940 L895.12,940" fill="none" stroke="#85857f" stroke-width="1.5" marker-end="url(#arrow)"/><path d="M670.79,1188 L696.79,1188 L696.79,1327 L863.12,1327 L863.12,940 L895.12,940" fill="none" stroke="#85857f" stroke-width="1.5" marker-end="url(#arrow)"/><path d="M670.79,1188 L696.79,1188 L696.79,225 L1295.91,225 L1295.91,163 L2694,163" fill="none" stroke="#85857f" stroke-width="1.5" marker-end="url(#arrow)"/><path d="M670.79,1691 L706.79,1691 L706.79,1126 L863.12,1126 L863.12,940 L895.12,940" fill="none" stroke="#85857f" stroke-width="1.5" marker-end="url(#arrow)"/><path d="M670.79,1691 L706.79,1691 L706.79,940 L895.12,940" fill="none" stroke="#85857f" stroke-width="1.5" marker-end="url(#arrow)"/><path d="M670.79,1691 L706.79,1691 L706.79,1515 L1295.91,1515 L1295.91,1201.5 L1755.47,1201.5 L1755.47,1141.5 L1789.15,1141.5" fill="none" stroke="#85857f" stroke-width="1.5" marker-end="url(#arrow)"/><path d="M670.79,1691 L706.79,1691 L706.79,1451 L863.12,1451 L863.12,940 L895.12,940" fill="none" stroke="#85857f" stroke-width="1.5" marker-end="url(#arrow)"/><path d="M1109.12,940 L1135.12,940 L1135.12,548 L434.79,548 L434.79,1691 L456.79,1691" fill="none" stroke="#85857f" stroke-width="1.5" marker-end="url(#arrow)"/><path d="M670.79,1691 L706.79,1691 L706.79,1107 L863.12,1107 L863.12,940 L895.12,940" fill="none" stroke="#85857f" stroke-width="1.5" marker-end="url(#arrow)"/><path d="M670.79,1691 L706.79,1691 L706.79,1432 L863.12,1432 L863.12,940 L895.12,940" fill="none" stroke="#85857f" stroke-width="1.5" marker-end="url(#arrow)"/><path d="M1109.12,940 L1135.12,940 L1135.12,629 L1295.91,629 L1295.91,473 L1791.295,473" fill="none" stroke="#85857f" stroke-width="1.5" marker-end="url(#arrow)"/><path d="M1109.12,940 L1135.12,940 L1135.12,1575 L1305.91,1575 L1305.91,1325.5 L1364.91,1325.5" fill="none" stroke="#85857f" stroke-width="1.5" marker-end="url(#arrow)"/><path d="M1109.12,940 L1135.12,940 L1135.12,1594 L1315.91,1594 L1315.91,1570 L1755.47,1570 L1755.47,1510 L1787.47,1510" fill="none" stroke="#85857f" stroke-width="1.5" marker-end="url(#arrow)"/><path d="M1109.12,940 L1135.12,940 L1135.12,1975.5 L1295.91,1975.5 L1295.91,1682.5 L2654,1682.5 L2654,900.5 L2719,900.5" fill="none" stroke="#85857f" stroke-width="1.5" marker-end="url(#arrow)"/><path d="M1109.12,940 L1135.12,940 L1135.12,706 L1295.91,706 L1295.91,473 L1791.295,473" fill="none" stroke="#85857f" stroke-width="1.5" marker-end="url(#arrow)"/><path d="M1109.12,940 L1135.12,940 L1135.12,490 L1295.91,490 L1295.91,473 L1791.295,473" fill="none" stroke="#85857f" stroke-width="1.5" marker-end="url(#arrow)"/><path d="M1109.12,940 L1789.15,940" fill="none" stroke="#85857f" stroke-width="1.5" marker-end="url(#arrow)"/><path d="M1109.12,940 L1135.12,940 L1135.12,1975.5 L2654,1975.5 L2654,900.5 L2719,900.5" fill="none" stroke="#85857f" stroke-width="1.5" marker-end="url(#arrow)"/><path d="M1109.12,940 L1135.12,940 L1135.12,1975.5 L1295.91,1975.5 L1295.91,2037.5 L2664,2037.5 L2664,1032 L3136.06,1032" fill="none" stroke="#85857f" stroke-width="1.5" marker-end="url(#arrow)"/><path d="M1109.12,940 L1135.12,940 L1135.12,567 L1295.91,567 L1295.91,473 L1791.295,473" fill="none" stroke="#85857f" stroke-width="1.5" marker-end="url(#arrow)"/><path d="M1578.91,1325.5 L1594.91,1325.5 L1594.91,1607.5 L2654,1607.5 L2654,900.5 L2719,900.5" fill="none" stroke="#85857f" stroke-width="1.5" marker-end="url(#arrow)"/><path d="M1578.91,1325.5 L1594.91,1325.5 L1594.91,1141.5 L1789.15,1141.5" fill="none" stroke="#85857f" stroke-width="1.5" marker-end="url(#arrow)"/><path d="M1578.91,1325.5 L1787.47,1325.5" fill="none" stroke="#85857f" stroke-width="1.5" marker-end="url(#arrow)"/><path d="M1578.91,1325.5 L1594.91,1325.5 L1594.91,1510 L1787.47,1510" fill="none" stroke="#85857f" stroke-width="1.5" marker-end="url(#arrow)"/><path d="M2003.15,940 L2217.68,940" fill="none" stroke="#85857f" stroke-width="1.5" marker-end="url(#arrow)"/><path d="M2003.15,1141.5 L2185.68,1141.5 L2185.68,940 L2217.68,940" fill="none" stroke="#85857f" stroke-width="1.5" marker-end="url(#arrow)"/><path d="M2005.295,473 L2480.68,473 L2480.68,1699.5 L2654,1699.5 L2654,900.5 L2719,900.5" fill="none" stroke="#85857f" stroke-width="1.5" marker-end="url(#arrow)"/><path d="M2005.295,473 L2480.68,473 L2480.68,180 L2654,180 L2654,163 L2694,163" fill="none" stroke="#85857f" stroke-width="1.5" marker-end="url(#arrow)"/><path d="M2005.295,473 L2480.68,473 L2480.68,1915.5 L2654,1915.5 L2654,900.5 L2719,900.5" fill="none" stroke="#85857f" stroke-width="1.5" marker-end="url(#arrow)"/><path d="M2005.295,473 L2480.68,473 L2480.68,396 L2654,396 L2654,163 L2694,163" fill="none" stroke="#85857f" stroke-width="1.5" marker-end="url(#arrow)"/><path d="M2005.295,473 L2654,473 L2654,163 L2694,163" fill="none" stroke="#85857f" stroke-width="1.5" marker-end="url(#arrow)"/><path d="M2005.295,473 L2480.68,473 L2480.68,1776.5 L2654,1776.5 L2654,900.5 L2719,900.5" fill="none" stroke="#85857f" stroke-width="1.5" marker-end="url(#arrow)"/><path d="M2005.295,473 L2480.68,473 L2480.68,242 L2654,242 L2654,163 L2694,163" fill="none" stroke="#85857f" stroke-width="1.5" marker-end="url(#arrow)"/><path d="M2005.295,473 L2480.68,473 L2480.68,520 L2654,520 L2654,163 L2694,163" fill="none" stroke="#85857f" stroke-width="1.5" marker-end="url(#arrow)"/><path d="M2005.295,473 L2480.68,473 L2480.68,1853.5 L2654,1853.5 L2654,900.5 L2719,900.5" fill="none" stroke="#85857f" stroke-width="1.5" marker-end="url(#arrow)"/><path d="M2005.295,473 L2480.68,473 L2480.68,319 L2654,319 L2654,163 L2694,163" fill="none" stroke="#85857f" stroke-width="1.5" marker-end="url(#arrow)"/><path d="M2933,900.5 L3104.06,900.5 L3104.06,1032 L3136.06,1032" fill="none" stroke="#85857f" stroke-width="1.5" marker-end="url(#arrow)"/><path d="M3350.06,1032 L3531.34,1032" fill="none" stroke="#85857f" stroke-width="1.5" marker-end="url(#arrow)"/><path d="M2908,163 L3786.34,163 L3786.34,24 L2480.68,24 L2480.68,84 L863.12,84 L863.12,940 L895.12,940" fill="none" stroke="#85857f" stroke-width="1.5" marker-end="url(#arrow)"/><path d="M2908,163 L3786.34,163 L3786.34,24 L424.79,24 L424.79,1496 L456.79,1496" fill="none" stroke="#85857f" stroke-width="1.5" marker-end="url(#arrow)"/><path d="M670.79,1496 L686.79,1496 L686.79,473 L1791.295,473" fill="none" stroke="#85857f" stroke-width="1.5" marker-end="url(#arrow)"/><path d="M670.79,1496 L686.79,1496 L686.79,2097.5 L2480.68,2097.5 L2480.68,2037.5 L2664,2037.5 L2664,1032 L3136.06,1032" fill="none" stroke="#85857f" stroke-width="1.5" marker-end="url(#arrow)"/><path d="M670.79,1496 L686.79,1496 L686.79,163 L2694,163" fill="none" stroke="#85857f" stroke-width="1.5" marker-end="url(#arrow)"/><path d="M670.79,1496 L1125.12,1496 L1125.12,768 L3499.34,768 L3499.34,1032 L3531.34,1032" fill="none" stroke="#85857f" stroke-width="1.5" marker-end="url(#arrow)"/><path d="M670.79,1496 L686.79,1496 L686.79,1002 L863.12,1002 L863.12,940 L895.12,940" fill="none" stroke="#85857f" stroke-width="1.5" marker-end="url(#arrow)"/><path d="M670.79,1496 L686.79,1496 L686.79,2097.5 L1125.12,2097.5 L1125.12,2116.5 L1295.91,2116.5 L1295.91,2097.5 L2480.68,2097.5 L2480.68,2037.5 L2664,2037.5 L2664,1032 L3136.06,1032" fill="none" stroke="#85857f" stroke-width="1.5" marker-end="url(#arrow)"/><path d="M2908,163 L3786.34,163 L3786.34,24 L2480.68,24 L2480.68,103 L1295.91,103 L1295.91,84 L863.12,84 L863.12,940 L895.12,940" fill="none" stroke="#85857f" stroke-width="1.5" marker-end="url(#arrow)"/><g data-element="user"><rect x="25" y="1123.5" width="212" height="129" rx="14" fill="#ffffff" stroke="#d5d5d0" stroke-width="1.3"/>
      <g transform="translate(211 1140.5) scale(0.667)" color="#759EB5" opacity="0.85"><title>Actor</title><g fill="none" stroke="currentColor" stroke-width="1.5" stroke-linecap="round" stroke-linejoin="round"><circle cx="12" cy="7" r="4"/><path d="M4 21v-2a6 6 0 0 1 6-6h4a6 6 0 0 1 6 6v2"/></g></g>
      <text x="45" y="1155.5" font-size="14" font-weight="600" fill="#292927"><tspan x="45" dy="0">Marcus or an</tspan><tspan x="45" dy="20">agent</tspan></text>
      <text x="45" y="1200.5" font-size="12" font-weight="400" fill="#6d6d68"><tspan x="45" dy="0">Decides which local projects</tspan><tspan x="45" dy="17">deserve attention, from a</tspan><tspan x="45" dy="17">browser or a shell.</tspan></text>
      </g><g data-element="cli"><rect x="457.78999999999996" y="1125.5" width="212" height="125" rx="14" fill="#ffffff" stroke="#d5d5d0" stroke-width="1.3"/>
      <g transform="translate(643.79 1142.5) scale(0.667)" color="#82A6B6" opacity="0.85"><title>Subsystem</title><g fill="none" stroke="currentColor" stroke-width="1.5" stroke-linecap="round" stroke-linejoin="round"><rect x="3" y="8" width="13" height="13" rx="2"/><path d="M8 5V3h13v13h-2"/></g></g>
      <text x="477.79" y="1157.5" font-size="14" font-weight="600" fill="#292927"><tspan x="477.79" dy="0">ongoing CLI</tspan></text>
      <text x="477.79" y="1181.5" font-size="12" font-weight="400" fill="#6d6d68"><tspan x="477.79" dy="0">Terminal client with full</tspan><tspan x="477.79" dy="17">parity: it speaks the same</tspan><tspan x="477.79" dy="17">HTTP API as the browser and</tspan><tspan x="477.79" dy="17">never opens SQLite directly.</tspan></text>
      </g><g data-element="web"><rect x="457.78999999999996" y="1609.5" width="212" height="163" rx="14" fill="#ffffff" stroke="#d5d5d0" stroke-width="1.3"/>
      <g transform="translate(643.79 1626.5) scale(0.667)" color="#759EB5" opacity="0.85"><title>Subsystem</title><g fill="none" stroke="currentColor" stroke-width="1.5" stroke-linecap="round" stroke-linejoin="round"><rect x="3" y="8" width="13" height="13" rx="2"/><path d="M8 5V3h13v13h-2"/></g></g>
      <text x="477.79" y="1641.5" font-size="14" font-weight="600" fill="#292927"><tspan x="477.79" dy="0">Browser</tspan><tspan x="477.79" dy="20">dashboard</tspan></text>
      <text x="477.79" y="1686.5" font-size="12" font-weight="400" fill="#6d6d68"><tspan x="477.79" dy="0">SvelteKit pages rendered</tspan><tspan x="477.79" dy="17">from the cached catalog;</tspan><tspan x="477.79" dy="17">every mutation goes</tspan><tspan x="477.79" dy="17">through the same HTTP API</tspan><tspan x="477.79" dy="17">the CLI uses.</tspan></text>
      </g><g data-element="service"><rect x="896.1199999999999" y="869" width="212" height="142" rx="14" fill="#ffffff" stroke="#d5d5d0" stroke-width="1.3"/>
      <g transform="translate(1082.12 886) scale(0.667)" color="#739886" opacity="0.85"><title>Subsystem</title><g fill="none" stroke="currentColor" stroke-width="1.5" stroke-linecap="round" stroke-linejoin="round"><rect x="3" y="8" width="13" height="13" rx="2"/><path d="M8 5V3h13v13h-2"/></g></g>
      <text x="916.12" y="901" font-size="14" font-weight="600" fill="#292927"><tspan x="916.12" dy="0">HTTP service</tspan></text>
      <text x="916.12" y="925" font-size="12" font-weight="400" fill="#6d6d68"><tspan x="916.12" dy="0">The single local process:</tspan><tspan x="916.12" dy="17">request gate, JSON API, and</tspan><tspan x="916.12" dy="17">the composition root that</tspan><tspan x="916.12" dy="17">owns the catalog and</tspan><tspan x="916.12" dy="17">scanner.</tspan></text>
      </g><g data-element="domain.readmodel"><rect x="1365.9099999999999" y="1218.5" width="212" height="214" rx="14" fill="#ffffff" stroke="#d5d5d0" stroke-width="1.3"/>
      <g transform="translate(1551.91 1235.5) scale(0.667)" color="#89A579" opacity="0.85"><title>Component</title><g fill="none" stroke="currentColor" stroke-width="1.5" stroke-linecap="round" stroke-linejoin="round"><path d="M7 7V4h13v16H7v-3m0-6v2"/><rect x="3" y="7" width="8" height="4" rx="1"/><rect x="3" y="13" width="8" height="4" rx="1"/></g></g>
      <text x="1385.91" y="1250.5" font-size="14" font-weight="600" fill="#292927"><tspan x="1385.91" dy="0">Catalog read</tspan><tspan x="1385.91" dy="20">model</tspan></text>
      <text x="1385.91" y="1295.5" font-size="12" font-weight="400" fill="#6d6d68"><tspan x="1385.91" dy="0">Joins projects, metrics,</tspan><tspan x="1385.91" dy="17">snapshots, stacks, and</tspan><tspan x="1385.91" dy="17">errors into</tspan><tspan x="1385.91" dy="17">DashboardProject rows,</tspan><tspan x="1385.91" dy="17">resolves stacks against</tspan><tspan x="1385.91" dy="17">cached baselines, computes</tspan><tspan x="1385.91" dy="17">30-day deltas, and applies</tspan><tspan x="1385.91" dy="17">the query.</tspan></text>
      </g><g data-element="domain.attention"><rect x="1790.1499999999996" y="1062" width="212" height="159" rx="14" fill="#ffffff" stroke="#d5d5d0" stroke-width="1.3"/>
      <g transform="translate(1976.15 1079) scale(0.667)" color="#89A579" opacity="0.85"><title>Component</title><g fill="none" stroke="currentColor" stroke-width="1.5" stroke-linecap="round" stroke-linejoin="round"><path d="M7 7V4h13v16H7v-3m0-6v2"/><rect x="3" y="7" width="8" height="4" rx="1"/><rect x="3" y="13" width="8" height="4" rx="1"/></g></g>
      <text x="1810.15" y="1094" font-size="14" font-weight="600" fill="#292927"><tspan x="1810.15" dy="0">Attention views</tspan></text>
      <text x="1810.15" y="1118" font-size="12" font-weight="400" fill="#6d6d68"><tspan x="1810.15" dy="0">Seven independent</tspan><tspan x="1810.15" dy="17">classifications with explicit</tspan><tspan x="1810.15" dy="17">thresholds and a 72-hour</tspan><tspan x="1810.15" dy="17">freshness gate; every</tspan><tspan x="1810.15" dy="17">membership carries its</tspan><tspan x="1810.15" dy="17">reasons. No grand score.</tspan></text>
      </g><g data-element="domain.stack"><rect x="1788.4699999999998" y="1254.5" width="212" height="142" rx="14" fill="#ffffff" stroke="#d5d5d0" stroke-width="1.3"/>
      <g transform="translate(1974.47 1271.5) scale(0.667)" color="#89A579" opacity="0.85"><title>Component</title><g fill="none" stroke="currentColor" stroke-width="1.5" stroke-linecap="round" stroke-linejoin="round"><path d="M7 7V4h13v16H7v-3m0-6v2"/><rect x="3" y="7" width="8" height="4" rx="1"/><rect x="3" y="13" width="8" height="4" rx="1"/></g></g>
      <text x="1808.47" y="1286.5" font-size="14" font-weight="600" fill="#292927"><tspan x="1808.47" dy="0">Stack resolution</tspan></text>
      <text x="1808.47" y="1310.5" font-size="12" font-weight="400" fill="#6d6d68"><tspan x="1808.47" dy="0">Compares a declared</tspan><tspan x="1808.47" dy="17">toolchain version to cached</tspan><tspan x="1808.47" dy="17">release cycles: current,</tspan><tspan x="1808.47" dy="17">behind by supported cycles,</tspan><tspan x="1808.47" dy="17">end-of-life, or unknown.</tspan></text>
      </g><g data-element="domain.project"><rect x="1788.4699999999998" y="1428.5" width="215.35999999999996" height="163" rx="14" fill="#ffffff" stroke="#d5d5d0" stroke-width="1.3"/>
      <g transform="translate(1977.83 1445.5) scale(0.667)" color="#89A579" opacity="0.85"><title>Component</title><g fill="none" stroke="currentColor" stroke-width="1.5" stroke-linecap="round" stroke-linejoin="round"><path d="M7 7V4h13v16H7v-3m0-6v2"/><rect x="3" y="7" width="8" height="4" rx="1"/><rect x="3" y="13" width="8" height="4" rx="1"/></g></g>
      <text x="1808.47" y="1460.5" font-size="14" font-weight="600" fill="#292927"><tspan x="1808.47" dy="0">Project &amp; decision</tspan><tspan x="1808.47" dy="20">rules</tspan></text>
      <text x="1808.47" y="1505.5" font-size="12" font-weight="400" fill="#6d6d68"><tspan x="1808.47" dy="0">Intent vocabulary, note and</tspan><tspan x="1808.47" dy="17">next-action limits, decision</tspan><tspan x="1808.47" dy="17">validation, and sparse manual</tspan><tspan x="1808.47" dy="17">rank assignment for</tspan><tspan x="1808.47" dy="17">reordering.</tspan></text>
      </g><g data-element="domain.website"><rect x="1790.1499999999996" y="850" width="212" height="180" rx="14" fill="#ffffff" stroke="#d5d5d0" stroke-width="1.3"/>
      <g transform="translate(1976.15 867) scale(0.667)" color="#89A579" opacity="0.85"><title>Component</title><g fill="none" stroke="currentColor" stroke-width="1.5" stroke-linecap="round" stroke-linejoin="round"><path d="M7 7V4h13v16H7v-3m0-6v2"/><rect x="3" y="7" width="8" height="4" rx="1"/><rect x="3" y="13" width="8" height="4" rx="1"/></g></g>
      <text x="1810.15" y="882" font-size="14" font-weight="600" fill="#292927"><tspan x="1810.15" dy="0">Website copy</tspan><tspan x="1810.15" dy="20">rules</tspan></text>
      <text x="1810.15" y="927" font-size="12" font-weight="400" fill="#6d6d68"><tspan x="1810.15" dy="0">Validates public copy</tspan><tspan x="1810.15" dy="17">patches, decides eligibility</tspan><tspan x="1810.15" dy="17">from repository visibility</tspan><tspan x="1810.15" dy="17">or an explicit override, and</tspan><tspan x="1810.15" dy="17">produces the deterministic</tspan><tspan x="1810.15" dy="17">export envelope.</tspan></text>
      </g><g data-element="domain.contracts"><rect x="2218.68" y="850" width="212" height="180" rx="14" fill="#ffffff" stroke="#d5d5d0" stroke-width="1.3"/>
      <g transform="translate(2404.68 867) scale(0.667)" color="#89A579" opacity="0.85"><title>Component</title><g fill="none" stroke="currentColor" stroke-width="1.5" stroke-linecap="round" stroke-linejoin="round"><path d="M7 7V4h13v16H7v-3m0-6v2"/><rect x="3" y="7" width="8" height="4" rx="1"/><rect x="3" y="13" width="8" height="4" rx="1"/></g></g>
      <text x="2238.68" y="882" font-size="14" font-weight="600" fill="#292927"><tspan x="2238.68" dy="0">Provider</tspan><tspan x="2238.68" dy="20">contracts</tspan></text>
      <text x="2238.68" y="927" font-size="12" font-weight="400" fill="#6d6d68"><tspan x="2238.68" dy="0">IssueMetrics and</tspan><tspan x="2238.68" dy="17">HostingMetrics shapes and</tspan><tspan x="2238.68" dy="17">the provider interfaces the</tspan><tspan x="2238.68" dy="17">rest of the app consumes</tspan><tspan x="2238.68" dy="17">instead of TD records or</tspan><tspan x="2238.68" dy="17">GitHub responses.</tspan></text>
      </g><g data-element="scanning"><rect x="1792.2949999999998" y="374.5" width="212" height="197" rx="14" fill="#ffffff" stroke="#d5d5d0" stroke-width="1.3"/>
      <g transform="translate(1978.295 391.5) scale(0.667)" color="#9A91C4" opacity="0.85"><title>Subsystem</title><g fill="none" stroke="currentColor" stroke-width="1.5" stroke-linecap="round" stroke-linejoin="round"><rect x="3" y="8" width="13" height="13" rx="2"/><path d="M8 5V3h13v13h-2"/></g></g>
      <text x="1812.295" y="406.5" font-size="14" font-weight="600" fill="#292927"><tspan x="1812.295" dy="0">Scanner &amp;</tspan><tspan x="1812.295" dy="20">collectors</tspan></text>
      <text x="1812.295" y="451.5" font-size="12" font-weight="400" fill="#6d6d68"><tspan x="1812.295" dy="0">Cache-first, bounded</tspan><tspan x="1812.295" dy="17">refresh of the catalog</tspan><tspan x="1812.295" dy="17">under a durable lease: local</tspan><tspan x="1812.295" dy="17">collectors spawn tools,</tspan><tspan x="1812.295" dy="17">remote adapters degrade to</tspan><tspan x="1812.295" dy="17">availability states, and</tspan><tspan x="1812.295" dy="17">nothing fails a whole scan.</tspan></text>
      </g><g data-element="catalog.database"><rect x="3137.06" y="942" width="212" height="180" rx="14" fill="#ffffff" stroke="#d5d5d0" stroke-width="1.3"/>
      <g transform="translate(3323.06 959) scale(0.667)" color="#B59669" opacity="0.85"><title>Component</title><g fill="none" stroke="currentColor" stroke-width="1.5" stroke-linecap="round" stroke-linejoin="round"><path d="M7 7V4h13v16H7v-3m0-6v2"/><rect x="3" y="7" width="8" height="4" rx="1"/><rect x="3" y="13" width="8" height="4" rx="1"/></g></g>
      <text x="3157.06" y="974" font-size="14" font-weight="600" fill="#292927"><tspan x="3157.06" dy="0">Database &amp;</tspan><tspan x="3157.06" dy="20">migrations</tspan></text>
      <text x="3157.06" y="1019" font-size="12" font-weight="400" fill="#6d6d68"><tspan x="3157.06" dy="0">Opens SQLite in WAL mode,</tspan><tspan x="3157.06" dy="17">serializes writes through</tspan><tspan x="3157.06" dy="17">one promise tail, and applies</tspan><tspan x="3157.06" dy="17">six versioned migrations</tspan><tspan x="3157.06" dy="17">statement by statement</tspan><tspan x="3157.06" dy="17">inside transactions.</tspan></text>
      </g><g data-element="catalog.repository"><rect x="2720" y="785" width="212" height="231" rx="14" fill="#ffffff" stroke="#d5d5d0" stroke-width="1.3"/>
      <g transform="translate(2906 802) scale(0.667)" color="#B59669" opacity="0.85"><title>Component</title><g fill="none" stroke="currentColor" stroke-width="1.5" stroke-linecap="round" stroke-linejoin="round"><path d="M7 7V4h13v16H7v-3m0-6v2"/><rect x="3" y="7" width="8" height="4" rx="1"/><rect x="3" y="13" width="8" height="4" rx="1"/></g></g>
      <text x="2740" y="817" font-size="14" font-weight="600" fill="#292927"><tspan x="2740" dy="0">Catalog</tspan><tspan x="2740" dy="20">repository</tspan></text>
      <text x="2740" y="862" font-size="12" font-weight="400" fill="#6d6d68"><tspan x="2740" dy="0">The one persistence</tspan><tspan x="2740" dy="17">interface: projects and</tspan><tspan x="2740" dy="17">flags, decisions, website</tspan><tspan x="2740" dy="17">copy, metrics and</tspan><tspan x="2740" dy="17">snapshots, stacks and</tspan><tspan x="2740" dy="17">release baselines, collection</tspan><tspan x="2740" dy="17">errors, and scan runs with</tspan><tspan x="2740" dy="17">lease acquisition, renewal,</tspan><tspan x="2740" dy="17">and completion.</tspan></text>
      </g><g data-element="catalog.sqlite"><rect x="3532.34" y="910" width="212" height="244" rx="14" fill="#ffffff" stroke="#d5d5d0" stroke-width="1.3"/>
      <g transform="translate(3718.34 927) scale(0.667)" color="#B59669" opacity="0.85"><title>Store</title><g fill="none" stroke="currentColor" stroke-width="1.5" stroke-linecap="round" stroke-linejoin="round"><ellipse cx="12" cy="6" rx="8" ry="3"/><path d="M4 6v12c0 4 16 4 16 0V6M4 12c0 4 16 4 16 0"/></g></g>
      <text x="3552.34" y="942" font-size="14" font-weight="600" fill="#292927"><tspan x="3552.34" dy="0">ongoing.sqlite</tspan></text>
      <text x="3552.34" y="966" font-size="12" font-weight="400" fill="#6d6d68"><tspan x="3552.34" dy="0">projects, project_metrics,</tspan><tspan x="3552.34" dy="17">metric_snapshots,</tspan><tspan x="3552.34" dy="17">project_stacks,</tspan><tspan x="3552.34" dy="17">toolchain_releases,</tspan><tspan x="3552.34" dy="17">toolchain_baseline_status,</tspan><tspan x="3552.34" dy="17">collection_errors,</tspan><tspan x="3552.34" dy="17">scan_runs, website_pages.</tspan><tspan x="3552.34" dy="17">Default</tspan><tspan x="3552.34" dy="17">.data/ongoing.sqlite;</tspan><tspan x="3552.34" dy="17">Application Support in</tspan><tspan x="3552.34" dy="17">production.</tspan></text>
      </g><g data-element="ops"><rect x="457.78999999999996" y="1414.5" width="212" height="163" rx="14" fill="#ffffff" stroke="#d5d5d0" stroke-width="1.3"/>
      <g transform="translate(643.79 1431.5) scale(0.667)" color="#9FA8B3" opacity="0.85"><title>Subsystem</title><g fill="none" stroke="currentColor" stroke-width="1.5" stroke-linecap="round" stroke-linejoin="round"><rect x="3" y="8" width="13" height="13" rx="2"/><path d="M8 5V3h13v13h-2"/></g></g>
      <text x="477.79" y="1446.5" font-size="14" font-weight="600" fill="#292927"><tspan x="477.79" dy="0">Release &amp;</tspan><tspan x="477.79" dy="20">operations</tspan></text>
      <text x="477.79" y="1491.5" font-size="12" font-weight="400" fill="#6d6d68"><tspan x="477.79" dy="0">Private-host tooling for</tspan><tspan x="477.79" dy="17">aerie.local: pinned Bun,</tspan><tspan x="477.79" dy="17">launchd definitions,</tspan><tspan x="477.79" dy="17">backups, and health-gated</tspan><tspan x="477.79" dy="17">deploys.</tspan></text>
      </g><g data-element="external"><rect x="2695" y="98.5" width="212" height="129" rx="14" fill="#ffffff" stroke="#d5d5d0" stroke-width="1.3"/>
      <g transform="translate(2881 115.5) scale(0.667)" color="#A69B8C" opacity="0.85"><title>Subsystem</title><g fill="none" stroke="currentColor" stroke-width="1.5" stroke-linecap="round" stroke-linejoin="round"><rect x="3" y="8" width="13" height="13" rx="2"/><path d="M8 5V3h13v13h-2"/></g></g>
      <text x="2715" y="130.5" font-size="14" font-weight="600" fill="#292927"><tspan x="2715" dy="0">Outside the</tspan><tspan x="2715" dy="20">process</tspan></text>
      <text x="2715" y="175.5" font-size="12" font-weight="400" fill="#6d6d68"><tspan x="2715" dy="0">Tools, services, and hosts</tspan><tspan x="2715" dy="17">Ongoing depends on but does</tspan><tspan x="2715" dy="17">not own.</tspan></text>
      </g><g><rect x="291.005" y="1697" width="112.77999999999997" height="38" rx="5" fill="#f8f8f6"/><text x="347.395" y="1710" text-anchor="middle" font-size="11" fill="#62625e"><tspan x="347.395" dy="0">Browses and edits</tspan><tspan x="347.395" dy="15">in the dashboard</tspan></text></g><g><rect x="286" y="1148" width="122.78999999999996" height="38" rx="5" fill="#f8f8f6"/><text x="347.395" y="1161" text-anchor="middle" font-size="11" fill="#62625e"><tspan x="347.395" dy="0">Runs ongoing from a</tspan><tspan x="347.395" dy="15">shell</tspan></text></g><g><rect x="725.54" y="1194" width="118.82999999999997" height="68" rx="5" fill="#f8f8f6"/><text x="784.9549999999999" y="1207" text-anchor="middle" font-size="11" fill="#62625e"><tspan x="784.9549999999999" dy="0">GET /api/projects,</tspan><tspan x="784.9549999999999" dy="15">PATCH</tspan><tspan x="784.9549999999999" dy="15">/api/projects/:id,</tspan><tspan x="784.9549999999999" dy="15">...</tspan></text></g><g><rect x="736.7049999999999" y="1286" width="96.49999999999999" height="23" rx="5" fill="#f8f8f6"/><text x="784.9549999999999" y="1299" text-anchor="middle" font-size="11" fill="#62625e"><tspan x="784.9549999999999" dy="0">POST /api/scan</tspan></text></g><g><rect x="739.8399999999999" y="1333" width="90.22999999999998" height="38" rx="5" fill="#f8f8f6"/><text x="784.9549999999999" y="1346" text-anchor="middle" font-size="11" fill="#62625e"><tspan x="784.9549999999999" dy="0">website copy,</tspan><tspan x="784.9549999999999" dy="15">pages, export</tspan></text></g><g><rect x="1160.75" y="231" width="115.52999999999997" height="53" rx="5" fill="#f8f8f6"/><text x="1218.5149999999999" y="244" text-anchor="middle" font-size="11" fill="#62625e"><tspan x="1218.5149999999999" dy="0">bootout /</tspan><tspan x="1218.5149999999999" dy="15">bootstrap the web</tspan><tspan x="1218.5149999999999" dy="15">and scan agents</tspan></text></g><g><rect x="737.6949999999999" y="1132" width="94.51999999999998" height="38" rx="5" fill="#f8f8f6"/><text x="784.9549999999999" y="1145" text-anchor="middle" font-size="11" fill="#62625e"><tspan x="784.9549999999999" dy="0">favorite, hide,</tspan><tspan x="784.9549999999999" dy="15">reorder, open</tspan></text></g><g><rect x="736.5949999999999" y="946" width="96.71999999999998" height="38" rx="5" fill="#f8f8f6"/><text x="784.9549999999999" y="959" text-anchor="middle" font-size="11" fill="#62625e"><tspan x="784.9549999999999" dy="0">PATCH note and</tspan><tspan x="784.9549999999999" dy="15">decision fields</tspan></text></g><g><rect x="940.9449999999999" y="1521" width="122.34999999999998" height="38" rx="5" fill="#f8f8f6"/><text x="1002.1199999999999" y="1534" text-anchor="middle" font-size="11" fill="#62625e"><tspan x="1002.1199999999999" dy="0">Re-classifies after</tspan><tspan x="1002.1199999999999" dy="15">an optimistic edit</tspan></text></g><g><rect x="736.7049999999999" y="1457" width="96.49999999999999" height="23" rx="5" fill="#f8f8f6"/><text x="784.9549999999999" y="1470" text-anchor="middle" font-size="11" fill="#62625e"><tspan x="784.9549999999999" dy="0">POST /api/scan</tspan></text></g><g><rect x="722.79" y="508" width="124.32999999999996" height="38" rx="5" fill="#f8f8f6"/><text x="784.9549999999999" y="521" text-anchor="middle" font-size="11" fill="#62625e"><tspan x="784.9549999999999" dy="0">Server-Sent Events</tspan><tspan x="784.9549999999999" dy="15">per run</tspan></text></g><g><rect x="760.52" y="1082" width="48.87" height="23" rx="5" fill="#f8f8f6"/><text x="784.9549999999999" y="1095" text-anchor="middle" font-size="11" fill="#62625e"><tspan x="784.9549999999999" dy="0">Unhide</tspan></text></g><g><rect x="723.56" y="1392" width="122.78999999999996" height="38" rx="5" fill="#f8f8f6"/><text x="784.9549999999999" y="1405" text-anchor="middle" font-size="11" fill="#62625e"><tspan x="784.9549999999999" dy="0">Verifies the secret</tspan><tspan x="784.9549999999999" dy="15">and sets the cookie</tspan></text></g><g><rect x="1170.2649999999999" y="635" width="96.49999999999999" height="53" rx="5" fill="#f8f8f6"/><text x="1218.5149999999999" y="648" text-anchor="middle" font-size="11" fill="#62625e"><tspan x="1218.5149999999999" dy="0">Arms the</tspan><tspan x="1218.5149999999999" dy="15">development</tspan><tspan x="1218.5149999999999" dy="15">scheduler once</tspan></text></g><g><rect x="1169.77" y="1535" width="97.48999999999998" height="38" rx="5" fill="#f8f8f6"/><text x="1218.5149999999999" y="1548" text-anchor="middle" font-size="11" fill="#62625e"><tspan x="1218.5149999999999" dy="0">Builds the page</tspan><tspan x="1218.5149999999999" dy="15">model</tspan></text></g><g><rect x="1157.2299999999998" y="1600" width="122.56999999999996" height="38" rx="5" fill="#f8f8f6"/><text x="1218.5149999999999" y="1613" text-anchor="middle" font-size="11" fill="#62625e"><tspan x="1218.5149999999999" dy="0">Validates notes and</tspan><tspan x="1218.5149999999999" dy="15">decisions</tspan></text></g><g><rect x="1844.7649999999999" y="1688.5" width="107.05999999999997" height="53" rx="5" fill="#f8f8f6"/><text x="1898.2949999999998" y="1701.5" text-anchor="middle" font-size="11" fill="#62625e"><tspan x="1898.2949999999998" dy="0">Flags, notes,</tspan><tspan x="1898.2949999999998" dy="15">decisions, order,</tspan><tspan x="1898.2949999999998" dy="15">forget</tspan></text></g><g><rect x="1160.2549999999999" y="712" width="116.51999999999997" height="38" rx="5" fill="#f8f8f6"/><text x="1218.5149999999999" y="725" text-anchor="middle" font-size="11" fill="#62625e"><tspan x="1218.5149999999999" dy="0">Starts a manual or</tspan><tspan x="1218.5149999999999" dy="15">project run</tspan></text></g><g><rect x="1162.125" y="496" width="112.77999999999997" height="53" rx="5" fill="#f8f8f6"/><text x="1218.5149999999999" y="509" text-anchor="middle" font-size="11" fill="#62625e"><tspan x="1218.5149999999999" dy="0">Replays and</tspan><tspan x="1218.5149999999999" dy="15">subscribes to run</tspan><tspan x="1218.5149999999999" dy="15">events</tspan></text></g><g><rect x="1160.3649999999998" y="946" width="116.29999999999997" height="53" rx="5" fill="#f8f8f6"/><text x="1218.5149999999999" y="959" text-anchor="middle" font-size="11" fill="#62625e"><tspan x="1218.5149999999999" dy="0">Validates copy and</tspan><tspan x="1218.5149999999999" dy="15">exports eligible</tspan><tspan x="1218.5149999999999" dy="15">entries</tspan></text></g><g><rect x="1843.0049999999999" y="1981.5" width="110.57999999999997" height="38" rx="5" fill="#f8f8f6"/><text x="1898.2949999999998" y="1994.5" text-anchor="middle" font-size="11" fill="#62625e"><tspan x="1898.2949999999998" dy="0">Website copy and</tspan><tspan x="1898.2949999999998" dy="15">standalone pages</tspan></text></g><g><rect x="1838.77" y="2043.5" width="119.04999999999997" height="38" rx="5" fill="#f8f8f6"/><text x="1898.295" y="2056.5" text-anchor="middle" font-size="11" fill="#62625e"><tspan x="1898.295" dy="0">Opens and migrates</tspan><tspan x="1898.295" dy="15">the catalog</tspan></text></g><g><rect x="1162.62" y="573" width="111.78999999999998" height="38" rx="5" fill="#f8f8f6"/><text x="1218.5149999999999" y="586" text-anchor="middle" font-size="11" fill="#62625e"><tspan x="1218.5149999999999" dy="0">Re-enriches a</tspan><tspan x="1218.5149999999999" dy="15">restored project</tspan></text></g><g><rect x="2515.9249999999997" y="1613.5" width="118.82999999999997" height="53" rx="5" fill="#f8f8f6"/><text x="2575.3399999999997" y="1626.5" text-anchor="middle" font-size="11" fill="#62625e"><tspan x="2575.3399999999997" dy="0">Projects, metrics,</tspan><tspan x="2575.3399999999997" dy="15">snapshots, stacks,</tspan><tspan x="2575.3399999999997" dy="15">errors</tspan></text></g><g><rect x="1631.4199999999998" y="1147.5" width="103.53999999999999" height="38" rx="5" fill="#f8f8f6"/><text x="1683.1899999999998" y="1160.5" text-anchor="middle" font-size="11" fill="#62625e"><tspan x="1683.1899999999998" dy="0">Classifies every</tspan><tspan x="1683.1899999999998" dy="15">project</tspan></text></g><g><rect x="1626.9099999999999" y="1331.5" width="112.55999999999997" height="53" rx="5" fill="#f8f8f6"/><text x="1683.1899999999998" y="1344.5" text-anchor="middle" font-size="11" fill="#62625e"><tspan x="1683.1899999999998" dy="0">Resolves declared</tspan><tspan x="1683.1899999999998" dy="15">versions against</tspan><tspan x="1683.1899999999998" dy="15">baselines</tspan></text></g><g><rect x="1628.1749999999997" y="1516" width="110.02999999999997" height="38" rx="5" fill="#f8f8f6"/><text x="1683.1899999999996" y="1529" text-anchor="middle" font-size="11" fill="#62625e"><tspan x="1683.1899999999996" dy="0">Sorts and applies</tspan><tspan x="1683.1899999999996" dy="15">the query</tspan></text></g><g><rect x="2061.245" y="946" width="100.01999999999998" height="53" rx="5" fill="#f8f8f6"/><text x="2111.255" y="959" text-anchor="middle" font-size="11" fill="#62625e"><tspan x="2111.255" dy="0">Repository</tspan><tspan x="2111.255" dy="15">visibility from</tspan><tspan x="2111.255" dy="15">hosting metrics</tspan></text></g><g><rect x="2052.83" y="1147.5" width="116.84999999999998" height="38" rx="5" fill="#f8f8f6"/><text x="2111.255" y="1160.5" text-anchor="middle" font-size="11" fill="#62625e"><tspan x="2111.255" dy="0">Metric shapes and</tspan><tspan x="2111.255" dy="15">availability states</tspan></text></g><g><rect x="2515.9249999999997" y="1705.5" width="118.82999999999997" height="53" rx="5" fill="#f8f8f6"/><text x="2575.3399999999997" y="1718.5" text-anchor="middle" font-size="11" fill="#62625e"><tspan x="2575.3399999999997" dy="0">Lease, metrics,</tspan><tspan x="2575.3399999999997" dy="15">snapshots, errors,</tspan><tspan x="2575.3399999999997" dy="15">run progress</tspan></text></g><g><rect x="2514.055" y="186" width="122.56999999999998" height="38" rx="5" fill="#f8f8f6"/><text x="2575.3399999999997" y="199" text-anchor="middle" font-size="11" fill="#62625e"><tspan x="2575.3399999999997" dy="0">Walks roots and</tspan><tspan x="2575.3399999999997" dy="15">stats missing paths</tspan></text></g><g><rect x="2526.705" y="1921.5" width="97.26999999999998" height="38" rx="5" fill="#f8f8f6"/><text x="2575.34" y="1934.5" text-anchor="middle" font-size="11" fill="#62625e"><tspan x="2575.34" dy="0">Upsert, mark</tspan><tspan x="2575.34" dy="15">missing, forget</tspan></text></g><g><rect x="2516.4199999999996" y="402" width="117.83999999999996" height="53" rx="5" fill="#f8f8f6"/><text x="2575.3399999999997" y="415" text-anchor="middle" font-size="11" fill="#62625e"><tspan x="2575.3399999999997" dy="0">HTTP when</tspan><tspan x="2575.3399999999997" dy="15">.todos/serve-port</tspan><tspan x="2575.3399999999997" dy="15">is live</tspan></text></g><g><rect x="2527.0899999999997" y="479" width="96.49999999999999" height="23" rx="5" fill="#f8f8f6"/><text x="2575.3399999999997" y="492" text-anchor="middle" font-size="11" fill="#62625e"><tspan x="2575.3399999999997" dy="0">Root manifests</tspan></text></g><g><rect x="2523.5699999999997" y="1782.5" width="103.53999999999998" height="53" rx="5" fill="#f8f8f6"/><text x="2575.3399999999997" y="1795.5" text-anchor="middle" font-size="11" fill="#62625e"><tspan x="2575.3399999999997" dy="0">Hosting metrics,</tspan><tspan x="2575.3399999999997" dy="15">snapshots,</tspan><tspan x="2575.3399999999997" dy="15">availability</tspan></text></g><g><rect x="2512.68" y="248" width="125.31999999999996" height="53" rx="5" fill="#f8f8f6"/><text x="2575.3399999999997" y="261" text-anchor="middle" font-size="11" fill="#62625e"><tspan x="2575.3399999999997" dy="0">Spawned with</tspan><tspan x="2575.3399999999997" dy="15">timeouts and output</tspan><tspan x="2575.3399999999997" dy="15">caps</tspan></text></g><g><rect x="2529.95" y="526" width="90.77999999999999" height="23" rx="5" fill="#f8f8f6"/><text x="2575.3399999999997" y="539" text-anchor="middle" font-size="11" fill="#62625e"><tspan x="2575.3399999999997" dy="0">api.github.com</tspan></text></g><g><rect x="2514.055" y="1859.5" width="122.56999999999996" height="38" rx="5" fill="#f8f8f6"/><text x="2575.3399999999997" y="1872.5" text-anchor="middle" font-size="11" fill="#62625e"><tspan x="2575.3399999999997" dy="0">toolchain_releases</tspan><tspan x="2575.3399999999997" dy="15">and baseline status</tspan></text></g><g><rect x="2512.8999999999996" y="325" width="124.87999999999995" height="53" rx="5" fill="#f8f8f6"/><text x="2575.3399999999997" y="338" text-anchor="middle" font-size="11" fill="#62625e"><tspan x="2575.3399999999997" dy="0">GET</tspan><tspan x="2575.3399999999997" dy="15">/api/v1/products/:i</tspan><tspan x="2575.3399999999997" dy="15">d</tspan></text></g><g><rect x="2981" y="906.5" width="107.05999999999997" height="38" rx="5" fill="#f8f8f6"/><text x="3034.53" y="919.5" text-anchor="middle" font-size="11" fill="#62625e"><tspan x="3034.53" dy="0">Serialized writes</tspan><tspan x="3034.53" dy="15">and queries</tspan></text></g><g><rect x="3398.06" y="1038" width="85.27999999999997" height="38" rx="5" fill="#f8f8f6"/><text x="3440.7" y="1051" text-anchor="middle" font-size="11" fill="#62625e"><tspan x="3440.7" dy="0">WAL journal,</tspan><tspan x="3440.7" dy="15">migrations</tspan></text></g><g><rect x="1839.7599999999998" y="59" width="117.06999999999996" height="23" rx="5" fill="#f8f8f6"/><text x="1898.2949999999998" y="72" text-anchor="middle" font-size="11" fill="#62625e"><tspan x="1898.2949999999998" dy="0">Web agent on 7766</tspan></text></g><g><rect x="1157.12" y="30" width="122.78999999999996" height="38" rx="5" fill="#f8f8f6"/><text x="1218.5149999999999" y="43" text-anchor="middle" font-size="11" fill="#62625e"><tspan x="1218.5149999999999" dy="0">Scan agent at 03:00</tspan><tspan x="1218.5149999999999" dy="15">local</tspan></text></g><g><rect x="940.8349999999999" y="479" width="122.56999999999995" height="53" rx="5" fill="#f8f8f6"/><text x="1002.1199999999999" y="492" text-anchor="middle" font-size="11" fill="#62625e"><tspan x="1002.1199999999999" dy="0">One cli-reason scan</tspan><tspan x="1002.1199999999999" dy="15">with the shared</tspan><tspan x="1002.1199999999999" dy="15">wiring</tspan></text></g><g><rect x="1181.54" y="2042.5" width="73.95" height="53" rx="5" fill="#f8f8f6"/><text x="1218.5149999999999" y="2055.5" text-anchor="middle" font-size="11" fill="#62625e"><tspan x="1218.5149999999999" dy="0">Opens the</tspan><tspan x="1218.5149999999999" dy="15">production</tspan><tspan x="1218.5149999999999" dy="15">database</tspan></text></g><g><rect x="1161.85" y="169" width="113.32999999999997" height="38" rx="5" fill="#f8f8f6"/><text x="1218.5149999999999" y="182" text-anchor="middle" font-size="11" fill="#62625e"><tspan x="1218.5149999999999" dy="0">Quiesce, reinstall</tspan><tspan x="1218.5149999999999" dy="15">definitions, start</tspan></text></g><g><rect x="1157.2299999999998" y="774" width="122.56999999999998" height="53" rx="5" fill="#f8f8f6"/><text x="1218.5149999999999" y="787" text-anchor="middle" font-size="11" fill="#62625e"><tspan x="1218.5149999999999" dy="0">Consistent backup,</tspan><tspan x="1218.5149999999999" dy="15">migrate once,</tspan><tspan x="1218.5149999999999" dy="15">restore on rollback</tspan></text></g><g><rect x="727.3" y="1008" width="115.30999999999997" height="53" rx="5" fill="#f8f8f6"/><text x="784.9549999999999" y="1021" text-anchor="middle" font-size="11" fill="#62625e"><tspan x="784.9549999999999" dy="0">Health and</tspan><tspan x="784.9549999999999" dy="15">authenticated LAN</tspan><tspan x="784.9549999999999" dy="15">smoke</tspan></text></g><g><rect x="1181.54" y="2122.5" width="73.94999999999999" height="38" rx="5" fill="#f8f8f6"/><text x="1218.5149999999999" y="2135.5" text-anchor="middle" font-size="11" fill="#62625e"><tspan x="1218.5149999999999" dy="0">Standalone</tspan><tspan x="1218.5149999999999" dy="15">migration</tspan></text></g><g><rect x="1837.0099999999998" y="109" width="122.56999999999996" height="38" rx="5" fill="#f8f8f6"/><text x="1898.2949999999998" y="122" text-anchor="middle" font-size="11" fill="#62625e"><tspan x="1898.2949999999998" dy="0">GET /api/website on</tspan><tspan x="1898.2949999999998" dy="15">deployment</tspan></text></g></g>
  <g data-export-layer="legend"></g><path d="M96 1010H1824" stroke="#ddddda"/><text x="96" y="1044" font-size="13" fill="#7d7d77">STRUCTURE · CURRENT SYSTEM</text><text x="1824" y="1044" text-anchor="end" font-size="13" fill="#7d7d77">ongoing · Authored architecture</text></g></svg>
