<svg xmlns="http://www.w3.org/2000/svg" width="1920" height="1080" viewBox="0 0 1920 1080" role="img" aria-labelledby="title description" data-theme="graphite" data-theme-appearance="light">
  <title id="title">Ongoing / Ongoing as a software inventory</title><desc id="description">The whole redesign in one frame. Phases 1 through 5 have landed: entries, the field registry, the query grammar, the entries API, the CLI and its transport, the keyboard-first browser shell that builds the same query string, the provider manifests, one configuration file, the host adapter, and the deployment and export profiles. Phase 6 — completeness, remote-only entries, and the open-source release — is not modelled yet.. Architecture structure.</desc>
  <defs><marker id="arrow" viewBox="0 0 10 10" refX="9" refY="5" markerWidth="5" markerHeight="5" orient="auto-start-reverse"><path d="M 0 0 L 10 5 L 0 10 z" fill="#85857f"/></marker></defs>
  <rect width="1920" height="1080" fill="#f8f8f6"/>
  <g font-family="Arial, Helvetica, sans-serif"><text x="96" y="58" font-size="12" letter-spacing="3" fill="#626b6f">FRACTAL / SYSTEM MODEL</text>
  <g data-export-layer="title"><text x="96" y="116" font-size="48" font-weight="600" fill="#292927"><tspan x="96" dy="0">Ongoing / Ongoing as a software inventory</tspan></text></g>
  <g data-export-layer="subtitle"><text x="96" y="170" font-size="19" font-weight="400" fill="#74746f"><tspan x="96" dy="0">The whole redesign in one frame. Phases 1 through 5 have landed: entries, the field registry, the query grammar, the entries API, the CLI and its transport, the keyboard-first</tspan><tspan x="96" dy="26">browser shell that builds the same query string, the provider manifests, one configuration file, the host adapter, and the deployment and export profiles. Phase 6 — completeness,</tspan><tspan x="96" dy="26">remote-only entries, and the open-source release — is not modelled yet.</tspan></text></g>
  <g data-export-layer="diagram" transform="translate(676.863 262) scale(0.221)"><g data-element="inventory"><rect x="25" y="24" width="2512.2699999999995" height="3146.5" rx="14" fill="#eeeeeb" stroke="#d5d5d0" stroke-width="1.3"/>
      <g transform="translate(2511.27 41) scale(0.667)" color="#7FA8C9" opacity="0.85"><title>Subsystem</title><g fill="none" stroke="currentColor" stroke-width="1.5" stroke-linecap="round" stroke-linejoin="round"><rect x="3" y="8" width="13" height="13" rx="2"/><path d="M8 5V3h13v13h-2"/></g></g>
      <text x="49" y="54" font-size="14" font-weight="600" fill="#292927"><tspan x="49" dy="0">Software inventory</tspan></text>
      <text x="45" y="78" font-size="12" font-weight="400" fill="#6d6d68"></text>
      </g><path d="M263,299 L279,299 L279,1919.5 L872.61,1919.5 L872.61,2638 L922.25,2638" fill="none" stroke="#85857f" stroke-width="1.5" marker-end="url(#arrow)"/><path d="M263,299 L279,299 L279,2226 L476.84,2226" fill="none" stroke="#85857f" stroke-width="1.5" marker-end="url(#arrow)"/><path d="M263,299 L279,299 L279,473 L716.84,473 L716.84,1584 L1396.4,1584" fill="none" stroke="#85857f" stroke-width="1.5" marker-end="url(#arrow)"/><path d="M690.84,2990.5 L872.61,2990.5 L872.61,2638 L922.25,2638" fill="none" stroke="#85857f" stroke-width="1.5" marker-end="url(#arrow)"/><path d="M690.84,2638 L922.25,2638" fill="none" stroke="#85857f" stroke-width="1.5" marker-end="url(#arrow)"/><path d="M263,299 L279,299 L279,1723 L476.84,1723" fill="none" stroke="#85857f" stroke-width="1.5" marker-end="url(#arrow)"/><path d="M690.84,1723 L1169.89,1723 L1169.89,1584 L1396.4,1584" fill="none" stroke="#85857f" stroke-width="1.5" marker-end="url(#arrow)"/><path d="M263,299 L476.84,299" fill="none" stroke="#85857f" stroke-width="1.5" marker-end="url(#arrow)"/><path d="M690.84,299 L1815.85,299 L1815.85,931.5 L1847.85,931.5" fill="none" stroke="#85857f" stroke-width="1.5" marker-end="url(#arrow)"/><path d="M690.84,299 L726.84,299 L726.84,1740 L872.61,1740 L872.61,2638 L922.25,2638" fill="none" stroke="#85857f" stroke-width="1.5" marker-end="url(#arrow)"/><path d="M1153.89,841.5 L1342.77,841.5 L1342.77,497.5 L1374.77,497.5" fill="none" stroke="#85857f" stroke-width="1.5" marker-end="url(#arrow)"/><path d="M1153.89,841.5 L1179.89,841.5 L1179.89,931.5 L1847.85,931.5" fill="none" stroke="#85857f" stroke-width="1.5" marker-end="url(#arrow)"/><path d="M690.84,1345 L706.84,1345 L706.84,2700 L872.61,2700 L872.61,2638 L922.25,2638" fill="none" stroke="#85857f" stroke-width="1.5" marker-end="url(#arrow)"/><path d="M690.84,1345 L872.61,1345 L872.61,1407 L1169.89,1407 L1169.89,1584 L1396.4,1584" fill="none" stroke="#85857f" stroke-width="1.5" marker-end="url(#arrow)"/><path d="M690.84,1345 L1342.77,1345 L1342.77,1180.5 L1374.77,1180.5" fill="none" stroke="#85857f" stroke-width="1.5" marker-end="url(#arrow)"/><path d="M1136.25,2638 L1169.89,2638 L1169.89,2713 L1815.85,2713 L1815.85,931.5 L1847.85,931.5" fill="none" stroke="#85857f" stroke-width="1.5" marker-end="url(#arrow)"/><path d="M1136.25,2638 L1342.77,2638 L1342.77,1584 L1396.4,1584" fill="none" stroke="#85857f" stroke-width="1.5" marker-end="url(#arrow)"/><path d="M1610.4,1584 L1815.85,1584 L1815.85,931.5 L1847.85,931.5" fill="none" stroke="#85857f" stroke-width="1.5" marker-end="url(#arrow)"/><path d="M2078.65,931.5 L2290.73,931.5" fill="none" stroke="#85857f" stroke-width="1.5" marker-end="url(#arrow)"/><path d="M1632.03,497.5 L1815.85,497.5 L1815.85,931.5 L1847.85,931.5" fill="none" stroke="#85857f" stroke-width="1.5" marker-end="url(#arrow)"/><path d="M1153.89,497.5 L1374.77,497.5" fill="none" stroke="#85857f" stroke-width="1.5" marker-end="url(#arrow)"/><path d="M1153.89,497.5 L1169.89,497.5 L1169.89,948.5 L1342.77,948.5 L1342.77,1180.5 L1374.77,1180.5" fill="none" stroke="#85857f" stroke-width="1.5" marker-end="url(#arrow)"/><path d="M1153.89,1180.5 L1374.77,1180.5" fill="none" stroke="#85857f" stroke-width="1.5" marker-end="url(#arrow)"/><g data-element="inventory.entries"><rect x="2291.7299999999996" y="782" width="220.53999999999996" height="299" rx="14" fill="#ffffff" stroke="#d5d5d0" stroke-width="1.3"/>
      <g transform="translate(2486.27 799) scale(0.667)" color="#7FA8C9" opacity="0.85"><title>Store</title><g fill="none" stroke="currentColor" stroke-width="1.5" stroke-linecap="round" stroke-linejoin="round"><ellipse cx="12" cy="6" rx="8" ry="3"/><path d="M4 6v12c0 4 16 4 16 0V6M4 12c0 4 16 4 16 0"/></g></g>
      <text x="2311.73" y="814" font-size="14" font-weight="600" fill="#292927"><tspan x="2311.73" dy="0">entries, fields,</tspan><tspan x="2311.73" dy="20">relations</tspan></text>
      <text x="2311.73" y="859" font-size="12" font-weight="400" fill="#6d6d68"><tspan x="2311.73" dy="0">entries (kind, slug, tags,</tspan><tspan x="2311.73" dy="17">attributes JSON),</tspan><tspan x="2311.73" dy="17">entry_sources (which</tspan><tspan x="2311.73" dy="17">provider found it, and where</tspan><tspan x="2311.73" dy="17">— the filesystem provider</tspan><tspan x="2311.73" dy="17">writes the canonical path),</tspan><tspan x="2311.73" dy="17">fields (user-defined),</tspan><tspan x="2311.73" dy="17">relations (uses, provides,</tspan><tspan x="2311.73" dy="17">depends_on, part_of, with</tspan><tspan x="2311.73" dy="17">declared or detected</tspan><tspan x="2311.73" dy="17">evidence), saved_views.</tspan><tspan x="2311.73" dy="17">Projects and technologies</tspan><tspan x="2311.73" dy="17">are rows of one table.</tspan></text>
      </g><g data-element="inventory.registry"><rect x="1848.8499999999997" y="799" width="228.79999999999993" height="265" rx="14" fill="#ffffff" stroke="#d5d5d0" stroke-width="1.3"/>
      <g transform="translate(2051.65 816) scale(0.667)" color="#89A579" opacity="0.85"><title>Component</title><g fill="none" stroke="currentColor" stroke-width="1.5" stroke-linecap="round" stroke-linejoin="round"><path d="M7 7V4h13v16H7v-3m0-6v2"/><rect x="3" y="7" width="8" height="4" rx="1"/><rect x="3" y="13" width="8" height="4" rx="1"/></g></g>
      <text x="1868.85" y="831" font-size="14" font-weight="600" fill="#292927"><tspan x="1868.85" dy="0">Field registry &amp;</tspan><tspan x="1868.85" dy="20">validation</tspan></text>
      <text x="1868.85" y="876" font-size="12" font-weight="400" fill="#6d6d68"><tspan x="1868.85" dy="0">Built-in fields declared in</tspan><tspan x="1868.85" dy="17">code, user fields as rows,</tspan><tspan x="1868.85" dy="17">provider fields projected from</tspan><tspan x="1868.85" dy="17">the metric tables as</tspan><tspan x="1868.85" dy="17">namespaced read-only keys.</tspan><tspan x="1868.85" dy="17">validateEntryPatch(registry,</tspan><tspan x="1868.85" dy="17">kind, patch) is the one pure</tspan><tspan x="1868.85" dy="17">validation path the API, the</tspan><tspan x="1868.85" dy="17">CLI, and the browser all run; an</tspan><tspan x="1868.85" dy="17">unknown key names the closest</tspan><tspan x="1868.85" dy="17">registered field.</tspan></text>
      </g><g data-element="inventory.query"><rect x="1397.3999999999996" y="1385.5" width="212" height="397" rx="14" fill="#ffffff" stroke="#d5d5d0" stroke-width="1.3"/>
      <g transform="translate(1583.4 1402.5) scale(0.667)" color="#89A579" opacity="0.85"><title>Component</title><g fill="none" stroke="currentColor" stroke-width="1.5" stroke-linecap="round" stroke-linejoin="round"><path d="M7 7V4h13v16H7v-3m0-6v2"/><rect x="3" y="7" width="8" height="4" rx="1"/><rect x="3" y="13" width="8" height="4" rx="1"/></g></g>
      <text x="1417.4" y="1417.5" font-size="14" font-weight="600" fill="#292927"><tspan x="1417.4" dy="0">Query grammar</tspan></text>
      <text x="1417.4" y="1441.5" font-size="12" font-weight="400" fill="#6d6d68"><tspan x="1417.4" dy="0">One pure parser and</tspan><tspan x="1417.4" dy="17">evaluator for filter</tspan><tspan x="1417.4" dy="17">clauses, multi-key sorts,</tspan><tspan x="1417.4" dy="17">and column sets. Parsing is</tspan><tspan x="1417.4" dy="17">total; unknown keys error</tspan><tspan x="1417.4" dy="17">against the registry with</tspan><tspan x="1417.4" dy="17">the nearest registered</tspan><tspan x="1417.4" dy="17">field. tag:, view:, tech: and</tspan><tspan x="1417.4" dy="17">kind: are field clauses like</tspan><tspan x="1417.4" dy="17">any other, because the read</tspan><tspan x="1417.4" dy="17">model derives path,</tspan><tspan x="1417.4" dy="17">is_missing, views, warnings,</tspan><tspan x="1417.4" dy="17">tech and stack.lag. The</tspan><tspan x="1417.4" dy="17">pre-Phase-2 view, filter,</tspan><tspan x="1417.4" dy="17">stack and search</tspan><tspan x="1417.4" dy="17">parameters translate into</tspan><tspan x="1417.4" dy="17">clauses through one</tspan><tspan x="1417.4" dy="17">exported table. A saved view</tspan><tspan x="1417.4" dy="17">is the same string stored,</tspan><tspan x="1417.4" dy="17">and views ship built in.</tspan></text>
      </g><g data-element="inventory.entries_api"><rect x="923.2499999999999" y="2448" width="212" height="380" rx="14" fill="#ffffff" stroke="#d5d5d0" stroke-width="1.3"/>
      <g transform="translate(1109.25 2465) scale(0.667)" color="#739886" opacity="0.85"><title>Component</title><g fill="none" stroke="currentColor" stroke-width="1.5" stroke-linecap="round" stroke-linejoin="round"><path d="M7 7V4h13v16H7v-3m0-6v2"/><rect x="3" y="7" width="8" height="4" rx="1"/><rect x="3" y="13" width="8" height="4" rx="1"/></g></g>
      <text x="943.25" y="2480" font-size="14" font-weight="600" fill="#292927"><tspan x="943.25" dy="0">Entries API</tspan></text>
      <text x="943.25" y="2504" font-size="12" font-weight="400" fill="#6d6d68"><tspan x="943.25" dy="0">GET</tspan><tspan x="943.25" dy="17">/api/entries?q=&amp;sort=&amp;colu</tspan><tspan x="943.25" dy="17">mns=&amp;saved= is the one read</tspan><tspan x="943.25" dy="17">endpoint; GET/PATCH/DELETE</tspan><tspan x="943.25" dy="17">/api/entries/:kind/:slug,</tspan><tspan x="943.25" dy="17">POST /api/entries,</tspan><tspan x="943.25" dy="17">/api/fields, /api/relations</tspan><tspan x="943.25" dy="17">and /api/views are the rest.</tspan><tspan x="943.25" dy="17">One flat patch of field keys</tspan><tspan x="943.25" dy="17">per write, validated by the</tspan><tspan x="943.25" dy="17">registry; one query string</tspan><tspan x="943.25" dy="17">per read, parsed by the</tspan><tspan x="943.25" dy="17">grammar. /api/projects</tspan><tspan x="943.25" dy="17">survives as the project</tspan><tspan x="943.25" dy="17">projection the ongoing show</tspan><tspan x="943.25" dy="17">and status commands read</tspan><tspan x="943.25" dy="17">for their attention</tspan><tspan x="943.25" dy="17">reasons; the browser no</tspan><tspan x="943.25" dy="17">longer uses it.</tspan></text>
      </g><g data-element="inventory.entry_cli"><rect x="477.84" y="1163.5" width="212" height="363" rx="14" fill="#ffffff" stroke="#d5d5d0" stroke-width="1.3"/>
      <g transform="translate(663.84 1180.5) scale(0.667)" color="#82A6B6" opacity="0.85"><title>Component</title><g fill="none" stroke="currentColor" stroke-width="1.5" stroke-linecap="round" stroke-linejoin="round"><path d="M7 7V4h13v16H7v-3m0-6v2"/><rect x="3" y="7" width="8" height="4" rx="1"/><rect x="3" y="13" width="8" height="4" rx="1"/></g></g>
      <text x="497.84" y="1195.5" font-size="14" font-weight="600" fill="#292927"><tspan x="497.84" dy="0">Entry CLI verbs</tspan></text>
      <text x="497.84" y="1219.5" font-size="12" font-weight="400" fill="#6d6d68"><tspan x="497.84" dy="0">list with a query string,</tspan><tspan x="497.84" dy="17">--sort, --columns, --saved</tspan><tspan x="497.84" dy="17">and --count; views and</tspan><tspan x="497.84" dy="17">stacks over the same</tspan><tspan x="497.84" dy="17">endpoint; get, set &lt;entry&gt;</tspan><tspan x="497.84" dy="17">&lt;field&gt; &lt;value&gt; with the</tspan><tspan x="497.84" dy="17">original decision flags as</tspan><tspan x="497.84" dy="17">aliases; entry, field, tag,</tspan><tspan x="497.84" dy="17">untag, link, unlink, view,</tspan><tspan x="497.84" dy="17">providers, export, serve.</tspan><tspan x="497.84" dy="17">The CLI imports the domain</tspan><tspan x="497.84" dy="17">registry and the query</tspan><tspan x="497.84" dy="17">parser directly, so a bad</tspan><tspan x="497.84" dy="17">value or a bad clause is</tspan><tspan x="497.84" dy="17">refused before the round</tspan><tspan x="497.84" dy="17">trip, and every flag it</tspan><tspan x="497.84" dy="17">shipped with survives as a</tspan><tspan x="497.84" dy="17">clause alias.</tspan></text>
      </g><g data-element="inventory.transport"><rect x="50" y="521" width="212" height="312" rx="14" fill="#ffffff" stroke="#d5d5d0" stroke-width="1.3"/>
      <g transform="translate(236 538) scale(0.667)" color="#82A6B6" opacity="0.85"><title>Adapter</title><g fill="none" stroke="currentColor" stroke-width="1.5" stroke-linecap="round" stroke-linejoin="round"><path d="M3 7h14l-3-3m3 3-3 3M21 17H7l3-3m-3 3 3 3"/></g></g>
      <text x="70" y="553" font-size="14" font-weight="600" fill="#292927"><tspan x="70" dy="0">CLI transport</tspan></text>
      <text x="70" y="577" font-size="12" font-weight="400" fill="#6d6d68"><tspan x="70" dy="0">The CLI probes /api/health</tspan><tspan x="70" dy="17">and speaks HTTP to</tspan><tspan x="70" dy="17">whatever answers; when</tspan><tspan x="70" dy="17">nothing does it links the</tspan><tspan x="70" dy="17">core library into its own</tspan><tspan x="70" dy="17">process and opens the</tspan><tspan x="70" dy="17">catalog directly, so scan</tspan><tspan x="70" dy="17">and list work with no</tspan><tspan x="70" dy="17">daemon. Both transports</tspan><tspan x="70" dy="17">dispatch to the same library</tspan><tspan x="70" dy="17">functions rather than a</tspan><tspan x="70" dy="17">second implementation, which</tspan><tspan x="70" dy="17">is why the entries read and</tspan><tspan x="70" dy="17">the prune rule moved out of</tspan><tspan x="70" dy="17">their routes.</tspan></text>
      </g><g data-element="inventory.providers"><rect x="1375.7699999999998" y="322.5" width="255.2599999999999" height="350" rx="14" fill="#ffffff" stroke="#d5d5d0" stroke-width="1.3"/>
      <g transform="translate(1605.03 339.5) scale(0.667)" color="#9A91C4" opacity="0.85"><title>Component</title><g fill="none" stroke="currentColor" stroke-width="1.5" stroke-linecap="round" stroke-linejoin="round"><path d="M7 7V4h13v16H7v-3m0-6v2"/><rect x="3" y="7" width="8" height="4" rx="1"/><rect x="3" y="13" width="8" height="4" rx="1"/></g></g>
      <text x="1395.77" y="354.5" font-size="14" font-weight="600" fill="#292927"><tspan x="1395.77" dy="0">Provider registry &amp;</tspan><tspan x="1395.77" dy="20">manifests</tspan></text>
      <text x="1395.77" y="399.5" font-size="12" font-weight="400" fill="#6d6d68"><tspan x="1395.77" dy="0">Eight manifests — filesystem, git,</tspan><tspan x="1395.77" dy="17">td, stack, tech-signatures, loc,</tspan><tspan x="1395.77" dy="17">endoflife, github — each declaring</tspan><tspan x="1395.77" dy="17">the kinds it touches, the</tspan><tspan x="1395.77" dy="17">namespaced read-only fields and</tspan><tspan x="1395.77" dy="17">relation kinds it contributes, the</tspan><tspan x="1395.77" dy="17">commands and variables it requires,</tspan><tspan x="1395.77" dy="17">its schedule, and what it depends</tspan><tspan x="1395.77" dy="17">on. The field registry is built from</tspan><tspan x="1395.77" dy="17">them, so a disabled or unavailable</tspan><tspan x="1395.77" dy="17">provider registers nothing and the</tspan><tspan x="1395.77" dy="17">rules that read it go inert.</tspan><tspan x="1395.77" dy="17">Availability is one pure function</tspan><tspan x="1395.77" dy="17">over a probe of the machine; a</tspan><tspan x="1395.77" dy="17">provider that cannot run records</tspan><tspan x="1395.77" dy="17">why, and never fails a scan.</tspan></text>
      </g><g data-element="inventory.config"><rect x="940.8899999999999" y="316" width="212" height="363" rx="14" fill="#ffffff" stroke="#d5d5d0" stroke-width="1.3"/>
      <g transform="translate(1126.89 333) scale(0.667)" color="#9A91C4" opacity="0.85"><title>Component</title><g fill="none" stroke="currentColor" stroke-width="1.5" stroke-linecap="round" stroke-linejoin="round"><path d="M7 7V4h13v16H7v-3m0-6v2"/><rect x="3" y="7" width="8" height="4" rx="1"/><rect x="3" y="13" width="8" height="4" rx="1"/></g></g>
      <text x="960.89" y="348" font-size="14" font-weight="600" fill="#292927"><tspan x="960.89" dy="0">Configuration</tspan></text>
      <text x="960.89" y="372" font-size="12" font-weight="400" fill="#6d6d68"><tspan x="960.89" dy="0">One TOML file at</tspan><tspan x="960.89" dy="17">~/.config/ongoing/config.to</tspan><tspan x="960.89" dy="17">ml with [server], [scan],</tspan><tspan x="960.89" dy="17">[providers] and</tspan><tspan x="960.89" dy="17">per-provider tables, [host]</tspan><tspan x="960.89" dy="17">and [export];</tspan><tspan x="960.89" dy="17">ONGOING_CONFIG points</tspan><tspan x="960.89" dy="17">elsewhere. Environment</tspan><tspan x="960.89" dy="17">variables stay overrides</tspan><tspan x="960.89" dy="17">and secret carriers, so the</tspan><tspan x="960.89" dy="17">installed LaunchAgents run</tspan><tspan x="960.89" dy="17">unedited, and precedence is</tspan><tspan x="960.89" dy="17">environment over file over</tspan><tspan x="960.89" dy="17">default. A missing file means</tspan><tspan x="960.89" dy="17">defaults; an unknown key is</tspan><tspan x="960.89" dy="17">an error at start-up</tspan><tspan x="960.89" dy="17">rather than a setting that</tspan><tspan x="960.89" dy="17">quietly does nothing.</tspan></text>
      </g><g data-element="inventory.host"><rect x="1375.7699999999998" y="1007.5" width="212" height="346" rx="14" fill="#ffffff" stroke="#d5d5d0" stroke-width="1.3"/>
      <g transform="translate(1561.77 1024.5) scale(0.667)" color="#9FA8B3" opacity="0.85"><title>Adapter</title><g fill="none" stroke="currentColor" stroke-width="1.5" stroke-linecap="round" stroke-linejoin="round"><path d="M3 7h14l-3-3m3 3-3 3M21 17H7l3-3m-3 3 3 3"/></g></g>
      <text x="1395.77" y="1039.5" font-size="14" font-weight="600" fill="#292927"><tspan x="1395.77" dy="0">Host adapter</tspan></text>
      <text x="1395.77" y="1063.5" font-size="12" font-weight="400" fill="#6d6d68"><tspan x="1395.77" dy="0">serve, scan, restart, stop</tspan><tspan x="1395.77" dy="17">and logs behind one</tspan><tspan x="1395.77" dy="17">interface. launchd drives</tspan><tspan x="1395.77" dy="17">the two user LaunchAgents</tspan><tspan x="1395.77" dy="17">and is tested against</tspan><tspan x="1395.77" dy="17">captured launchctl output</tspan><tspan x="1395.77" dy="17">rather than the real</tspan><tspan x="1395.77" dy="17">agents; foreground</tspan><tspan x="1395.77" dy="17">supervises nothing and runs</tspan><tspan x="1395.77" dy="17">the application in the</tspan><tspan x="1395.77" dy="17">terminal, so an install</tspan><tspan x="1395.77" dy="17">without launchd is a</tspan><tspan x="1395.77" dy="17">configuration choice rather</tspan><tspan x="1395.77" dy="17">than a fork. ongoing serve</tspan><tspan x="1395.77" dy="17">--data-dir turns an empty</tspan><tspan x="1395.77" dy="17">directory into a catalog on</tspan><tspan x="1395.77" dy="17">first open.</tspan></text>
      </g><g data-element="inventory.profile"><rect x="905.6099999999999" y="1048" width="247.27999999999992" height="265" rx="14" fill="#ffffff" stroke="#d5d5d0" stroke-width="1.3"/>
      <g transform="translate(1126.89 1065) scale(0.667)" color="#9FA8B3" opacity="0.85"><title>Component</title><g fill="none" stroke="currentColor" stroke-width="1.5" stroke-linecap="round" stroke-linejoin="round"><path d="M7 7V4h13v16H7v-3m0-6v2"/><rect x="3" y="7" width="8" height="4" rx="1"/><rect x="3" y="13" width="8" height="4" rx="1"/></g></g>
      <text x="925.61" y="1080" font-size="14" font-weight="600" fill="#292927"><tspan x="925.61" dy="0">Deployment &amp; export</tspan><tspan x="925.61" dy="20">profiles</tspan></text>
      <text x="925.61" y="1125" font-size="12" font-weight="400" fill="#6d6d68"><tspan x="925.61" dy="0">The aerie constants, the release</tspan><tspan x="925.61" dy="17">client and worker, the</tspan><tspan x="925.61" dy="17">provisioning script and both plist</tspan><tspan x="925.61" dy="17">definitions live in deploy/aerie/,</tspan><tspan x="925.61" dy="17">which the core never imports and</tspan><tspan x="925.61" dy="17">a test enforces. Publishing is a</tspan><tspan x="925.61" dy="17">profile too: opentangle is the</tspan><tspan x="925.61" dy="17">shape OpenTangle reads and json</tspan><tspan x="925.61" dy="17">is the generic one beside it.</tspan><tspan x="925.61" dy="17">ongoing serve and ongoing scan</tspan><tspan x="925.61" dy="17">are all a new machine needs.</tspan></text>
      </g><g data-element="inventory.shell"><rect x="50" y="109" width="212" height="380" rx="14" fill="#ffffff" stroke="#d5d5d0" stroke-width="1.3"/>
      <g transform="translate(236 126) scale(0.667)" color="#759EB5" opacity="0.85"><title>Component</title><g fill="none" stroke="currentColor" stroke-width="1.5" stroke-linecap="round" stroke-linejoin="round"><path d="M7 7V4h13v16H7v-3m0-6v2"/><rect x="3" y="7" width="8" height="4" rx="1"/><rect x="3" y="13" width="8" height="4" rx="1"/></g></g>
      <text x="70" y="141" font-size="14" font-weight="600" fill="#292927"><tspan x="70" dy="0">Inventory shell</tspan></text>
      <text x="70" y="165" font-size="12" font-weight="400" fill="#6d6d68"><tspan x="70" dy="0">One route group over one</tspan><tspan x="70" dy="17">layout load that reads the</tspan><tspan x="70" dy="17">whole catalog: a rail of</tspan><tspan x="70" dy="17">kinds, attention views with</tspan><tspan x="70" dy="17">counts, saved views, radar</tspan><tspan x="70" dy="17">and providers; a table with</tspan><tspan x="70" dy="17">chosen columns and an inline</tspan><tspan x="70" dy="17">editor per field type; j/k, /</tspan><tspan x="70" dy="17">to filter, , to sort, c for</tspan><tspan x="70" dy="17">columns, e to edit, f and x</tspan><tspan x="70" dy="17">for favourite and hidden; a</tspan><tspan x="70" dy="17">detail panel on Enter that</tspan><tspan x="70" dy="17">does not take focus off the</tspan><tspan x="70" dy="17">list. Filtering and sorting</tspan><tspan x="70" dy="17">run in the browser over the</tspan><tspan x="70" dy="17">loaded rows with the same</tspan><tspan x="70" dy="17">pure functions the API runs,</tspan><tspan x="70" dy="17">so a list operation costs no</tspan><tspan x="70" dy="17">round trip.</tspan></text>
      </g><g data-element="inventory.url_state"><rect x="477.84" y="1558.5" width="212" height="329" rx="14" fill="#ffffff" stroke="#d5d5d0" stroke-width="1.3"/>
      <g transform="translate(663.84 1575.5) scale(0.667)" color="#89A579" opacity="0.85"><title>Component</title><g fill="none" stroke="currentColor" stroke-width="1.5" stroke-linecap="round" stroke-linejoin="round"><path d="M7 7V4h13v16H7v-3m0-6v2"/><rect x="3" y="7" width="8" height="4" rx="1"/><rect x="3" y="13" width="8" height="4" rx="1"/></g></g>
      <text x="497.84" y="1590.5" font-size="14" font-weight="600" fill="#292927"><tspan x="497.84" dy="0">URL as the query</tspan></text>
      <text x="497.84" y="1614.5" font-size="12" font-weight="400" fill="#6d6d68"><tspan x="497.84" dy="0">?q=, ?sort=, ?columns= and</tspan><tspan x="497.84" dy="17">?saved= carry exactly the</tspan><tspan x="497.84" dy="17">strings the CLI flags and</tspan><tspan x="497.84" dy="17">the API parameters carry,</tspan><tspan x="497.84" dy="17">built with formatQuery and</tspan><tspan x="497.84" dy="17">formatSort;</tspan><tspan x="497.84" dy="17">?entry=kind/slug is the</tspan><tspan x="497.84" dy="17">open row. listDefaultClauses</tspan><tspan x="497.84" dy="17">is shared with ongoing list,</tspan><tspan x="497.84" dy="17">so a URL and a CLI</tspan><tspan x="497.84" dy="17">invocation return the same</tspan><tspan x="497.84" dy="17">rows rather than mostly</tspan><tspan x="497.84" dy="17">agreeing, and the filter box</tspan><tspan x="497.84" dy="17">shows the effective query</tspan><tspan x="497.84" dy="17">rather than keeping</tspan><tspan x="497.84" dy="17">defaults as hidden state.</tspan></text>
      </g><g data-element="inventory.optimistic"><rect x="477.84" y="141" width="212" height="316" rx="14" fill="#ffffff" stroke="#d5d5d0" stroke-width="1.3"/>
      <g transform="translate(663.84 158) scale(0.667)" color="#89A579" opacity="0.85"><title>Component</title><g fill="none" stroke="currentColor" stroke-width="1.5" stroke-linecap="round" stroke-linejoin="round"><path d="M7 7V4h13v16H7v-3m0-6v2"/><rect x="3" y="7" width="8" height="4" rx="1"/><rect x="3" y="13" width="8" height="4" rx="1"/></g></g>
      <text x="497.84" y="173" font-size="14" font-weight="600" fill="#292927"><tspan x="497.84" dy="0">Optimistic edits &amp;</tspan><tspan x="497.84" dy="20">undo</tspan></text>
      <text x="497.84" y="218" font-size="12" font-weight="400" fill="#6d6d68"><tspan x="497.84" dy="0">A patch is validated by</tspan><tspan x="497.84" dy="17">validateEntryPatch and</tspan><tspan x="497.84" dy="17">applied to a copy of the</tspan><tspan x="497.84" dy="17">entry in the browser, the</tspan><tspan x="497.84" dy="17">attention views are</tspan><tspan x="497.84" dy="17">re-classified locally, and</tspan><tspan x="497.84" dy="17">the server answer replaces</tspan><tspan x="497.84" dy="17">the row — or the kept</tspan><tspan x="497.84" dy="17">entry goes back with the API</tspan><tspan x="497.84" dy="17">error shown inline. Undo is</tspan><tspan x="497.84" dy="17">the inverse patch through</tspan><tspan x="497.84" dy="17">the same endpoint, so it</tspan><tspan x="497.84" dy="17">validates and re-classifies</tspan><tspan x="497.84" dy="17">like any other edit.</tspan></text>
      </g><g data-element="inventory.palette"><rect x="477.84" y="2834.5" width="212" height="312" rx="14" fill="#ffffff" stroke="#d5d5d0" stroke-width="1.3"/>
      <g transform="translate(663.84 2851.5) scale(0.667)" color="#759EB5" opacity="0.85"><title>Component</title><g fill="none" stroke="currentColor" stroke-width="1.5" stroke-linecap="round" stroke-linejoin="round"><path d="M7 7V4h13v16H7v-3m0-6v2"/><rect x="3" y="7" width="8" height="4" rx="1"/><rect x="3" y="13" width="8" height="4" rx="1"/></g></g>
      <text x="497.84" y="2866.5" font-size="14" font-weight="600" fill="#292927"><tspan x="497.84" dy="0">Command palette</tspan></text>
      <text x="497.84" y="2890.5" font-size="12" font-weight="400" fill="#6d6d68"><tspan x="497.84" dy="0">Cmd+K: fuzzy jump to any</tspan><tspan x="497.84" dy="17">entry by name, slug or path,</tspan><tspan x="497.84" dy="17">and run commands against</tspan><tspan x="497.84" dy="17">whatever the list or the</tspan><tspan x="497.84" dy="17">fact sheet is focused on —</tspan><tspan x="497.84" dy="17">set intent, favourite, hide,</tspan><tspan x="497.84" dy="17">reorder by manual rank,</tspan><tspan x="497.84" dy="17">open in Terminal, open on</tspan><tspan x="497.84" dy="17">GitHub — plus switch view</tspan><tspan x="497.84" dy="17">and g p / g t / g r</tspan><tspan x="497.84" dy="17">navigation. Every command</tspan><tspan x="497.84" dy="17">prints its ongoing</tspan><tspan x="497.84" dy="17">equivalent as its hint, which</tspan><tspan x="497.84" dy="17">is what keeps the two</tspan><tspan x="497.84" dy="17">surfaces honest.</tspan></text>
      </g><g data-element="inventory.entry_page"><rect x="477.84" y="2473.5" width="212" height="329" rx="14" fill="#ffffff" stroke="#d5d5d0" stroke-width="1.3"/>
      <g transform="translate(663.84 2490.5) scale(0.667)" color="#759EB5" opacity="0.85"><title>Component</title><g fill="none" stroke="currentColor" stroke-width="1.5" stroke-linecap="round" stroke-linejoin="round"><path d="M7 7V4h13v16H7v-3m0-6v2"/><rect x="3" y="7" width="8" height="4" rx="1"/><rect x="3" y="13" width="8" height="4" rx="1"/></g></g>
      <text x="497.84" y="2505.5" font-size="14" font-weight="600" fill="#292927"><tspan x="497.84" dy="0">Entry fact sheet</tspan></text>
      <text x="497.84" y="2529.5" font-size="12" font-weight="400" fill="#6d6d68"><tspan x="497.84" dy="0">/p/&lt;slug&gt; and /t/&lt;slug&gt;,</tspan><tspan x="497.84" dy="17">and the same body inside the</tspan><tspan x="497.84" dy="17">detail panel: identity, the</tspan><tspan x="497.84" dy="17">decision fields that have</tspan><tspan x="497.84" dy="17">values behind one</tspan><tspan x="497.84" dy="17">empty-fields toggle, every</tspan><tspan x="497.84" dy="17">attention reason with its</tspan><tspan x="497.84" dy="17">input, comparison and</tspan><tspan x="497.84" dy="17">threshold, relations with</tspan><tspan x="497.84" dy="17">their versions and rings, a</tspan><tspan x="497.84" dy="17">commit-trend sparkline, and</tspan><tspan x="497.84" dy="17">one panel per provider that</tspan><tspan x="497.84" dy="17">left data. Every field is</tspan><tspan x="497.84" dy="17">editable in place through</tspan><tspan x="497.84" dy="17">the registry editor for its</tspan><tspan x="497.84" dy="17">type.</tspan></text>
      </g><g data-element="inventory.providers_page"><rect x="940.8899999999999" y="711" width="212" height="261" rx="14" fill="#ffffff" stroke="#d5d5d0" stroke-width="1.3"/>
      <g transform="translate(1126.89 728) scale(0.667)" color="#759EB5" opacity="0.85"><title>Component</title><g fill="none" stroke="currentColor" stroke-width="1.5" stroke-linecap="round" stroke-linejoin="round"><path d="M7 7V4h13v16H7v-3m0-6v2"/><rect x="3" y="7" width="8" height="4" rx="1"/><rect x="3" y="13" width="8" height="4" rx="1"/></g></g>
      <text x="960.89" y="743" font-size="14" font-weight="600" fill="#292927"><tspan x="960.89" dy="0">Providers screen</tspan></text>
      <text x="960.89" y="767" font-size="12" font-weight="400" fill="#6d6d68"><tspan x="960.89" dy="0">What contributes to the</tspan><tspan x="960.89" dy="17">catalog, whether it can run</tspan><tspan x="960.89" dy="17">here, when it last did, and</tspan><tspan x="960.89" dy="17">which fields it owns. It</tspan><tspan x="960.89" dy="17">reads GET /api/providers</tspan><tspan x="960.89" dy="17">when that route exists</tspan><tspan x="960.89" dy="17">(Phase 5) and falls back to</tspan><tspan x="960.89" dy="17">what the field registry</tspan><tspan x="960.89" dy="17">already knows, rendering</tspan><tspan x="960.89" dy="17">availability and last run as</tspan><tspan x="960.89" dy="17">unknown rather than</tspan><tspan x="960.89" dy="17">guessing them.</tspan></text>
      </g><g data-element="inventory.ui_kit"><rect x="477.84" y="2010.5" width="212" height="431" rx="14" fill="#ffffff" stroke="#d5d5d0" stroke-width="1.3"/>
      <g transform="translate(663.84 2027.5) scale(0.667)" color="#759EB5" opacity="0.85"><title>Component</title><g fill="none" stroke="currentColor" stroke-width="1.5" stroke-linecap="round" stroke-linejoin="round"><path d="M7 7V4h13v16H7v-3m0-6v2"/><rect x="3" y="7" width="8" height="4" rx="1"/><rect x="3" y="13" width="8" height="4" rx="1"/></g></g>
      <text x="497.84" y="2042.5" font-size="14" font-weight="600" fill="#292927"><tspan x="497.84" dy="0">Design system</tspan></text>
      <text x="497.84" y="2066.5" font-size="12" font-weight="400" fill="#6d6d68"><tspan x="497.84" dy="0">src/lib/ui: Table, one editor</tspan><tspan x="497.84" dy="17">per registered field type,</tspan><tspan x="497.84" dy="17">Palette, Panel, Rail, Badge,</tspan><tspan x="497.84" dy="17">Sparkline and roc icons over</tspan><tspan x="497.84" dy="17">dark-first LCH tokens on a</tspan><tspan x="497.84" dy="17">4px grid, with no</tspan><tspan x="497.84" dy="17">per-component font size or</tspan><tspan x="497.84" dy="17">colour literal anywhere.</tspan><tspan x="497.84" dy="17">Table columns and</tspan><tspan x="497.84" dy="17">fact-sheet sections are</tspan><tspan x="497.84" dy="17">driven by field definitions,</tspan><tspan x="497.84" dy="17">so a field added by ongoing</tspan><tspan x="497.84" dy="17">field add renders and edits</tspan><tspan x="497.84" dy="17">with no frontend change.</tspan><tspan x="497.84" dy="17">The house style and its</tspan><tspan x="497.84" dy="17">deliberate drift from the</tspan><tspan x="497.84" dy="17">Linear patterns are written</tspan><tspan x="497.84" dy="17">down in DESIGN.md. Replaced</tspan><tspan x="497.84" dy="17">dashboard.css, the catalog</tspan><tspan x="497.84" dy="17">ticker, the header flyout,</tspan><tspan x="497.84" dy="17">the project drawer, and</tspan><tspan x="497.84" dy="17">drag reorder.</tspan></text>
      </g><g><rect x="523.8199999999999" y="1925.5" width="120.03999999999996" height="53" rx="5" fill="#f8f8f6"/><text x="583.8399999999999" y="1938.5" text-anchor="middle" font-size="11" fill="#62625e"><tspan x="583.8399999999999" dy="0">The whole catalog</tspan><tspan x="583.8399999999999" dy="15">once per load, then</tspan><tspan x="583.8399999999999" dy="15">PATCH per edit</tspan></text></g><g><rect x="311" y="2232" width="117.83999999999997" height="38" rx="5" fill="#f8f8f6"/><text x="369.91999999999996" y="2245" text-anchor="middle" font-size="11" fill="#62625e"><tspan x="369.91999999999996" dy="0">Table, cell editors,</tspan><tspan x="369.91999999999996" dy="15">rail, panel, badges</tspan></text></g><g><rect x="742.8399999999999" y="1590" width="113.76999999999997" height="83" rx="5" fill="#f8f8f6"/><text x="799.7249999999999" y="1603" text-anchor="middle" font-size="11" fill="#62625e"><tspan x="799.7249999999999" dy="0">Filters and sorts</tspan><tspan x="799.7249999999999" dy="15">the loaded rows in</tspan><tspan x="799.7249999999999" dy="15">the browser, and</tspan><tspan x="799.7249999999999" dy="15">validates as you</tspan><tspan x="799.7249999999999" dy="15">type</tspan></text></g><g><rect x="744.5999999999999" y="2996.5" width="110.24999999999999" height="53" rx="5" fill="#f8f8f6"/><text x="799.7249999999999" y="3009.5" text-anchor="middle" font-size="11" fill="#62625e"><tspan x="799.7249999999999" dy="0">Jump to an entry,</tspan><tspan x="799.7249999999999" dy="15">run a command</tspan><tspan x="799.7249999999999" dy="15">against it</tspan></text></g><g><rect x="744.2149999999999" y="2644" width="111.01999999999997" height="38" rx="5" fill="#f8f8f6"/><text x="799.7249999999999" y="2657" text-anchor="middle" font-size="11" fill="#62625e"><tspan x="799.7249999999999" dy="0">PATCH one field in</tspan><tspan x="799.7249999999999" dy="15">place</tspan></text></g><g><rect x="313.145" y="1729" width="113.54999999999997" height="68" rx="5" fill="#f8f8f6"/><text x="369.91999999999996" y="1742" text-anchor="middle" font-size="11" fill="#62625e"><tspan x="369.91999999999996" dy="0">Reads and writes</tspan><tspan x="369.91999999999996" dy="15">the query, the</tspan><tspan x="369.91999999999996" dy="15">sort, the columns,</tspan><tspan x="369.91999999999996" dy="15">and the open row</tspan></text></g><g><rect x="966.59" y="1729" width="125.31999999999995" height="68" rx="5" fill="#f8f8f6"/><text x="1029.25" y="1742" text-anchor="middle" font-size="11" fill="#62625e"><tspan x="1029.25" dy="0">formatQuery,</tspan><tspan x="1029.25" dy="15">formatSort, and the</tspan><tspan x="1029.25" dy="15">list defaults the</tspan><tspan x="1029.25" dy="15">CLI shares</tspan></text></g><g><rect x="313.145" y="305" width="113.54999999999997" height="53" rx="5" fill="#f8f8f6"/><text x="369.91999999999996" y="318" text-anchor="middle" font-size="11" fill="#62625e"><tspan x="369.91999999999996" dy="0">Applies the patch</tspan><tspan x="369.91999999999996" dy="15">locally before the</tspan><tspan x="369.91999999999996" dy="15">server answers</tspan></text></g><g><rect x="1201.8899999999999" y="305" width="124.87999999999995" height="53" rx="5" fill="#f8f8f6"/><text x="1264.33" y="318" text-anchor="middle" font-size="11" fill="#62625e"><tspan x="1264.33" dy="0">validateEntryPatch,</tspan><tspan x="1264.33" dy="15">the same path the</tspan><tspan x="1264.33" dy="15">API and the CLI run</tspan></text></g><g><rect x="743.3349999999999" y="1746" width="112.77999999999997" height="53" rx="5" fill="#f8f8f6"/><text x="799.7249999999999" y="1759" text-anchor="middle" font-size="11" fill="#62625e"><tspan x="799.7249999999999" dy="0">PATCH, and the</tspan><tspan x="799.7249999999999" dy="15">inverse patch for</tspan><tspan x="799.7249999999999" dy="15">undo</tspan></text></g><g><rect x="1203.155" y="847.5" width="122.34999999999997" height="68" rx="5" fill="#f8f8f6"/><text x="1264.33" y="860.5" text-anchor="middle" font-size="11" fill="#62625e"><tspan x="1264.33" dy="0">GET /api/providers:</tspan><tspan x="1264.33" dy="15">availability, last</tspan><tspan x="1264.33" dy="15">run, and what each</tspan><tspan x="1264.33" dy="15">one contributes</tspan></text></g><g><rect x="1451.3549999999998" y="937.5" width="104.08999999999997" height="38" rx="5" fill="#f8f8f6"/><text x="1503.3999999999999" y="950.5" text-anchor="middle" font-size="11" fill="#62625e"><tspan x="1503.3999999999999" dy="0">Which providers</tspan><tspan x="1503.3999999999999" dy="15">own which fields</tspan></text></g><g><rect x="744.5999999999999" y="2706" width="110.24999999999997" height="68" rx="5" fill="#f8f8f6"/><text x="799.7249999999999" y="2719" text-anchor="middle" font-size="11" fill="#62625e"><tspan x="799.7249999999999" dy="0">Over HTTP, or the</tspan><tspan x="799.7249999999999" dy="15">core in-process</tspan><tspan x="799.7249999999999" dy="15">when no service</tspan><tspan x="799.7249999999999" dy="15">runs</tspan></text></g><g><rect x="969.725" y="1413" width="119.04999999999995" height="83" rx="5" fill="#f8f8f6"/><text x="1029.25" y="1426" text-anchor="middle" font-size="11" fill="#62625e"><tspan x="1029.25" dy="0">Builds the query</tspan><tspan x="1029.25" dy="15">from flags and</tspan><tspan x="1029.25" dy="15">counts saved views</tspan><tspan x="1029.25" dy="15">without a round</tspan><tspan x="1029.25" dy="15">trip</tspan></text></g><g><rect x="969.34" y="1351" width="119.81999999999996" height="38" rx="5" fill="#f8f8f6"/><text x="1029.25" y="1364" text-anchor="middle" font-size="11" fill="#62625e"><tspan x="1029.25" dy="0">serve, scan,</tspan><tspan x="1029.25" dy="15">restart, stop, logs</tspan></text></g><g><rect x="1442.7199999999998" y="2719" width="121.35999999999996" height="38" rx="5" fill="#f8f8f6"/><text x="1503.3999999999999" y="2732" text-anchor="middle" font-size="11" fill="#62625e"><tspan x="1503.3999999999999" dy="0">validateEntryPatch</tspan><tspan x="1503.3999999999999" dy="15">before any write</tspan></text></g><g><rect x="1207.5549999999998" y="2644" width="113.54999999999997" height="53" rx="5" fill="#f8f8f6"/><text x="1264.33" y="2657" text-anchor="middle" font-size="11" fill="#62625e"><tspan x="1264.33" dy="0">Parses and</tspan><tspan x="1264.33" dy="15">evaluates q, sort,</tspan><tspan x="1264.33" dy="15">columns, saved</tspan></text></g><g><rect x="1680.9099999999999" y="1590" width="118.05999999999996" height="53" rx="5" fill="#f8f8f6"/><text x="1739.9399999999998" y="1603" text-anchor="middle" font-size="11" fill="#62625e"><tspan x="1739.9399999999998" dy="0">Resolves and</tspan><tspan x="1739.9399999999998" dy="15">type-checks every</tspan><tspan x="1739.9399999999998" dy="15">field key</tspan></text></g><g><rect x="2126.6499999999996" y="937.5" width="116.07999999999997" height="38" rx="5" fill="#f8f8f6"/><text x="2184.6899999999996" y="950.5" text-anchor="middle" font-size="11" fill="#62625e"><tspan x="2184.6899999999996" dy="0">User-defined field</tspan><tspan x="2184.6899999999996" dy="15">rows</tspan></text></g><g><rect x="1680.0299999999997" y="503.5" width="119.81999999999998" height="98" rx="5" fill="#f8f8f6"/><text x="1739.9399999999998" y="516.5" text-anchor="middle" font-size="11" fill="#62625e"><tspan x="1739.9399999999998" dy="0">Namespaced</tspan><tspan x="1739.9399999999998" dy="15">read-only field and</tspan><tspan x="1739.9399999999998" dy="15">relation</tspan><tspan x="1739.9399999999998" dy="15">definitions, only</tspan><tspan x="1739.9399999999998" dy="15">for providers that</tspan><tspan x="1739.9399999999998" dy="15">can run</tspan></text></g><g><rect x="1210.58" y="503.5" width="107.49999999999997" height="53" rx="5" fill="#f8f8f6"/><text x="1264.33" y="516.5" text-anchor="middle" font-size="11" fill="#62625e"><tspan x="1264.33" dy="0">Which providers</tspan><tspan x="1264.33" dy="15">are on, and their</tspan><tspan x="1264.33" dy="15">settings</tspan></text></g><g><rect x="1217.565" y="954.5" width="93.52999999999997" height="68" rx="5" fill="#f8f8f6"/><text x="1264.33" y="967.5" text-anchor="middle" font-size="11" fill="#62625e"><tspan x="1264.33" dy="0">Which host</tspan><tspan x="1264.33" dy="15">implementation</tspan><tspan x="1264.33" dy="15">serves and</tspan><tspan x="1264.33" dy="15">schedules</tspan></text></g><g><rect x="1211.185" y="1186.5" width="106.28999999999998" height="53" rx="5" fill="#f8f8f6"/><text x="1264.33" y="1199.5" text-anchor="middle" font-size="11" fill="#62625e"><tspan x="1264.33" dy="0">aerie deploy and</tspan><tspan x="1264.33" dy="15">rollback through</tspan><tspan x="1264.33" dy="15">the adapter</tspan></text></g></g>
  <g data-export-layer="legend"></g><path d="M96 1010H1824" stroke="#ddddda"/><text x="96" y="1044" font-size="13" fill="#7d7d77">STRUCTURE · CURRENT SYSTEM</text><text x="1824" y="1044" text-anchor="end" font-size="13" fill="#7d7d77">FOCUS: Software inventory · 20 external connections outside view</text></g></svg>
