<svg xmlns="http://www.w3.org/2000/svg" width="1920" height="1080" viewBox="0 0 1920 1080" role="img" aria-labelledby="title description" data-theme="grove" data-theme-appearance="light">
  <title id="title">Ongoing / Ongoing at a glance</title><desc id="description">One local process serves a browser and a CLI from an app-owned catalog that a bounded scanner keeps fresh.. Architecture structure.</desc>
  <defs><marker id="arrow" viewBox="0 0 10 10" refX="9" refY="5" markerWidth="5" markerHeight="5" orient="auto-start-reverse"><path d="M 0 0 L 10 5 L 0 10 z" fill="#84948b"/></marker></defs>
  <rect width="1920" height="1080" fill="#fafbf8"/>
  <g font-family="Arial, Helvetica, sans-serif"><text x="96" y="58" font-size="12" letter-spacing="3" fill="#607c69">FRACTAL / SYSTEM MODEL</text>
  <g data-export-layer="title"><text x="96" y="116" font-size="48" font-weight="600" fill="#243b34"><tspan x="96" dy="0">Ongoing / Ongoing at a glance</tspan></text></g>
  <g data-export-layer="subtitle"><text x="96" y="170" font-size="19" font-weight="400" fill="#6e7d72"><tspan x="96" dy="0">One local process serves a browser and a CLI from an app-owned catalog that a bounded scanner keeps fresh.</tspan></text></g>
  <g data-export-layer="diagram" transform="translate(636.12 210) scale(0.223)"><path d="M238,2711.5 L254,2711.5 L254,1987 L456.79,1987" fill="none" stroke="#84948b" stroke-width="1.5" marker-end="url(#arrow)"/><path d="M238,2711.5 L254,2711.5 L254,2163 L456.79,2163" fill="none" stroke="#84948b" stroke-width="1.5" marker-end="url(#arrow)"/><path d="M670.79,2163 L706.79,2163 L706.79,1848 L873.12,1848 L873.12,1829 L895.12,1829" fill="none" stroke="#84948b" stroke-width="1.5" marker-end="url(#arrow)"/><path d="M670.79,2163 L706.79,2163 L706.79,1829 L895.12,1829" fill="none" stroke="#84948b" stroke-width="1.5" marker-end="url(#arrow)"/><path d="M670.79,2163 L873.12,2163 L873.12,1829 L895.12,1829" fill="none" stroke="#84948b" stroke-width="1.5" marker-end="url(#arrow)"/><path d="M670.79,2163 L706.79,2163 L706.79,2848.5 L1581.69,2848.5 L1581.69,1367 L2038.26,1367 L2038.26,874 L2224.83,874" fill="none" stroke="#84948b" stroke-width="1.5" marker-end="url(#arrow)"/><path d="M670.79,1987 L873.12,1987 L873.12,1829 L895.12,1829" fill="none" stroke="#84948b" stroke-width="1.5" marker-end="url(#arrow)"/><path d="M670.79,1987 L696.79,1987 L696.79,1553 L873.12,1553 L873.12,1829 L895.12,1829" fill="none" stroke="#84948b" stroke-width="1.5" marker-end="url(#arrow)"/><path d="M670.79,1987 L696.79,1987 L696.79,414 L1756.26,414 L1756.26,508 L2018.26,508 L2018.26,416 L2192.83,416 L2192.83,508 L2224.83,508" fill="none" stroke="#84948b" stroke-width="1.5" marker-end="url(#arrow)"/><path d="M670.79,1987 L696.79,1987 L696.79,1968 L873.12,1968 L873.12,1829 L895.12,1829" fill="none" stroke="#84948b" stroke-width="1.5" marker-end="url(#arrow)"/><path d="M1109.12,1829 L1125.12,1829 L1125.12,2436.5 L434.79,2436.5 L434.79,1987 L456.79,1987" fill="none" stroke="#84948b" stroke-width="1.5" marker-end="url(#arrow)"/><path d="M670.79,1987 L696.79,1987 L696.79,1720 L873.12,1720 L873.12,1829 L895.12,1829" fill="none" stroke="#84948b" stroke-width="1.5" marker-end="url(#arrow)"/><path d="M670.79,1987 L696.79,1987 L696.79,1739 L873.12,1739 L873.12,1829 L895.12,1829" fill="none" stroke="#84948b" stroke-width="1.5" marker-end="url(#arrow)"/><path d="M1109.12,1829 L1125.12,1829 L1125.12,1677 L1299.69,1677 L1299.69,1538 L1331.69,1538" fill="none" stroke="#84948b" stroke-width="1.5" marker-end="url(#arrow)"/><path d="M1109.12,1829 L1125.12,1829 L1125.12,508 L2224.83,508" fill="none" stroke="#84948b" stroke-width="1.5" marker-end="url(#arrow)"/><path d="M1109.12,1829 L1125.12,1829 L1125.12,662 L1756.26,662 L1756.26,508 L2224.83,508" fill="none" stroke="#84948b" stroke-width="1.5" marker-end="url(#arrow)"/><path d="M1109.12,1829 L1125.12,1829 L1125.12,219 L2192.83,219 L2192.83,159 L2621.66,159 L2621.66,3165.5 L2653.66,3165.5" fill="none" stroke="#84948b" stroke-width="1.5" marker-end="url(#arrow)"/><path d="M1109.12,1829 L1125.12,1829 L1125.12,1476 L1299.69,1476 L1299.69,1538 L1331.69,1538" fill="none" stroke="#84948b" stroke-width="1.5" marker-end="url(#arrow)"/><path d="M1109.12,1829 L1125.12,1829 L1125.12,1538 L1331.69,1538" fill="none" stroke="#84948b" stroke-width="1.5" marker-end="url(#arrow)"/><path d="M1109.12,1829 L1125.12,1829 L1125.12,508 L1601.69,508 L1601.69,489 L1756.26,489 L1756.26,508 L2224.83,508" fill="none" stroke="#84948b" stroke-width="1.5" marker-end="url(#arrow)"/><path d="M1109.12,1829 L1125.12,1829 L1125.12,219 L1561.69,219 L1561.69,99 L2192.83,99 L2192.83,159 L2621.66,159 L2621.66,3165.5 L2653.66,3165.5" fill="none" stroke="#84948b" stroke-width="1.5" marker-end="url(#arrow)"/><path d="M1109.12,1829 L1125.12,1829 L1125.12,2985.5 L2454.83,2985.5 L2454.83,3165.5 L2653.66,3165.5" fill="none" stroke="#84948b" stroke-width="1.5" marker-end="url(#arrow)"/><path d="M1109.12,1829 L1125.12,1829 L1125.12,1615 L1299.69,1615 L1299.69,1538 L1331.69,1538" fill="none" stroke="#84948b" stroke-width="1.5" marker-end="url(#arrow)"/><path d="M2438.83,508 L2621.66,508 L2621.66,3165.5 L2653.66,3165.5" fill="none" stroke="#84948b" stroke-width="1.5" marker-end="url(#arrow)"/><path d="M1545.69,1538 L1591.69,1538 L1591.69,294 L2192.83,294 L2192.83,159 L2621.66,159 L2621.66,3165.5 L2653.66,3165.5" fill="none" stroke="#84948b" stroke-width="1.5" marker-end="url(#arrow)"/><path d="M1545.69,1538 L2038.26,1538 L2038.26,874 L2224.83,874" fill="none" stroke="#84948b" stroke-width="1.5" marker-end="url(#arrow)"/><path d="M1545.69,1538 L1591.69,1538 L1591.69,3105.5 L2192.83,3105.5 L2192.83,3165.5 L2653.66,3165.5" fill="none" stroke="#84948b" stroke-width="1.5" marker-end="url(#arrow)"/><path d="M1545.69,1538 L1766.26,1538 L1766.26,1384 L2038.26,1384 L2038.26,874 L2224.83,874" fill="none" stroke="#84948b" stroke-width="1.5" marker-end="url(#arrow)"/><path d="M1545.69,1538 L1591.69,1538 L1591.69,722 L2018.26,722 L2018.26,767 L2192.83,767 L2192.83,874 L2224.83,874" fill="none" stroke="#84948b" stroke-width="1.5" marker-end="url(#arrow)"/><path d="M1545.69,1538 L1591.69,1538 L1591.69,722 L1756.26,722 L1756.26,692 L2454.83,692 L2454.83,3165.5 L2653.66,3165.5" fill="none" stroke="#84948b" stroke-width="1.5" marker-end="url(#arrow)"/><path d="M1545.69,1538 L1766.26,1538 L1766.26,1461 L2038.26,1461 L2038.26,874 L2224.83,874" fill="none" stroke="#84948b" stroke-width="1.5" marker-end="url(#arrow)"/><path d="M1545.69,1538 L1591.69,1538 L1591.69,874 L1756.26,874 L1756.26,855 L2018.26,855 L2018.26,767 L2192.83,767 L2192.83,874 L2224.83,874" fill="none" stroke="#84948b" stroke-width="1.5" marker-end="url(#arrow)"/><path d="M1545.69,1538 L1591.69,1538 L1591.69,159 L2621.66,159 L2621.66,3165.5 L2653.66,3165.5" fill="none" stroke="#84948b" stroke-width="1.5" marker-end="url(#arrow)"/><path d="M1545.69,1538 L1591.69,1538 L1591.69,874 L2224.83,874" fill="none" stroke="#84948b" stroke-width="1.5" marker-end="url(#arrow)"/><path d="M2438.83,874 L2464.83,874 L2464.83,369 L873.12,369 L873.12,1829 L895.12,1829" fill="none" stroke="#84948b" stroke-width="1.5" marker-end="url(#arrow)"/><path d="M2438.83,874 L2464.83,874 L2464.83,3225.5 L424.79,3225.5 L424.79,2339 L456.79,2339" fill="none" stroke="#84948b" stroke-width="1.5" marker-end="url(#arrow)"/><path d="M670.79,2339 L686.79,2339 L686.79,1459 L1299.69,1459 L1299.69,1538 L1331.69,1538" fill="none" stroke="#84948b" stroke-width="1.5" marker-end="url(#arrow)"/><path d="M670.79,2339 L686.79,2339 L686.79,24 L2018.26,24 L2018.26,99 L2192.83,99 L2192.83,159 L2621.66,159 L2621.66,3165.5 L2653.66,3165.5" fill="none" stroke="#84948b" stroke-width="1.5" marker-end="url(#arrow)"/><path d="M670.79,2339 L686.79,2339 L686.79,3165.5 L863.12,3165.5 L863.12,2925.5 L1581.69,2925.5 L1581.69,1367 L2038.26,1367 L2038.26,874 L2224.83,874" fill="none" stroke="#84948b" stroke-width="1.5" marker-end="url(#arrow)"/><path d="M670.79,2339 L686.79,2339 L686.79,3285.5 L2454.83,3285.5 L2454.83,3165.5 L2653.66,3165.5" fill="none" stroke="#84948b" stroke-width="1.5" marker-end="url(#arrow)"/><path d="M670.79,2339 L686.79,2339 L686.79,1615 L873.12,1615 L873.12,1829 L895.12,1829" fill="none" stroke="#84948b" stroke-width="1.5" marker-end="url(#arrow)"/><path d="M670.79,2339 L686.79,2339 L686.79,3165.5 L2653.66,3165.5" fill="none" stroke="#84948b" stroke-width="1.5" marker-end="url(#arrow)"/><path d="M2438.83,874 L2464.83,874 L2464.83,3045.5 L873.12,3045.5 L873.12,1829 L895.12,1829" fill="none" stroke="#84948b" stroke-width="1.5" marker-end="url(#arrow)"/><path d="M238,2711.5 L254,2711.5 L254,1352 L1561.69,1352 L1561.69,1148.5 L1788.26,1148.5" fill="none" stroke="#a98243" stroke-width="1.5" stroke-dasharray="6 4" marker-end="url(#arrow)"/><path d="M238,2711.5 L1145.12,2711.5 L1145.12,2318 L1561.69,2318 L1561.69,1148.5 L1788.26,1148.5" fill="none" stroke="#84948b" stroke-width="1.5" marker-end="url(#arrow)"/><path d="M2002.26,1148.5 L2028.26,1148.5 L2028.26,433 L2192.83,433 L2192.83,508 L2224.83,508" fill="none" stroke="#a98243" stroke-width="1.5" stroke-dasharray="6 4" marker-end="url(#arrow)"/><path d="M2002.26,1148.5 L2028.26,1148.5 L2028.26,585 L2192.83,585 L2192.83,508 L2224.83,508" fill="none" stroke="#84948b" stroke-width="1.5" marker-end="url(#arrow)"/><path d="M2002.26,1148.5 L2454.83,1148.5 L2454.83,3165.5 L2653.66,3165.5" fill="none" stroke="#84948b" stroke-width="1.5" marker-end="url(#arrow)"/><path d="M1109.12,1829 L1561.69,1829 L1561.69,1148.5 L1788.26,1148.5" fill="none" stroke="#84948b" stroke-width="1.5" marker-end="url(#arrow)"/><path d="M2002.26,1148.5 L2028.26,1148.5 L2028.26,949 L1299.69,949 L1299.69,1538 L1331.69,1538" fill="none" stroke="#84948b" stroke-width="1.5" marker-end="url(#arrow)"/><path d="M2002.26,1148.5 L2028.26,1148.5 L2028.26,784 L2192.83,784 L2192.83,874 L2224.83,874" fill="none" stroke="#84948b" stroke-width="1.5" marker-end="url(#arrow)"/><path d="M2002.26,1148.5 L2028.26,1148.5 L2028.26,1348 L1571.69,1348 L1571.69,2786.5 L873.12,2786.5 L873.12,1829 L895.12,1829" fill="none" stroke="#a98243" stroke-width="1.5" stroke-dasharray="6 4" marker-end="url(#arrow)"/><path d="M2867.66,3165.5 L2883.66,3165.5 L2883.66,3304.5 L1756.26,3304.5 L1756.26,1148.5 L1788.26,1148.5" fill="none" stroke="#84948b" stroke-width="1.5" marker-end="url(#arrow)"/><path d="M1109.12,2566 L1135.12,2566 L1135.12,1369 L1299.69,1369 L1299.69,1538 L1331.69,1538" fill="none" stroke="#84948b" stroke-width="1.5" marker-end="url(#arrow)"/><path d="M1109.12,2566 L1299.69,2566 L1299.69,2412 L1561.69,2412 L1561.69,1148.5 L1788.26,1148.5" fill="none" stroke="#84948b" stroke-width="1.5" marker-end="url(#arrow)"/><path d="M1109.12,2566 L1299.69,2566 L1299.69,2489 L1561.69,2489 L1561.69,1148.5 L1788.26,1148.5" fill="none" stroke="#a98243" stroke-width="1.5" stroke-dasharray="6 4" marker-end="url(#arrow)"/><path d="M1109.12,2566 L1135.12,2566 L1135.12,2228 L1561.69,2228 L1561.69,1148.5 L1788.26,1148.5" fill="none" stroke="#84948b" stroke-width="1.5" marker-end="url(#arrow)"/><path d="M1109.12,2566 L1135.12,2566 L1135.12,1752 L1561.69,1752 L1561.69,1148.5 L1788.26,1148.5" fill="none" stroke="#84948b" stroke-width="1.5" marker-end="url(#arrow)"/><path d="M1109.12,2566 L1135.12,2566 L1135.12,570 L1756.26,570 L1756.26,508 L2224.83,508" fill="none" stroke="#84948b" stroke-width="1.5" marker-end="url(#arrow)"/><path d="M1109.12,2566 L1135.12,2566 L1135.12,767 L2192.83,767 L2192.83,874 L2224.83,874" fill="none" stroke="#84948b" stroke-width="1.5" marker-end="url(#arrow)"/><path d="M1109.12,2566 L1561.69,2566 L1561.69,1148.5 L1788.26,1148.5" fill="none" stroke="#a98243" stroke-width="1.5" stroke-dasharray="6 4" marker-end="url(#arrow)"/><path d="M1109.12,2566 L1299.69,2566 L1299.69,2335 L1561.69,2335 L1561.69,1148.5 L1788.26,1148.5" fill="none" stroke="#a98243" stroke-width="1.5" stroke-dasharray="6 4" marker-end="url(#arrow)"/><g data-element="user"><rect x="25" y="2647" width="212" height="129" rx="14" fill="#ffffff" stroke="#d9e0da" stroke-width="1.3"/>
      <g transform="translate(211 2664) scale(0.667)" color="#759EB5" opacity="0.85"><title>Actor</title><g fill="none" stroke="currentColor" stroke-width="1.5" stroke-linecap="round" stroke-linejoin="round"><circle cx="12" cy="7" r="4"/><path d="M4 21v-2a6 6 0 0 1 6-6h4a6 6 0 0 1 6 6v2"/></g></g>
      <text x="45" y="2679" font-size="14" font-weight="600" fill="#243b34"><tspan x="45" dy="0">Marcus or an</tspan><tspan x="45" dy="20">agent</tspan></text>
      <text x="45" y="2724" font-size="12" font-weight="400" fill="#67746e"><tspan x="45" dy="0">Decides which local projects</tspan><tspan x="45" dy="17">deserve attention, from a</tspan><tspan x="45" dy="17">browser or a shell.</tspan></text>
      </g><g data-element="cli"><rect x="457.78999999999996" y="2100.5" width="212" height="125" rx="14" fill="#ffffff" stroke="#d9e0da" stroke-width="1.3"/>
      <g transform="translate(643.79 2117.5) scale(0.667)" color="#82A6B6" opacity="0.85"><title>Subsystem</title><g fill="none" stroke="currentColor" stroke-width="1.5" stroke-linecap="round" stroke-linejoin="round"><rect x="3" y="8" width="13" height="13" rx="2"/><path d="M8 5V3h13v13h-2"/></g></g>
      <text x="477.79" y="2132.5" font-size="14" font-weight="600" fill="#243b34"><tspan x="477.79" dy="0">ongoing CLI</tspan></text>
      <text x="477.79" y="2156.5" font-size="12" font-weight="400" fill="#67746e"><tspan x="477.79" dy="0">Terminal client with full</tspan><tspan x="477.79" dy="17">parity: it speaks the same</tspan><tspan x="477.79" dy="17">HTTP API as the browser and</tspan><tspan x="477.79" dy="17">never opens SQLite directly.</tspan></text>
      </g><g data-element="web"><rect x="457.78999999999996" y="1905.5" width="212" height="163" rx="14" fill="#ffffff" stroke="#d9e0da" stroke-width="1.3"/>
      <g transform="translate(643.79 1922.5) scale(0.667)" color="#759EB5" opacity="0.85"><title>Subsystem</title><g fill="none" stroke="currentColor" stroke-width="1.5" stroke-linecap="round" stroke-linejoin="round"><rect x="3" y="8" width="13" height="13" rx="2"/><path d="M8 5V3h13v13h-2"/></g></g>
      <text x="477.79" y="1937.5" font-size="14" font-weight="600" fill="#243b34"><tspan x="477.79" dy="0">Browser</tspan><tspan x="477.79" dy="20">dashboard</tspan></text>
      <text x="477.79" y="1982.5" font-size="12" font-weight="400" fill="#67746e"><tspan x="477.79" dy="0">SvelteKit pages rendered</tspan><tspan x="477.79" dy="17">from the cached catalog;</tspan><tspan x="477.79" dy="17">every mutation goes</tspan><tspan x="477.79" dy="17">through the same HTTP API</tspan><tspan x="477.79" dy="17">the CLI uses.</tspan></text>
      </g><g data-element="service"><rect x="896.1199999999999" y="1758" width="212" height="142" rx="14" fill="#ffffff" stroke="#d9e0da" stroke-width="1.3"/>
      <g transform="translate(1082.12 1775) scale(0.667)" color="#739886" opacity="0.85"><title>Subsystem</title><g fill="none" stroke="currentColor" stroke-width="1.5" stroke-linecap="round" stroke-linejoin="round"><rect x="3" y="8" width="13" height="13" rx="2"/><path d="M8 5V3h13v13h-2"/></g></g>
      <text x="916.12" y="1790" font-size="14" font-weight="600" fill="#243b34"><tspan x="916.12" dy="0">HTTP service</tspan></text>
      <text x="916.12" y="1814" font-size="12" font-weight="400" fill="#67746e"><tspan x="916.12" dy="0">The single local process:</tspan><tspan x="916.12" dy="17">request gate, JSON API, and</tspan><tspan x="916.12" dy="17">the composition root that</tspan><tspan x="916.12" dy="17">owns the catalog and</tspan><tspan x="916.12" dy="17">scanner.</tspan></text>
      </g><g data-element="domain"><rect x="2225.83" y="428.5" width="212" height="159" rx="14" fill="#ffffff" stroke="#d9e0da" stroke-width="1.3"/>
      <g transform="translate(2411.83 445.5) scale(0.667)" color="#89A579" opacity="0.85"><title>Subsystem</title><g fill="none" stroke="currentColor" stroke-width="1.5" stroke-linecap="round" stroke-linejoin="round"><rect x="3" y="8" width="13" height="13" rx="2"/><path d="M8 5V3h13v13h-2"/></g></g>
      <text x="2245.83" y="460.5" font-size="14" font-weight="600" fill="#243b34"><tspan x="2245.83" dy="0">Domain rules</tspan></text>
      <text x="2245.83" y="484.5" font-size="12" font-weight="400" fill="#67746e"><tspan x="2245.83" dy="0">Pure functions over</tspan><tspan x="2245.83" dy="17">normalized project data. No</tspan><tspan x="2245.83" dy="17">I/O, no provider types, so</tspan><tspan x="2245.83" dy="17">the browser can re-run</tspan><tspan x="2245.83" dy="17">them after an optimistic</tspan><tspan x="2245.83" dy="17">edit.</tspan></text>
      </g><g data-element="scanning"><rect x="1332.6899999999998" y="1439.5" width="212" height="197" rx="14" fill="#ffffff" stroke="#d9e0da" stroke-width="1.3"/>
      <g transform="translate(1518.69 1456.5) scale(0.667)" color="#9A91C4" opacity="0.85"><title>Subsystem</title><g fill="none" stroke="currentColor" stroke-width="1.5" stroke-linecap="round" stroke-linejoin="round"><rect x="3" y="8" width="13" height="13" rx="2"/><path d="M8 5V3h13v13h-2"/></g></g>
      <text x="1352.69" y="1471.5" font-size="14" font-weight="600" fill="#243b34"><tspan x="1352.69" dy="0">Scanner &amp;</tspan><tspan x="1352.69" dy="20">collectors</tspan></text>
      <text x="1352.69" y="1516.5" font-size="12" font-weight="400" fill="#67746e"><tspan x="1352.69" dy="0">Cache-first, bounded</tspan><tspan x="1352.69" dy="17">refresh of the catalog</tspan><tspan x="1352.69" dy="17">under a durable lease: local</tspan><tspan x="1352.69" dy="17">collectors spawn tools,</tspan><tspan x="1352.69" dy="17">remote adapters degrade to</tspan><tspan x="1352.69" dy="17">availability states, and</tspan><tspan x="1352.69" dy="17">nothing fails a whole scan.</tspan></text>
      </g><g data-element="catalog"><rect x="2654.66" y="3084" width="212" height="163" rx="14" fill="#ffffff" stroke="#d9e0da" stroke-width="1.3"/>
      <g transform="translate(2840.66 3101) scale(0.667)" color="#B59669" opacity="0.85"><title>Subsystem</title><g fill="none" stroke="currentColor" stroke-width="1.5" stroke-linecap="round" stroke-linejoin="round"><rect x="3" y="8" width="13" height="13" rx="2"/><path d="M8 5V3h13v13h-2"/></g></g>
      <text x="2674.66" y="3116" font-size="14" font-weight="600" fill="#243b34"><tspan x="2674.66" dy="0">App-owned</tspan><tspan x="2674.66" dy="20">catalog</tspan></text>
      <text x="2674.66" y="3161" font-size="12" font-weight="400" fill="#67746e"><tspan x="2674.66" dy="0">SQLite index and cache.</tspan><tspan x="2674.66" dy="17">Filesystem discovery stays</tspan><tspan x="2674.66" dy="17">authoritative; missing</tspan><tspan x="2674.66" dy="17">projects are kept so notes</tspan><tspan x="2674.66" dy="17">and decisions survive.</tspan></text>
      </g><g data-element="ops"><rect x="457.78999999999996" y="2257.5" width="212" height="163" rx="14" fill="#ffffff" stroke="#d9e0da" stroke-width="1.3"/>
      <g transform="translate(643.79 2274.5) scale(0.667)" color="#9FA8B3" opacity="0.85"><title>Subsystem</title><g fill="none" stroke="currentColor" stroke-width="1.5" stroke-linecap="round" stroke-linejoin="round"><rect x="3" y="8" width="13" height="13" rx="2"/><path d="M8 5V3h13v13h-2"/></g></g>
      <text x="477.79" y="2289.5" font-size="14" font-weight="600" fill="#243b34"><tspan x="477.79" dy="0">Release &amp;</tspan><tspan x="477.79" dy="20">operations</tspan></text>
      <text x="477.79" y="2334.5" font-size="12" font-weight="400" fill="#67746e"><tspan x="477.79" dy="0">Private-host tooling for</tspan><tspan x="477.79" dy="17">aerie.local: pinned Bun,</tspan><tspan x="477.79" dy="17">launchd definitions,</tspan><tspan x="477.79" dy="17">backups, and health-gated</tspan><tspan x="477.79" dy="17">deploys.</tspan></text>
      </g><g data-element="external"><rect x="2225.83" y="809.5" width="212" height="129" rx="14" fill="#ffffff" stroke="#d9e0da" stroke-width="1.3"/>
      <g transform="translate(2411.83 826.5) scale(0.667)" color="#A69B8C" opacity="0.85"><title>Subsystem</title><g fill="none" stroke="currentColor" stroke-width="1.5" stroke-linecap="round" stroke-linejoin="round"><rect x="3" y="8" width="13" height="13" rx="2"/><path d="M8 5V3h13v13h-2"/></g></g>
      <text x="2245.83" y="841.5" font-size="14" font-weight="600" fill="#243b34"><tspan x="2245.83" dy="0">Outside the</tspan><tspan x="2245.83" dy="20">process</tspan></text>
      <text x="2245.83" y="886.5" font-size="12" font-weight="400" fill="#67746e"><tspan x="2245.83" dy="0">Tools, services, and hosts</tspan><tspan x="2245.83" dy="17">Ongoing depends on but does</tspan><tspan x="2245.83" dy="17">not own.</tspan></text>
      </g><g data-element="inventory"><rect x="1789.2599999999998" y="965" width="212" height="367" rx="14" fill="#ffffff" stroke="#d9e0da" stroke-width="1.3"/>
      <g transform="translate(1975.26 982) scale(0.667)" color="#7FA8C9" opacity="0.85"><title>Subsystem</title><g fill="none" stroke="currentColor" stroke-width="1.5" stroke-linecap="round" stroke-linejoin="round"><rect x="3" y="8" width="13" height="13" rx="2"/><path d="M8 5V3h13v13h-2"/></g></g>
      <text x="1809.26" y="997" font-size="14" font-weight="600" fill="#243b34"><tspan x="1809.26" dy="0">Software</tspan><tspan x="1809.26" dy="20">inventory</tspan></text>
      <text x="1809.26" y="1042" font-size="12" font-weight="400" fill="#67746e"><tspan x="1809.26" dy="0">The catalog as typed</tspan><tspan x="1809.26" dy="17">entries. Phases 1, 2, 3 and 5</tspan><tspan x="1809.26" dy="17">are built: the entries</tspan><tspan x="1809.26" dy="17">store, the field registry,</tspan><tspan x="1809.26" dy="17">the query grammar, the</tspan><tspan x="1809.26" dy="17">entries API, the CLI over</tspan><tspan x="1809.26" dy="17">them, the tech radar beside</tspan><tspan x="1809.26" dy="17">them, and the seams —</tspan><tspan x="1809.26" dy="17">provider manifests, one</tspan><tspan x="1809.26" dy="17">TOML configuration, the</tspan><tspan x="1809.26" dy="17">host adapter, the</tspan><tspan x="1809.26" dy="17">deployment and export</tspan><tspan x="1809.26" dy="17">profiles, and the CLI</tspan><tspan x="1809.26" dy="17">transport. Only the</tspan><tspan x="1809.26" dy="17">keyboard-first shell is still</tspan><tspan x="1809.26" dy="17">the settled design, marked</tspan><tspan x="1809.26" dy="17">proposed here.</tspan></text>
      </g><g data-element="radar"><rect x="896.1199999999999" y="2452.5" width="212" height="227" rx="14" fill="#ffffff" stroke="#d9e0da" stroke-width="1.3"/>
      <g transform="translate(1082.12 2469.5) scale(0.667)" color="#C4A0B8" opacity="0.85"><title>Subsystem</title><g fill="none" stroke="currentColor" stroke-width="1.5" stroke-linecap="round" stroke-linejoin="round"><rect x="3" y="8" width="13" height="13" rx="2"/><path d="M8 5V3h13v13h-2"/></g></g>
      <text x="916.12" y="2484.5" font-size="14" font-weight="600" fill="#243b34"><tspan x="916.12" dy="0">Tech radar</tspan></text>
      <text x="916.12" y="2508.5" font-size="12" font-weight="400" fill="#67746e"><tspan x="916.12" dy="0">Phase 3 of the inventory</tspan><tspan x="916.12" dy="17">redesign, built: technologies</tspan><tspan x="916.12" dy="17">as a second entry kind with</tspan><tspan x="916.12" dy="17">rings, uses relations that</tspan><tspan x="916.12" dy="17">are detected or declared,</tspan><tspan x="916.12" dy="17">radar attention reasons,</tspan><tspan x="916.12" dy="17">and generated</tspan><tspan x="916.12" dy="17">project-standards tables.</tspan><tspan x="916.12" dy="17">Only the radar page is still</tspan><tspan x="916.12" dy="17">proposed.</tspan></text>
      </g><g><rect x="291.005" y="1993" width="112.77999999999997" height="38" rx="5" fill="#fafbf8"/><text x="347.395" y="2006" text-anchor="middle" font-size="11" fill="#66766d"><tspan x="347.395" dy="0">Browses and edits</tspan><tspan x="347.395" dy="15">in the dashboard</tspan></text></g><g><rect x="286" y="2169" width="122.78999999999996" height="38" rx="5" fill="#fafbf8"/><text x="347.395" y="2182" text-anchor="middle" font-size="11" fill="#66766d"><tspan x="347.395" dy="0">Runs ongoing from a</tspan><tspan x="347.395" dy="15">shell</tspan></text></g><g><rect x="725.54" y="1854" width="118.82999999999997" height="68" rx="5" fill="#fafbf8"/><text x="784.9549999999999" y="1867" text-anchor="middle" font-size="11" fill="#66766d"><tspan x="784.9549999999999" dy="0">GET /api/projects,</tspan><tspan x="784.9549999999999" dy="15">PATCH</tspan><tspan x="784.9549999999999" dy="15">/api/projects/:id,</tspan><tspan x="784.9549999999999" dy="15">...</tspan></text></g><g><rect x="736.7049999999999" y="1804" width="96.49999999999999" height="23" rx="5" fill="#fafbf8"/><text x="784.9549999999999" y="1817" text-anchor="middle" font-size="11" fill="#66766d"><tspan x="784.9549999999999" dy="0">POST /api/scan</tspan></text></g><g><rect x="739.8399999999999" y="2169" width="90.22999999999998" height="38" rx="5" fill="#fafbf8"/><text x="784.9549999999999" y="2182" text-anchor="middle" font-size="11" fill="#66766d"><tspan x="784.9549999999999" dy="0">website copy,</tspan><tspan x="784.9549999999999" dy="15">pages, export</tspan></text></g><g><rect x="1380.9249999999997" y="2854.5" width="115.52999999999997" height="53" rx="5" fill="#fafbf8"/><text x="1438.6899999999996" y="2867.5" text-anchor="middle" font-size="11" fill="#66766d"><tspan x="1438.6899999999996" dy="0">bootout /</tspan><tspan x="1438.6899999999996" dy="15">bootstrap the web</tspan><tspan x="1438.6899999999996" dy="15">and scan agents</tspan></text></g><g><rect x="737.6949999999999" y="1993" width="94.51999999999998" height="38" rx="5" fill="#fafbf8"/><text x="784.9549999999999" y="2006" text-anchor="middle" font-size="11" fill="#66766d"><tspan x="784.9549999999999" dy="0">favorite, hide,</tspan><tspan x="784.9549999999999" dy="15">reorder, open</tspan></text></g><g><rect x="736.5949999999999" y="1559" width="96.71999999999998" height="38" rx="5" fill="#fafbf8"/><text x="784.9549999999999" y="1572" text-anchor="middle" font-size="11" fill="#66766d"><tspan x="784.9549999999999" dy="0">PATCH note and</tspan><tspan x="784.9549999999999" dy="15">decision fields</tspan></text></g><g><rect x="1377.5149999999999" y="420" width="122.34999999999998" height="38" rx="5" fill="#fafbf8"/><text x="1438.6899999999998" y="433" text-anchor="middle" font-size="11" fill="#66766d"><tspan x="1438.6899999999998" dy="0">Re-classifies after</tspan><tspan x="1438.6899999999998" dy="15">an optimistic edit</tspan></text></g><g><rect x="736.7049999999999" y="1943" width="96.49999999999999" height="23" rx="5" fill="#fafbf8"/><text x="784.9549999999999" y="1956" text-anchor="middle" font-size="11" fill="#66766d"><tspan x="784.9549999999999" dy="0">POST /api/scan</tspan></text></g><g><rect x="722.79" y="2442.5" width="124.32999999999996" height="38" rx="5" fill="#fafbf8"/><text x="784.9549999999999" y="2455.5" text-anchor="middle" font-size="11" fill="#66766d"><tspan x="784.9549999999999" dy="0">Server-Sent Events</tspan><tspan x="784.9549999999999" dy="15">per run</tspan></text></g><g><rect x="760.52" y="1695" width="48.87" height="23" rx="5" fill="#fafbf8"/><text x="784.9549999999999" y="1708" text-anchor="middle" font-size="11" fill="#66766d"><tspan x="784.9549999999999" dy="0">Unhide</tspan></text></g><g><rect x="723.56" y="1745" width="122.78999999999996" height="38" rx="5" fill="#fafbf8"/><text x="784.9549999999999" y="1758" text-anchor="middle" font-size="11" fill="#66766d"><tspan x="784.9549999999999" dy="0">Verifies the secret</tspan><tspan x="784.9549999999999" dy="15">and sets the cookie</tspan></text></g><g><rect x="1174.155" y="1683" width="96.49999999999999" height="53" rx="5" fill="#fafbf8"/><text x="1222.405" y="1696" text-anchor="middle" font-size="11" fill="#66766d"><tspan x="1222.405" dy="0">Arms the</tspan><tspan x="1222.405" dy="15">development</tspan><tspan x="1222.405" dy="15">scheduler once</tspan></text></g><g><rect x="1630.2299999999998" y="514" width="97.48999999999998" height="38" rx="5" fill="#fafbf8"/><text x="1678.9749999999997" y="527" text-anchor="middle" font-size="11" fill="#66766d"><tspan x="1678.9749999999997" dy="0">Builds the page</tspan><tspan x="1678.9749999999997" dy="15">model</tspan></text></g><g><rect x="1617.6899999999998" y="668" width="122.56999999999996" height="38" rx="5" fill="#fafbf8"/><text x="1678.975" y="681" text-anchor="middle" font-size="11" fill="#66766d"><tspan x="1678.975" dy="0">Validates notes and</tspan><tspan x="1678.975" dy="15">decisions</tspan></text></g><g><rect x="1841.7299999999998" y="225" width="107.05999999999997" height="53" rx="5" fill="#fafbf8"/><text x="1895.2599999999998" y="238" text-anchor="middle" font-size="11" fill="#66766d"><tspan x="1895.2599999999998" dy="0">Flags, notes,</tspan><tspan x="1895.2599999999998" dy="15">decisions, order,</tspan><tspan x="1895.2599999999998" dy="15">forget</tspan></text></g><g><rect x="1164.145" y="1482" width="116.51999999999997" height="38" rx="5" fill="#fafbf8"/><text x="1222.405" y="1495" text-anchor="middle" font-size="11" fill="#66766d"><tspan x="1222.405" dy="0">Starts a manual or</tspan><tspan x="1222.405" dy="15">project run</tspan></text></g><g><rect x="1166.0149999999999" y="1544" width="112.77999999999997" height="53" rx="5" fill="#fafbf8"/><text x="1222.4049999999997" y="1557" text-anchor="middle" font-size="11" fill="#66766d"><tspan x="1222.4049999999997" dy="0">Replays and</tspan><tspan x="1222.4049999999997" dy="15">subscribes to run</tspan><tspan x="1222.4049999999997" dy="15">events</tspan></text></g><g><rect x="1620.8249999999998" y="434" width="116.29999999999997" height="53" rx="5" fill="#fafbf8"/><text x="1678.975" y="447" text-anchor="middle" font-size="11" fill="#66766d"><tspan x="1678.975" dy="0">Validates copy and</tspan><tspan x="1678.975" dy="15">exports eligible</tspan><tspan x="1678.975" dy="15">entries</tspan></text></g><g><rect x="1839.9699999999998" y="105" width="110.57999999999997" height="38" rx="5" fill="#fafbf8"/><text x="1895.2599999999998" y="118" text-anchor="middle" font-size="11" fill="#66766d"><tspan x="1895.2599999999998" dy="0">Website copy and</tspan><tspan x="1895.2599999999998" dy="15">standalone pages</tspan></text></g><g><rect x="1835.7349999999997" y="2991.5" width="119.04999999999997" height="38" rx="5" fill="#fafbf8"/><text x="1895.2599999999998" y="3004.5" text-anchor="middle" font-size="11" fill="#66766d"><tspan x="1895.2599999999998" dy="0">Opens and migrates</tspan><tspan x="1895.2599999999998" dy="15">the catalog</tspan></text></g><g><rect x="1166.51" y="1621" width="111.78999999999998" height="38" rx="5" fill="#fafbf8"/><text x="1222.405" y="1634" text-anchor="middle" font-size="11" fill="#66766d"><tspan x="1222.405" dy="0">Re-enriches a</tspan><tspan x="1222.405" dy="15">restored project</tspan></text></g><g><rect x="2486.83" y="514" width="118.82999999999997" height="53" rx="5" fill="#fafbf8"/><text x="2546.245" y="527" text-anchor="middle" font-size="11" fill="#66766d"><tspan x="2546.245" dy="0">Projects, metrics,</tspan><tspan x="2546.245" dy="15">snapshots, stacks,</tspan><tspan x="2546.245" dy="15">errors</tspan></text></g><g><rect x="2056.1299999999997" y="300" width="118.82999999999997" height="53" rx="5" fill="#fafbf8"/><text x="2115.5449999999996" y="313" text-anchor="middle" font-size="11" fill="#66766d"><tspan x="2115.5449999999996" dy="0">Lease, metrics,</tspan><tspan x="2115.5449999999996" dy="15">snapshots, errors,</tspan><tspan x="2115.5449999999996" dy="15">run progress</tspan></text></g><g><rect x="1833.9749999999997" y="1544" width="122.56999999999998" height="38" rx="5" fill="#fafbf8"/><text x="1895.2599999999998" y="1557" text-anchor="middle" font-size="11" fill="#66766d"><tspan x="1895.2599999999998" dy="0">Walks roots and</tspan><tspan x="1895.2599999999998" dy="15">stats missing paths</tspan></text></g><g><rect x="2066.91" y="3111.5" width="97.26999999999998" height="38" rx="5" fill="#fafbf8"/><text x="2115.545" y="3124.5" text-anchor="middle" font-size="11" fill="#66766d"><tspan x="2115.545" dy="0">Upsert, mark</tspan><tspan x="2115.545" dy="15">missing, forget</tspan></text></g><g><rect x="1836.3399999999997" y="1390" width="117.83999999999996" height="53" rx="5" fill="#fafbf8"/><text x="1895.2599999999998" y="1403" text-anchor="middle" font-size="11" fill="#66766d"><tspan x="1895.2599999999998" dy="0">HTTP when</tspan><tspan x="1895.2599999999998" dy="15">.todos/serve-port</tspan><tspan x="1895.2599999999998" dy="15">is live</tspan></text></g><g><rect x="1847.0099999999998" y="728" width="96.49999999999999" height="23" rx="5" fill="#fafbf8"/><text x="1895.2599999999998" y="741" text-anchor="middle" font-size="11" fill="#66766d"><tspan x="1895.2599999999998" dy="0">Root manifests</tspan></text></g><g><rect x="2063.7749999999996" y="698" width="103.53999999999998" height="53" rx="5" fill="#fafbf8"/><text x="2115.5449999999996" y="711" text-anchor="middle" font-size="11" fill="#66766d"><tspan x="2115.5449999999996" dy="0">Hosting metrics,</tspan><tspan x="2115.5449999999996" dy="15">snapshots,</tspan><tspan x="2115.5449999999996" dy="15">availability</tspan></text></g><g><rect x="1832.5999999999997" y="1467" width="125.31999999999996" height="53" rx="5" fill="#fafbf8"/><text x="1895.2599999999998" y="1480" text-anchor="middle" font-size="11" fill="#66766d"><tspan x="1895.2599999999998" dy="0">Spawned with</tspan><tspan x="1895.2599999999998" dy="15">timeouts and output</tspan><tspan x="1895.2599999999998" dy="15">caps</tspan></text></g><g><rect x="1849.8699999999997" y="830" width="90.77999999999999" height="23" rx="5" fill="#fafbf8"/><text x="1895.2599999999998" y="843" text-anchor="middle" font-size="11" fill="#66766d"><tspan x="1895.2599999999998" dy="0">api.github.com</tspan></text></g><g><rect x="2054.2599999999998" y="165" width="122.56999999999996" height="38" rx="5" fill="#fafbf8"/><text x="2115.5449999999996" y="178" text-anchor="middle" font-size="11" fill="#66766d"><tspan x="2115.5449999999996" dy="0">toolchain_releases</tspan><tspan x="2115.5449999999996" dy="15">and baseline status</tspan></text></g><g><rect x="1832.8199999999997" y="880" width="124.87999999999995" height="53" rx="5" fill="#fafbf8"/><text x="1895.2599999999998" y="893" text-anchor="middle" font-size="11" fill="#66766d"><tspan x="1895.2599999999998" dy="0">GET</tspan><tspan x="1895.2599999999998" dy="15">/api/v1/products/:i</tspan><tspan x="1895.2599999999998" dy="15">d</tspan></text></g><g><rect x="1620.4399999999998" y="375" width="117.06999999999996" height="23" rx="5" fill="#fafbf8"/><text x="1678.975" y="388" text-anchor="middle" font-size="11" fill="#66766d"><tspan x="1678.975" dy="0">Web agent on 7766</tspan></text></g><g><rect x="1377.2949999999998" y="3231.5" width="122.78999999999996" height="38" rx="5" fill="#fafbf8"/><text x="1438.6899999999998" y="3244.5" text-anchor="middle" font-size="11" fill="#66766d"><tspan x="1438.6899999999998" dy="0">Scan agent at 03:00</tspan><tspan x="1438.6899999999998" dy="15">local</tspan></text></g><g><rect x="940.8349999999999" y="1465" width="122.56999999999995" height="53" rx="5" fill="#fafbf8"/><text x="1002.1199999999999" y="1478" text-anchor="middle" font-size="11" fill="#66766d"><tspan x="1002.1199999999999" dy="0">One cli-reason scan</tspan><tspan x="1002.1199999999999" dy="15">with the shared</tspan><tspan x="1002.1199999999999" dy="15">wiring</tspan></text></g><g><rect x="1641.9999999999998" y="30" width="73.95" height="53" rx="5" fill="#fafbf8"/><text x="1678.9749999999997" y="43" text-anchor="middle" font-size="11" fill="#66766d"><tspan x="1678.9749999999997" dy="0">Opens the</tspan><tspan x="1678.9749999999997" dy="15">production</tspan><tspan x="1678.9749999999997" dy="15">database</tspan></text></g><g><rect x="1382.0249999999999" y="2931.5" width="113.32999999999997" height="38" rx="5" fill="#fafbf8"/><text x="1438.6899999999998" y="2944.5" text-anchor="middle" font-size="11" fill="#66766d"><tspan x="1438.6899999999998" dy="0">Quiesce, reinstall</tspan><tspan x="1438.6899999999998" dy="15">definitions, start</tspan></text></g><g><rect x="1617.6899999999998" y="3291.5" width="122.56999999999998" height="53" rx="5" fill="#fafbf8"/><text x="1678.975" y="3304.5" text-anchor="middle" font-size="11" fill="#66766d"><tspan x="1678.975" dy="0">Consistent backup,</tspan><tspan x="1678.975" dy="15">migrate once,</tspan><tspan x="1678.975" dy="15">restore on rollback</tspan></text></g><g><rect x="727.3" y="1621" width="115.30999999999997" height="53" rx="5" fill="#fafbf8"/><text x="784.9549999999999" y="1634" text-anchor="middle" font-size="11" fill="#66766d"><tspan x="784.9549999999999" dy="0">Health and</tspan><tspan x="784.9549999999999" dy="15">authenticated LAN</tspan><tspan x="784.9549999999999" dy="15">smoke</tspan></text></g><g><rect x="1641.9999999999998" y="3171.5" width="73.94999999999999" height="38" rx="5" fill="#fafbf8"/><text x="1678.9749999999997" y="3184.5" text-anchor="middle" font-size="11" fill="#66766d"><tspan x="1678.9749999999997" dy="0">Standalone</tspan><tspan x="1678.9749999999997" dy="15">migration</tspan></text></g><g><rect x="1617.6899999999998" y="3051.5" width="122.56999999999996" height="38" rx="5" fill="#fafbf8"/><text x="1678.975" y="3064.5" text-anchor="middle" font-size="11" fill="#66766d"><tspan x="1678.975" dy="0">GET /api/website on</tspan><tspan x="1678.975" dy="15">deployment</tspan></text></g><g><rect x="948.5899999999999" y="1358" width="107.05999999999999" height="53" rx="5" fill="#fafbf8"/><text x="1002.1199999999999" y="1371" text-anchor="middle" font-size="11" fill="#66766d"><tspan x="1002.1199999999999" dy="0">Browses, filters,</tspan><tspan x="1002.1199999999999" dy="15">and edits in the</tspan><tspan x="1002.1199999999999" dy="15">table</tspan></text></g><g><rect x="939.3499999999999" y="2717.5" width="125.53999999999996" height="53" rx="5" fill="#fafbf8"/><text x="1002.1199999999999" y="2730.5" text-anchor="middle" font-size="11" fill="#66766d"><tspan x="1002.1199999999999" dy="0">Runs the same verbs</tspan><tspan x="1002.1199999999999" dy="15">and the same</tspan><tspan x="1002.1199999999999" dy="15">queries from a shell</tspan></text></g><g><rect x="2060.915" y="439" width="109.25999999999998" height="53" rx="5" fill="#fafbf8"/><text x="2115.545" y="452" text-anchor="middle" font-size="11" fill="#66766d"><tspan x="2115.545" dy="0">Re-runs the</tspan><tspan x="2115.545" dy="15">reasons after an</tspan><tspan x="2115.545" dy="15">optimistic edit</tspan></text></g><g><rect x="2054.7549999999997" y="591" width="121.57999999999997" height="83" rx="5" fill="#fafbf8"/><text x="2115.5449999999996" y="604" text-anchor="middle" font-size="11" fill="#66766d"><tspan x="2115.5449999999996" dy="0">Merges stored</tspan><tspan x="2115.5449999999996" dy="15">attributes and</tspan><tspan x="2115.5449999999996" dy="15">projected provider</tspan><tspan x="2115.5449999999996" dy="15">metrics into one</tspan><tspan x="2115.5449999999996" dy="15">field map</tspan></text></g><g><rect x="2280.06" y="1154.5" width="103.53999999999998" height="53" rx="5" fill="#fafbf8"/><text x="2331.83" y="1167.5" text-anchor="middle" font-size="11" fill="#66766d"><tspan x="2331.83" dy="0">Entries, fields,</tspan><tspan x="2331.83" dy="15">relations, saved</tspan><tspan x="2331.83" dy="15">views</tspan></text></g><g><rect x="1380.5399999999997" y="1835" width="116.29999999999997" height="83" rx="5" fill="#fafbf8"/><text x="1438.6899999999998" y="1848" text-anchor="middle" font-size="11" fill="#66766d"><tspan x="1438.6899999999998" dy="0">The project</tspan><tspan x="1438.6899999999998" dy="15">projection of the</tspan><tspan x="1438.6899999999998" dy="15">same entries, tags</tspan><tspan x="1438.6899999999998" dy="15">and attributes</tspan><tspan x="1438.6899999999998" dy="15">included</tspan></text></g><g><rect x="1617.6899999999998" y="955" width="122.56999999999998" height="68" rx="5" fill="#fafbf8"/><text x="1678.975" y="968" text-anchor="middle" font-size="11" fill="#66766d"><tspan x="1678.975" dy="0">The active provider</tspan><tspan x="1678.975" dy="15">set in dependency</tspan><tspan x="1678.975" dy="15">order, replacing</tspan><tspan x="1678.975" dy="15">the fixed sequence</tspan></text></g><g><rect x="2059.1549999999997" y="790" width="112.77999999999996" height="68" rx="5" fill="#fafbf8"/><text x="2115.5449999999996" y="803" text-anchor="middle" font-size="11" fill="#66766d"><tspan x="2115.5449999999996" dy="0">The launchd</tspan><tspan x="2115.5449999999996" dy="15">implementation;</tspan><tspan x="2115.5449999999996" dy="15">foreground is the</tspan><tspan x="2115.5449999999996" dy="15">second one</tspan></text></g><g><rect x="1390.4399999999998" y="2792.5" width="96.49999999999997" height="38" rx="5" fill="#fafbf8"/><text x="1438.6899999999998" y="2805.5" text-anchor="middle" font-size="11" fill="#66766d"><tspan x="1438.6899999999998" dy="0">The opentangle</tspan><tspan x="1438.6899999999998" dy="15">export profile</tspan></text></g><g><rect x="2269.17" y="3310.5" width="125.31999999999996" height="68" rx="5" fill="#fafbf8"/><text x="2331.83" y="3323.5" text-anchor="middle" font-size="11" fill="#66766d"><tspan x="2331.83" dy="0">The one persistence</tspan><tspan x="2331.83" dy="15">interface; no caller</tspan><tspan x="2331.83" dy="15">sees SQL or the</tspan><tspan x="2331.83" dy="15">JSON layout</tspan></text></g><g><rect x="1161.12" y="1375" width="122.56999999999996" height="68" rx="5" fill="#fafbf8"/><text x="1222.405" y="1388" text-anchor="middle" font-size="11" fill="#66766d"><tspan x="1222.405" dy="0">Reads manifest</tspan><tspan x="1222.405" dy="15">dependencies in the</tspan><tspan x="1222.405" dy="15">same parse pass as</tspan><tspan x="1222.405" dy="15">the toolchains</tspan></text></g><g><rect x="1381.0349999999999" y="2418" width="115.30999999999997" height="53" rx="5" fill="#fafbf8"/><text x="1438.6899999999998" y="2431" text-anchor="middle" font-size="11" fill="#66766d"><tspan x="1438.6899999999998" dy="0">Rewrites detected</tspan><tspan x="1438.6899999999998" dy="15">uses relations</tspan><tspan x="1438.6899999999998" dy="15">every scan</tspan></text></g><g><rect x="1380.1549999999997" y="2495" width="117.06999999999996" height="53" rx="5" fill="#fafbf8"/><text x="1438.6899999999998" y="2508" text-anchor="middle" font-size="11" fill="#66766d"><tspan x="1438.6899999999998" dy="0">Declares its fields</tspan><tspan x="1438.6899999999998" dy="15">and the uses</tspan><tspan x="1438.6899999999998" dy="15">relation kind</tspan></text></g><g><rect x="1380.6499999999999" y="2234" width="116.07999999999997" height="68" rx="5" fill="#fafbf8"/><text x="1438.6899999999998" y="2247" text-anchor="middle" font-size="11" fill="#66766d"><tspan x="1438.6899999999998" dy="0">Rings, notes,</tspan><tspan x="1438.6899999999998" dy="15">seeded</tspan><tspan x="1438.6899999999998" dy="15">technologies,</tspan><tspan x="1438.6899999999998" dy="15">declared relations</tspan></text></g><g><rect x="1384.06" y="1758" width="109.25999999999998" height="53" rx="5" fill="#fafbf8"/><text x="1438.6899999999998" y="1771" text-anchor="middle" font-size="11" fill="#66766d"><tspan x="1438.6899999999998" dy="0">Through the same</tspan><tspan x="1438.6899999999998" dy="15">HTTP contract as</tspan><tspan x="1438.6899999999998" dy="15">everything else</tspan></text></g><g><rect x="1618.185" y="576" width="121.57999999999996" height="68" rx="5" fill="#fafbf8"/><text x="1678.975" y="589" text-anchor="middle" font-size="11" fill="#66766d"><tspan x="1678.975" dy="0">Ring and version</tspan><tspan x="1678.975" dy="15">behind the</tspan><tspan x="1678.975" dy="15">out-technology and</tspan><tspan x="1678.975" dy="15">stale-ring reasons</tspan></text></g><g><rect x="1623.96" y="773" width="110.02999999999997" height="68" rx="5" fill="#fafbf8"/><text x="1678.975" y="786" text-anchor="middle" font-size="11" fill="#66766d"><tspan x="1678.975" dy="0">Regenerates the</tspan><tspan x="1678.975" dy="15">language and tool</tspan><tspan x="1678.975" dy="15">tables between</tspan><tspan x="1678.975" dy="15">markers</tspan></text></g><g><rect x="1382.2999999999997" y="2572" width="112.77999999999997" height="38" rx="5" fill="#fafbf8"/><text x="1438.6899999999996" y="2585" text-anchor="middle" font-size="11" fill="#66766d"><tspan x="1438.6899999999996" dy="0">Rings and project</tspan><tspan x="1438.6899999999996" dy="15">counts</tspan></text></g><g><rect x="1385.435" y="2341" width="106.50999999999998" height="53" rx="5" fill="#fafbf8"/><text x="1438.6899999999998" y="2354" text-anchor="middle" font-size="11" fill="#66766d"><tspan x="1438.6899999999998" dy="0">Chips and badges</tspan><tspan x="1438.6899999999998" dy="15">from the shared</tspan><tspan x="1438.6899999999998" dy="15">design system</tspan></text></g></g>
  <g data-export-layer="legend"></g><path d="M96 1010H1824" stroke="#dce2db"/><text x="96" y="1044" font-size="13" fill="#78867c">STRUCTURE · CURRENT + PROPOSED</text><text x="1824" y="1044" text-anchor="end" font-size="13" fill="#78867c">ongoing · Authored architecture</text></g></svg>
