<svg xmlns="http://www.w3.org/2000/svg" width="1920" height="1080" viewBox="0 0 1920 1080" role="img" aria-labelledby="title description" data-theme="graphite" data-theme-appearance="light">
  <title id="title">Ongoing / Proposal: Ongoing as a software inventory</title><desc id="description">Settled and unbuilt: one entries table behind a field registry, one query grammar for the CLI, the API and the browser, collectors declared as providers behind a host adapter, and a keyboard-first shell over all of it.. Architecture structure.</desc>
  <defs><marker id="arrow" viewBox="0 0 10 10" refX="9" refY="5" markerWidth="5" markerHeight="5" orient="auto-start-reverse"><path d="M 0 0 L 10 5 L 0 10 z" fill="#85857f"/></marker></defs>
  <rect width="1920" height="1080" fill="#f8f8f6"/>
  <g font-family="Arial, Helvetica, sans-serif"><text x="96" y="58" font-size="12" letter-spacing="3" fill="#626b6f">FRACTAL / SYSTEM MODEL</text>
  <g data-export-layer="title"><text x="96" y="116" font-size="48" font-weight="600" fill="#292927"><tspan x="96" dy="0">Ongoing / Proposal: Ongoing as a software inventory</tspan></text></g>
  <g data-export-layer="subtitle"><text x="96" y="170" font-size="19" font-weight="400" fill="#74746f"><tspan x="96" dy="0">Settled and unbuilt: one entries table behind a field registry, one query grammar for the CLI, the API and the browser, collectors declared as providers behind a host adapter, and</tspan><tspan x="96" dy="26">a keyboard-first shell over all of it.</tspan></text></g>
  <g data-export-layer="diagram" transform="translate(478.198 236) scale(0.457)"><g data-element="inventory"><rect x="25" y="24" width="2058.87" height="1554" rx="14" fill="#eeeeeb" stroke="#7FA8C9" stroke-width="1.3" stroke-dasharray="6 4"/>
      <g transform="translate(2057.87 41) scale(0.667)" color="#7FA8C9" opacity="0.85"><title>Proposed subsystem</title><g fill="none" stroke="currentColor" stroke-width="1.5" stroke-linecap="round" stroke-linejoin="round"><rect x="3" y="8" width="13" height="13" rx="2"/><path d="M8 5V3h13v13h-2"/></g></g>
      <text x="49" y="54" font-size="14" font-weight="600" fill="#292927"><tspan x="49" dy="0">Software inventory</tspan></text>
      <text x="45" y="78" font-size="12" font-weight="400" fill="#6d6d68"></text>
      </g><path d="M298.28,829.5 L493.64,829.5 L493.64,422 L537.27,422" fill="none" stroke="#956c35" stroke-width="1.5" stroke-dasharray="6 4" marker-end="url(#arrow)"/><path d="M298.28,829.5 L314.28,829.5 L314.28,698.5 L483.64,698.5 L483.64,205.5 L515.64,205.5" fill="none" stroke="#956c35" stroke-width="1.5" stroke-dasharray="6 4" marker-end="url(#arrow)"/><path d="M298.28,829.5 L314.28,829.5 L314.28,904.5 L934.39,904.5 L934.39,551.5 L966.39,551.5" fill="none" stroke="#956c35" stroke-width="1.5" stroke-dasharray="6 4" marker-end="url(#arrow)"/><path d="M298.28,621.5 L493.64,621.5 L493.64,422 L537.27,422" fill="none" stroke="#956c35" stroke-width="1.5" stroke-dasharray="6 4" marker-end="url(#arrow)"/><path d="M298.28,422 L537.27,422" fill="none" stroke="#956c35" stroke-width="1.5" stroke-dasharray="6 4" marker-end="url(#arrow)"/><path d="M298.28,1046 L493.64,1046 L493.64,422 L537.27,422" fill="none" stroke="#956c35" stroke-width="1.5" stroke-dasharray="6 4" marker-end="url(#arrow)"/><path d="M298.28,1046 L314.28,1046 L314.28,1138 L515.64,1138" fill="none" stroke="#956c35" stroke-width="1.5" stroke-dasharray="6 4" marker-end="url(#arrow)"/><path d="M751.27,422 L1394.45,422" fill="none" stroke="#956c35" stroke-width="1.5" stroke-dasharray="6 4" marker-end="url(#arrow)"/><path d="M751.27,422 L788.9,422 L788.9,551.5 L966.39,551.5" fill="none" stroke="#956c35" stroke-width="1.5" stroke-dasharray="6 4" marker-end="url(#arrow)"/><path d="M1180.39,551.5 L1362.45,551.5 L1362.45,422 L1394.45,422" fill="none" stroke="#956c35" stroke-width="1.5" stroke-dasharray="6 4" marker-end="url(#arrow)"/><path d="M1625.25,422 L1837.33,422" fill="none" stroke="#956c35" stroke-width="1.5" stroke-dasharray="6 4" marker-end="url(#arrow)"/><path d="M772.9,1365 L1362.45,1365 L1362.45,422 L1394.45,422" fill="none" stroke="#956c35" stroke-width="1.5" stroke-dasharray="6 4" marker-end="url(#arrow)"/><path d="M298.28,1245.5 L314.28,1245.5 L314.28,1365 L515.64,1365" fill="none" stroke="#956c35" stroke-width="1.5" stroke-dasharray="6 4" marker-end="url(#arrow)"/><path d="M298.28,1245.5 L483.64,1245.5 L483.64,1138 L515.64,1138" fill="none" stroke="#956c35" stroke-width="1.5" stroke-dasharray="6 4" marker-end="url(#arrow)"/><path d="M298.28,1455.5 L483.64,1455.5 L483.64,1138 L515.64,1138" fill="none" stroke="#956c35" stroke-width="1.5" stroke-dasharray="6 4" marker-end="url(#arrow)"/><g data-element="inventory.entries"><rect x="1838.3299999999997" y="306.5" width="220.53999999999996" height="231" rx="14" fill="#ffffff" stroke="#7FA8C9" stroke-width="1.3" stroke-dasharray="6 4"/>
      <g transform="translate(2032.87 323.5) scale(0.667)" color="#7FA8C9" opacity="0.85"><title>Proposed store</title><g fill="none" stroke="currentColor" stroke-width="1.5" stroke-linecap="round" stroke-linejoin="round"><ellipse cx="12" cy="6" rx="8" ry="3"/><path d="M4 6v12c0 4 16 4 16 0V6M4 12c0 4 16 4 16 0"/></g></g>
      <text x="1858.33" y="338.5" font-size="14" font-weight="600" fill="#292927"><tspan x="1858.33" dy="0">entries, fields,</tspan><tspan x="1858.33" dy="20">relations</tspan></text>
      <text x="1858.33" y="383.5" font-size="12" font-weight="400" fill="#6d6d68"><tspan x="1858.33" dy="0">entries (kind, slug, tags,</tspan><tspan x="1858.33" dy="17">attributes JSON),</tspan><tspan x="1858.33" dy="17">entry_sources (which</tspan><tspan x="1858.33" dy="17">provider found it and where),</tspan><tspan x="1858.33" dy="17">fields (user-defined),</tspan><tspan x="1858.33" dy="17">relations (uses, provides,</tspan><tspan x="1858.33" dy="17">evidence), saved_views.</tspan><tspan x="1858.33" dy="17">Projects and technologies</tspan><tspan x="1858.33" dy="17">are rows of one table.</tspan></text>
      </g><g data-element="inventory.registry"><rect x="1395.4499999999998" y="323.5" width="228.79999999999993" height="197" rx="14" fill="#ffffff" stroke="#89A579" stroke-width="1.3" stroke-dasharray="6 4"/>
      <g transform="translate(1598.25 340.5) scale(0.667)" color="#89A579" opacity="0.85"><title>Proposed component</title><g fill="none" stroke="currentColor" stroke-width="1.5" stroke-linecap="round" stroke-linejoin="round"><path d="M7 7V4h13v16H7v-3m0-6v2"/><rect x="3" y="7" width="8" height="4" rx="1"/><rect x="3" y="13" width="8" height="4" rx="1"/></g></g>
      <text x="1415.45" y="355.5" font-size="14" font-weight="600" fill="#292927"><tspan x="1415.45" dy="0">Field registry &amp;</tspan><tspan x="1415.45" dy="20">validation</tspan></text>
      <text x="1415.45" y="400.5" font-size="12" font-weight="400" fill="#6d6d68"><tspan x="1415.45" dy="0">Built-in fields declared in</tspan><tspan x="1415.45" dy="17">code, user fields as rows,</tspan><tspan x="1415.45" dy="17">provider fields from manifests.</tspan><tspan x="1415.45" dy="17">validateEntryPatch(registry,</tspan><tspan x="1415.45" dy="17">kind, patch) is the one pure</tspan><tspan x="1415.45" dy="17">validation path the API, the</tspan><tspan x="1415.45" dy="17">CLI, and the browser all run.</tspan></text>
      </g><g data-element="inventory.query"><rect x="967.3899999999998" y="455" width="212" height="193" rx="14" fill="#ffffff" stroke="#89A579" stroke-width="1.3" stroke-dasharray="6 4"/>
      <g transform="translate(1153.39 472) scale(0.667)" color="#89A579" opacity="0.85"><title>Proposed component</title><g fill="none" stroke="currentColor" stroke-width="1.5" stroke-linecap="round" stroke-linejoin="round"><path d="M7 7V4h13v16H7v-3m0-6v2"/><rect x="3" y="7" width="8" height="4" rx="1"/><rect x="3" y="13" width="8" height="4" rx="1"/></g></g>
      <text x="987.39" y="487" font-size="14" font-weight="600" fill="#292927"><tspan x="987.39" dy="0">Query grammar</tspan></text>
      <text x="987.39" y="511" font-size="12" font-weight="400" fill="#6d6d68"><tspan x="987.39" dy="0">One pure parser and</tspan><tspan x="987.39" dy="17">evaluator for filter</tspan><tspan x="987.39" dy="17">clauses, multi-key sorts,</tspan><tspan x="987.39" dy="17">and column sets. Unknown</tspan><tspan x="987.39" dy="17">keys error with the nearest</tspan><tspan x="987.39" dy="17">registered field; a saved</tspan><tspan x="987.39" dy="17">view is the same string</tspan><tspan x="987.39" dy="17">stored.</tspan></text>
      </g><g data-element="inventory.entries_api"><rect x="538.2699999999998" y="334" width="212" height="176" rx="14" fill="#ffffff" stroke="#739886" stroke-width="1.3" stroke-dasharray="6 4"/>
      <g transform="translate(724.27 351) scale(0.667)" color="#739886" opacity="0.85"><title>Proposed component</title><g fill="none" stroke="currentColor" stroke-width="1.5" stroke-linecap="round" stroke-linejoin="round"><path d="M7 7V4h13v16H7v-3m0-6v2"/><rect x="3" y="7" width="8" height="4" rx="1"/><rect x="3" y="13" width="8" height="4" rx="1"/></g></g>
      <text x="558.27" y="366" font-size="14" font-weight="600" fill="#292927"><tspan x="558.27" dy="0">Entries API</tspan></text>
      <text x="558.27" y="390" font-size="12" font-weight="400" fill="#6d6d68"><tspan x="558.27" dy="0">/api/entries with q, sort,</tspan><tspan x="558.27" dy="17">columns and saved;</tspan><tspan x="558.27" dy="17">/api/fields, /api/relations,</tspan><tspan x="558.27" dy="17">/api/views, /api/providers.</tspan><tspan x="558.27" dy="17">/api/projects survives as a</tspan><tspan x="558.27" dy="17">thin alias until the new shell</tspan><tspan x="558.27" dy="17">ships.</tspan></text>
      </g><g data-element="inventory.entry_cli"><rect x="85.27999999999992" y="958" width="212" height="176" rx="14" fill="#ffffff" stroke="#82A6B6" stroke-width="1.3" stroke-dasharray="6 4"/>
      <g transform="translate(271.28 975) scale(0.667)" color="#82A6B6" opacity="0.85"><title>Proposed component</title><g fill="none" stroke="currentColor" stroke-width="1.5" stroke-linecap="round" stroke-linejoin="round"><path d="M7 7V4h13v16H7v-3m0-6v2"/><rect x="3" y="7" width="8" height="4" rx="1"/><rect x="3" y="13" width="8" height="4" rx="1"/></g></g>
      <text x="105.28" y="990" font-size="14" font-weight="600" fill="#292927"><tspan x="105.28" dy="0">Entry CLI verbs</tspan></text>
      <text x="105.28" y="1014" font-size="12" font-weight="400" fill="#6d6d68"><tspan x="105.28" dy="0">get, set, field, tag, link,</tspan><tspan x="105.28" dy="17">unlink, view, providers, and</tspan><tspan x="105.28" dy="17">a rewritten list on the</tspan><tspan x="105.28" dy="17">query model. A transport</tspan><tspan x="105.28" dy="17">adapter links the core</tspan><tspan x="105.28" dy="17">in-process when no service</tspan><tspan x="105.28" dy="17">is running.</tspan></text>
      </g><g data-element="inventory.providers"><rect x="516.6399999999999" y="1258" width="255.2599999999999" height="214" rx="14" fill="#ffffff" stroke="#9A91C4" stroke-width="1.3" stroke-dasharray="6 4"/>
      <g transform="translate(745.9 1275) scale(0.667)" color="#9A91C4" opacity="0.85"><title>Proposed component</title><g fill="none" stroke="currentColor" stroke-width="1.5" stroke-linecap="round" stroke-linejoin="round"><path d="M7 7V4h13v16H7v-3m0-6v2"/><rect x="3" y="7" width="8" height="4" rx="1"/><rect x="3" y="13" width="8" height="4" rx="1"/></g></g>
      <text x="536.64" y="1290" font-size="14" font-weight="600" fill="#292927"><tspan x="536.64" dy="0">Provider registry &amp;</tspan><tspan x="536.64" dy="20">manifests</tspan></text>
      <text x="536.64" y="1335" font-size="12" font-weight="400" fill="#6d6d68"><tspan x="536.64" dy="0">Each collector declares the kinds</tspan><tspan x="536.64" dy="17">it touches, the fields and relation</tspan><tspan x="536.64" dy="17">kinds it contributes, what it</tspan><tspan x="536.64" dy="17">requires, and when it runs. The</tspan><tspan x="536.64" dy="17">scanner iterates enabled</tspan><tspan x="536.64" dy="17">providers; a disabled one</tspan><tspan x="536.64" dy="17">contributes no fields, so rules</tspan><tspan x="536.64" dy="17">reading them stay inert.</tspan></text>
      </g><g data-element="inventory.config"><rect x="85.27999999999992" y="1166" width="212" height="159" rx="14" fill="#ffffff" stroke="#9A91C4" stroke-width="1.3" stroke-dasharray="6 4"/>
      <g transform="translate(271.28 1183) scale(0.667)" color="#9A91C4" opacity="0.85"><title>Proposed component</title><g fill="none" stroke="currentColor" stroke-width="1.5" stroke-linecap="round" stroke-linejoin="round"><path d="M7 7V4h13v16H7v-3m0-6v2"/><rect x="3" y="7" width="8" height="4" rx="1"/><rect x="3" y="13" width="8" height="4" rx="1"/></g></g>
      <text x="105.28" y="1198" font-size="14" font-weight="600" fill="#292927"><tspan x="105.28" dy="0">Configuration</tspan></text>
      <text x="105.28" y="1222" font-size="12" font-weight="400" fill="#6d6d68"><tspan x="105.28" dy="0">One TOML file with a</tspan><tspan x="105.28" dy="17">[providers] section,</tspan><tspan x="105.28" dy="17">--config to point elsewhere,</tspan><tspan x="105.28" dy="17">environment variables as</tspan><tspan x="105.28" dy="17">overrides and secret</tspan><tspan x="105.28" dy="17">carriers.</tspan></text>
      </g><g data-element="inventory.host"><rect x="516.6399999999999" y="1050" width="212" height="176" rx="14" fill="#ffffff" stroke="#9FA8B3" stroke-width="1.3" stroke-dasharray="6 4"/>
      <g transform="translate(702.64 1067) scale(0.667)" color="#9FA8B3" opacity="0.85"><title>Proposed adapter</title><g fill="none" stroke="currentColor" stroke-width="1.5" stroke-linecap="round" stroke-linejoin="round"><path d="M3 7h14l-3-3m3 3-3 3M21 17H7l3-3m-3 3 3 3"/></g></g>
      <text x="536.64" y="1082" font-size="14" font-weight="600" fill="#292927"><tspan x="536.64" dy="0">Host adapter</tspan></text>
      <text x="536.64" y="1106" font-size="12" font-weight="400" fill="#6d6d68"><tspan x="536.64" dy="0">serve, scan, restart, stop,</tspan><tspan x="536.64" dy="17">logs behind one interface.</tspan><tspan x="536.64" dy="17">launchd first, foreground</tspan><tspan x="536.64" dy="17">second, so an install</tspan><tspan x="536.64" dy="17">without launchd is a</tspan><tspan x="536.64" dy="17">configuration choice rather</tspan><tspan x="536.64" dy="17">than a fork.</tspan></text>
      </g><g data-element="inventory.profile"><rect x="50" y="1357" width="247.27999999999992" height="197" rx="14" fill="#ffffff" stroke="#9FA8B3" stroke-width="1.3" stroke-dasharray="6 4"/>
      <g transform="translate(271.28 1374) scale(0.667)" color="#9FA8B3" opacity="0.85"><title>Proposed component</title><g fill="none" stroke="currentColor" stroke-width="1.5" stroke-linecap="round" stroke-linejoin="round"><path d="M7 7V4h13v16H7v-3m0-6v2"/><rect x="3" y="7" width="8" height="4" rx="1"/><rect x="3" y="13" width="8" height="4" rx="1"/></g></g>
      <text x="70" y="1389" font-size="14" font-weight="600" fill="#292927"><tspan x="70" dy="0">Deployment &amp; export</tspan><tspan x="70" dy="20">profiles</tspan></text>
      <text x="70" y="1434" font-size="12" font-weight="400" fill="#6d6d68"><tspan x="70" dy="0">The aerie constants and release</tspan><tspan x="70" dy="17">scripts move to deploy/aerie/ and</tspan><tspan x="70" dy="17">the website export becomes the</tspan><tspan x="70" dy="17">opentangle profile. The core</tspan><tspan x="70" dy="17">imports neither; ongoing init,</tspan><tspan x="70" dy="17">serve, and scan are all a new</tspan><tspan x="70" dy="17">machine needs.</tspan></text>
      </g><g data-element="inventory.shell"><rect x="85.27999999999992" y="733" width="212" height="193" rx="14" fill="#ffffff" stroke="#759EB5" stroke-width="1.3" stroke-dasharray="6 4"/>
      <g transform="translate(271.28 750) scale(0.667)" color="#759EB5" opacity="0.85"><title>Proposed component</title><g fill="none" stroke="currentColor" stroke-width="1.5" stroke-linecap="round" stroke-linejoin="round"><path d="M7 7V4h13v16H7v-3m0-6v2"/><rect x="3" y="7" width="8" height="4" rx="1"/><rect x="3" y="13" width="8" height="4" rx="1"/></g></g>
      <text x="105.28" y="765" font-size="14" font-weight="600" fill="#292927"><tspan x="105.28" dy="0">Inventory shell</tspan></text>
      <text x="105.28" y="789" font-size="12" font-weight="400" fill="#6d6d68"><tspan x="105.28" dy="0">Rail of kinds, attention</tspan><tspan x="105.28" dy="17">views, saved views, radar</tspan><tspan x="105.28" dy="17">and providers; a table with</tspan><tspan x="105.28" dy="17">chosen columns, inline</tspan><tspan x="105.28" dy="17">editors per field type, j/k,</tspan><tspan x="105.28" dy="17">/ to filter, , to sort, c for</tspan><tspan x="105.28" dy="17">columns; a detail panel on</tspan><tspan x="105.28" dy="17">Enter.</tspan></text>
      </g><g data-element="inventory.palette"><rect x="85.27999999999992" y="542" width="212" height="159" rx="14" fill="#ffffff" stroke="#759EB5" stroke-width="1.3" stroke-dasharray="6 4"/>
      <g transform="translate(271.28 559) scale(0.667)" color="#759EB5" opacity="0.85"><title>Proposed component</title><g fill="none" stroke="currentColor" stroke-width="1.5" stroke-linecap="round" stroke-linejoin="round"><path d="M7 7V4h13v16H7v-3m0-6v2"/><rect x="3" y="7" width="8" height="4" rx="1"/><rect x="3" y="13" width="8" height="4" rx="1"/></g></g>
      <text x="105.28" y="574" font-size="14" font-weight="600" fill="#292927"><tspan x="105.28" dy="0">Command palette</tspan></text>
      <text x="105.28" y="598" font-size="12" font-weight="400" fill="#6d6d68"><tspan x="105.28" dy="0">Cmd+K jump to any entry by</tspan><tspan x="105.28" dy="17">fuzzy name and run</tspan><tspan x="105.28" dy="17">commands against it: set</tspan><tspan x="105.28" dy="17">intent, favorite, hide,</tspan><tspan x="105.28" dy="17">reorder, open in terminal,</tspan><tspan x="105.28" dy="17">switch view.</tspan></text>
      </g><g data-element="inventory.entry_page"><rect x="85.27999999999992" y="334" width="212" height="176" rx="14" fill="#ffffff" stroke="#759EB5" stroke-width="1.3" stroke-dasharray="6 4"/>
      <g transform="translate(271.28 351) scale(0.667)" color="#759EB5" opacity="0.85"><title>Proposed component</title><g fill="none" stroke="currentColor" stroke-width="1.5" stroke-linecap="round" stroke-linejoin="round"><path d="M7 7V4h13v16H7v-3m0-6v2"/><rect x="3" y="7" width="8" height="4" rx="1"/><rect x="3" y="13" width="8" height="4" rx="1"/></g></g>
      <text x="105.28" y="366" font-size="14" font-weight="600" fill="#292927"><tspan x="105.28" dy="0">Entry fact sheet</tspan></text>
      <text x="105.28" y="390" font-size="12" font-weight="400" fill="#6d6d68"><tspan x="105.28" dy="0">/p/&lt;slug&gt; and /t/&lt;slug&gt;:</tspan><tspan x="105.28" dy="17">identity, decision fields,</tspan><tspan x="105.28" dy="17">provider panels that have</tspan><tspan x="105.28" dy="17">data, relations, and every</tspan><tspan x="105.28" dy="17">attention reason with its</tspan><tspan x="105.28" dy="17">input, comparison, and</tspan><tspan x="105.28" dy="17">threshold. Edit in place.</tspan></text>
      </g><g data-element="inventory.ui_kit"><rect x="516.6399999999999" y="109" width="212" height="193" rx="14" fill="#ffffff" stroke="#759EB5" stroke-width="1.3" stroke-dasharray="6 4"/>
      <g transform="translate(702.64 126) scale(0.667)" color="#759EB5" opacity="0.85"><title>Proposed component</title><g fill="none" stroke="currentColor" stroke-width="1.5" stroke-linecap="round" stroke-linejoin="round"><path d="M7 7V4h13v16H7v-3m0-6v2"/><rect x="3" y="7" width="8" height="4" rx="1"/><rect x="3" y="13" width="8" height="4" rx="1"/></g></g>
      <text x="536.64" y="141" font-size="14" font-weight="600" fill="#292927"><tspan x="536.64" dy="0">Design system</tspan></text>
      <text x="536.64" y="165" font-size="12" font-weight="400" fill="#6d6d68"><tspan x="536.64" dy="0">src/lib/ui: Table, a cell</tspan><tspan x="536.64" dy="17">editor per field type,</tspan><tspan x="536.64" dy="17">Palette, Panel, Rail, Badge,</tspan><tspan x="536.64" dy="17">Sparkline, over dark-first</tspan><tspan x="536.64" dy="17">LCH tokens on a 4px grid.</tspan><tspan x="536.64" dy="17">Replaces dashboard.css, the</tspan><tspan x="536.64" dy="17">ticker, the flyout, and drag</tspan><tspan x="536.64" dy="17">reorder.</tspan></text>
      </g><g><rect x="346.2799999999999" y="835.5" width="121.35999999999997" height="53" rx="5" fill="#f8f8f6"/><text x="406.9599999999999" y="848.5" text-anchor="middle" font-size="11" fill="#62625e"><tspan x="406.9599999999999" dy="0">GET</tspan><tspan x="406.9599999999999" dy="15">/api/entries?q=&amp;so</tspan><tspan x="406.9599999999999" dy="15">rt=&amp;columns=</tspan></text></g><g><rect x="348.03999999999996" y="704.5" width="117.83999999999997" height="38" rx="5" fill="#f8f8f6"/><text x="406.9599999999999" y="717.5" text-anchor="middle" font-size="11" fill="#62625e"><tspan x="406.9599999999999" dy="0">Table, cell editors,</tspan><tspan x="406.9599999999999" dy="15">rail, panel</tspan></text></g><g><rect x="582.5999999999998" y="910.5" width="123.33999999999996" height="53" rx="5" fill="#f8f8f6"/><text x="644.2699999999998" y="923.5" text-anchor="middle" font-size="11" fill="#62625e"><tspan x="644.2699999999998" dy="0">Builds and validates</tspan><tspan x="644.2699999999998" dy="15">the filter string in</tspan><tspan x="644.2699999999998" dy="15">the browser</tspan></text></g><g><rect x="351.8349999999999" y="627.5" width="110.24999999999999" height="53" rx="5" fill="#f8f8f6"/><text x="406.9599999999999" y="640.5" text-anchor="middle" font-size="11" fill="#62625e"><tspan x="406.9599999999999" dy="0">Jump to an entry,</tspan><tspan x="406.9599999999999" dy="15">run a command</tspan><tspan x="406.9599999999999" dy="15">against it</tspan></text></g><g><rect x="351.44999999999993" y="428" width="111.01999999999997" height="38" rx="5" fill="#f8f8f6"/><text x="406.9599999999999" y="441" text-anchor="middle" font-size="11" fill="#62625e"><tspan x="406.9599999999999" dy="0">PATCH one field in</tspan><tspan x="406.9599999999999" dy="15">place</tspan></text></g><g><rect x="351.8349999999999" y="1052" width="110.24999999999997" height="68" rx="5" fill="#f8f8f6"/><text x="406.9599999999999" y="1065" text-anchor="middle" font-size="11" fill="#62625e"><tspan x="406.9599999999999" dy="0">Over HTTP, or the</tspan><tspan x="406.9599999999999" dy="15">core in-process</tspan><tspan x="406.9599999999999" dy="15">when no service</tspan><tspan x="406.9599999999999" dy="15">runs</tspan></text></g><g><rect x="347.0499999999999" y="1144" width="119.81999999999996" height="38" rx="5" fill="#f8f8f6"/><text x="406.95999999999987" y="1157" text-anchor="middle" font-size="11" fill="#62625e"><tspan x="406.95999999999987" dy="0">serve, scan,</tspan><tspan x="406.95999999999987" dy="15">restart, stop, logs</tspan></text></g><g><rect x="1012.7099999999999" y="382" width="121.35999999999996" height="38" rx="5" fill="#f8f8f6"/><text x="1073.3899999999999" y="395" text-anchor="middle" font-size="11" fill="#62625e"><tspan x="1073.3899999999999" dy="0">validateEntryPatch</tspan><tspan x="1073.3899999999999" dy="15">before any write</tspan></text></g><g><rect x="820.8999999999997" y="557.5" width="97.48999999999998" height="38" rx="5" fill="#f8f8f6"/><text x="869.6449999999998" y="570.5" text-anchor="middle" font-size="11" fill="#62625e"><tspan x="869.6449999999998" dy="0">Parses q, sort,</tspan><tspan x="869.6449999999998" dy="15">columns, saved</tspan></text></g><g><rect x="1228.3899999999999" y="557.5" width="118.05999999999996" height="53" rx="5" fill="#f8f8f6"/><text x="1287.4199999999998" y="570.5" text-anchor="middle" font-size="11" fill="#62625e"><tspan x="1287.4199999999998" dy="0">Resolves and</tspan><tspan x="1287.4199999999998" dy="15">type-checks every</tspan><tspan x="1287.4199999999998" dy="15">field key</tspan></text></g><g><rect x="1673.2499999999998" y="428" width="116.07999999999997" height="38" rx="5" fill="#f8f8f6"/><text x="1731.2899999999997" y="441" text-anchor="middle" font-size="11" fill="#62625e"><tspan x="1731.2899999999997" dy="0">User-defined field</tspan><tspan x="1731.2899999999997" dy="15">rows</tspan></text></g><g><rect x="1011.8299999999999" y="1371" width="123.11999999999996" height="53" rx="5" fill="#f8f8f6"/><text x="1073.3899999999999" y="1384" text-anchor="middle" font-size="11" fill="#62625e"><tspan x="1073.3899999999999" dy="0">Namespaced</tspan><tspan x="1073.3899999999999" dy="15">read-only field and</tspan><tspan x="1073.3899999999999" dy="15">relation definitions</tspan></text></g><g><rect x="353.2099999999999" y="1371" width="107.49999999999997" height="53" rx="5" fill="#f8f8f6"/><text x="406.9599999999999" y="1384" text-anchor="middle" font-size="11" fill="#62625e"><tspan x="406.9599999999999" dy="0">Which providers</tspan><tspan x="406.9599999999999" dy="15">are on, and their</tspan><tspan x="406.9599999999999" dy="15">settings</tspan></text></g><g><rect x="360.19499999999994" y="1251.5" width="93.52999999999997" height="68" rx="5" fill="#f8f8f6"/><text x="406.9599999999999" y="1264.5" text-anchor="middle" font-size="11" fill="#62625e"><tspan x="406.9599999999999" dy="0">Which host</tspan><tspan x="406.9599999999999" dy="15">implementation</tspan><tspan x="406.9599999999999" dy="15">serves and</tspan><tspan x="406.9599999999999" dy="15">schedules</tspan></text></g><g><rect x="353.81499999999994" y="1461.5" width="106.28999999999998" height="53" rx="5" fill="#f8f8f6"/><text x="406.9599999999999" y="1474.5" text-anchor="middle" font-size="11" fill="#62625e"><tspan x="406.9599999999999" dy="0">aerie deploy and</tspan><tspan x="406.9599999999999" dy="15">rollback through</tspan><tspan x="406.9599999999999" dy="15">the adapter</tspan></text></g></g>
  <g data-export-layer="legend"></g><path d="M96 1010H1824" stroke="#ddddda"/><text x="96" y="1044" font-size="13" fill="#7d7d77">STRUCTURE · CURRENT + PROPOSED</text><text x="1824" y="1044" text-anchor="end" font-size="13" fill="#7d7d77">FOCUS: Software inventory · 15 external connections outside view</text></g></svg>
