<svg xmlns="http://www.w3.org/2000/svg" width="1920" height="1080" viewBox="0 0 1920 1080" role="img" aria-labelledby="title description" data-theme="grove" data-theme-appearance="light">
  <title id="title">Ongoing / How a scan refreshes the catalog</title><desc id="description">Discovery first, then git, TD, and stack per project, cloc only when the worktree changed, then release baselines and GitHub once per run.. Architecture structure.</desc>
  <defs><marker id="arrow" viewBox="0 0 10 10" refX="9" refY="5" markerWidth="5" markerHeight="5" orient="auto-start-reverse"><path d="M 0 0 L 10 5 L 0 10 z" fill="#84948b"/></marker></defs>
  <rect width="1920" height="1080" fill="#fafbf8"/>
  <g font-family="Arial, Helvetica, sans-serif"><text x="96" y="58" font-size="12" letter-spacing="3" fill="#607c69">FRACTAL / SYSTEM MODEL</text>
  <g data-export-layer="title"><text x="96" y="116" font-size="48" font-weight="600" fill="#243b34"><tspan x="96" dy="0">Ongoing / How a scan refreshes the catalog</tspan></text></g>
  <g data-export-layer="subtitle"><text x="96" y="170" font-size="19" font-weight="400" fill="#6e7d72"><tspan x="96" dy="0">Discovery first, then git, TD, and stack per project, cloc only when the worktree changed, then release baselines and GitHub once per run.</tspan></text></g>
  <g data-export-layer="diagram" transform="translate(368.164 210) scale(0.479)"><g data-element="scanning"><rect x="25" y="24" width="2421.9699999999993" height="1535" rx="14" fill="#f4f6f3" stroke="#d9e0da" stroke-width="1.3"/>
      <g transform="translate(2420.97 41) scale(0.667)" color="#9A91C4" opacity="0.85"><title>Subsystem</title><g fill="none" stroke="currentColor" stroke-width="1.5" stroke-linecap="round" stroke-linejoin="round"><rect x="3" y="8" width="13" height="13" rx="2"/><path d="M8 5V3h13v13h-2"/></g></g>
      <text x="49" y="54" font-size="14" font-weight="600" fill="#243b34"><tspan x="49" dy="0">Scanner &amp; collectors</tspan></text>
      <text x="45" y="78" font-size="12" font-weight="400" fill="#67746e"></text>
      </g><path d="M263,973 L483.11,973" fill="none" stroke="#84948b" stroke-width="1.5" marker-end="url(#arrow)"/><path d="M263,780 L451.11,780 L451.11,973 L483.11,973" fill="none" stroke="#84948b" stroke-width="1.5" marker-end="url(#arrow)"/><path d="M697.11,973 L713.11,973 L713.11,1350.5 L912.16,1350.5" fill="none" stroke="#84948b" stroke-width="1.5" marker-end="url(#arrow)"/><path d="M697.11,973 L713.11,973 L713.11,470.5 L915.45,470.5" fill="none" stroke="#84948b" stroke-width="1.5" marker-end="url(#arrow)"/><path d="M697.11,973 L713.11,973 L713.11,826 L1321.4,826 L1321.4,869 L1353.4,869" fill="none" stroke="#84948b" stroke-width="1.5" marker-end="url(#arrow)"/><path d="M697.11,973 L713.11,973 L713.11,1445 L1353.4,1445" fill="none" stroke="#84948b" stroke-width="1.5" marker-end="url(#arrow)"/><path d="M697.11,973 L713.11,973 L713.11,216 L912.16,216" fill="none" stroke="#84948b" stroke-width="1.5" marker-end="url(#arrow)"/><path d="M697.11,973 L915.45,973" fill="none" stroke="#84948b" stroke-width="1.5" marker-end="url(#arrow)"/><path d="M697.11,973 L713.11,973 L713.11,1166 L912.16,1166" fill="none" stroke="#84948b" stroke-width="1.5" marker-end="url(#arrow)"/><path d="M697.11,973 L713.11,973 L713.11,706 L915.45,706" fill="none" stroke="#84948b" stroke-width="1.5" marker-end="url(#arrow)"/><path d="M1129.45,470.5 L2176.97,470.5 L2176.97,1445 L2208.97,1445" fill="none" stroke="#84948b" stroke-width="1.5" marker-end="url(#arrow)"/><path d="M1567.4,869 L2009.7,869 L2009.7,1445 L2208.97,1445" fill="none" stroke="#84948b" stroke-width="1.5" marker-end="url(#arrow)"/><path d="M1129.45,973 L1148.74,973 L1148.74,869 L1353.4,869" fill="none" stroke="#84948b" stroke-width="1.5" marker-end="url(#arrow)"/><path d="M1129.45,973 L2009.7,973 L2009.7,1445 L2208.97,1445" fill="none" stroke="#84948b" stroke-width="1.5" marker-end="url(#arrow)"/><path d="M1567.4,1445 L2208.97,1445" fill="none" stroke="#84948b" stroke-width="1.5" marker-end="url(#arrow)"/><path d="M1129.45,706 L2009.7,706 L2009.7,1445 L2208.97,1445" fill="none" stroke="#84948b" stroke-width="1.5" marker-end="url(#arrow)"/><path d="M1129.45,706 L1148.74,706 L1148.74,593.5 L1353.4,593.5" fill="none" stroke="#84948b" stroke-width="1.5" marker-end="url(#arrow)"/><path d="M1567.4,593.5 L1779.7,593.5" fill="none" stroke="#84948b" stroke-width="1.5" marker-end="url(#arrow)"/><path d="M1993.7,593.5 L2176.97,593.5 L2176.97,1445 L2208.97,1445" fill="none" stroke="#84948b" stroke-width="1.5" marker-end="url(#arrow)"/><path d="M1132.74,1166 L1353.4,1166" fill="none" stroke="#84948b" stroke-width="1.5" marker-end="url(#arrow)"/><g data-element="scanning.scanner"><rect x="484.10999999999996" y="857.5" width="212" height="231" rx="14" fill="#ffffff" stroke="#d9e0da" stroke-width="1.3"/>
      <g transform="translate(670.11 874.5) scale(0.667)" color="#9A91C4" opacity="0.85"><title>Component</title><g fill="none" stroke="currentColor" stroke-width="1.5" stroke-linecap="round" stroke-linejoin="round"><path d="M7 7V4h13v16H7v-3m0-6v2"/><rect x="3" y="7" width="8" height="4" rx="1"/><rect x="3" y="13" width="8" height="4" rx="1"/></g></g>
      <text x="504.11" y="889.5" font-size="14" font-weight="600" fill="#243b34"><tspan x="504.11" dy="0">Scan</tspan><tspan x="504.11" dy="20">orchestrator</tspan></text>
      <text x="504.11" y="934.5" font-size="12" font-weight="400" fill="#67746e"><tspan x="504.11" dy="0">Acquires the lease,</tspan><tspan x="504.11" dy="17">heartbeats it, runs git, TD,</tspan><tspan x="504.11" dy="17">and stack per project</tspan><tspan x="504.11" dy="17">under concurrency limits,</tspan><tspan x="504.11" dy="17">gates cloc by policy, then</tspan><tspan x="504.11" dy="17">refreshes baselines and</tspan><tspan x="504.11" dy="17">GitHub. A failed collector</tspan><tspan x="504.11" dy="17">records a warning and keeps</tspan><tspan x="504.11" dy="17">the last result.</tspan></text>
      </g><g data-element="scanning.wiring"><rect x="50" y="709" width="212" height="142" rx="14" fill="#ffffff" stroke="#d9e0da" stroke-width="1.3"/>
      <g transform="translate(236 726) scale(0.667)" color="#9A91C4" opacity="0.85"><title>Component</title><g fill="none" stroke="currentColor" stroke-width="1.5" stroke-linecap="round" stroke-linejoin="round"><path d="M7 7V4h13v16H7v-3m0-6v2"/><rect x="3" y="7" width="8" height="4" rx="1"/><rect x="3" y="13" width="8" height="4" rx="1"/></g></g>
      <text x="70" y="741" font-size="14" font-weight="600" fill="#243b34"><tspan x="70" dy="0">Collector wiring</tspan></text>
      <text x="70" y="765" font-size="12" font-weight="400" fill="#67746e"><tspan x="70" dy="0">The production dependency</tspan><tspan x="70" dy="17">set (GitHub provider,</tspan><tspan x="70" dy="17">endoflife baseline) used</tspan><tspan x="70" dy="17">identically by the web</tspan><tspan x="70" dy="17">process and the scan job.</tspan></text>
      </g><g data-element="scanning.scheduler"><rect x="50" y="883" width="212" height="180" rx="14" fill="#ffffff" stroke="#d9e0da" stroke-width="1.3"/>
      <g transform="translate(236 900) scale(0.667)" color="#9A91C4" opacity="0.85"><title>Component</title><g fill="none" stroke="currentColor" stroke-width="1.5" stroke-linecap="round" stroke-linejoin="round"><path d="M7 7V4h13v16H7v-3m0-6v2"/><rect x="3" y="7" width="8" height="4" rx="1"/><rect x="3" y="13" width="8" height="4" rx="1"/></g></g>
      <text x="70" y="915" font-size="14" font-weight="600" fill="#243b34"><tspan x="70" dy="0">Development</tspan><tspan x="70" dy="20">scheduler</tspan></text>
      <text x="70" y="960" font-size="12" font-weight="400" fill="#67746e"><tspan x="70" dy="0">Deferred startup scan and</tspan><tspan x="70" dy="17">five-minute cheap refresh,</tspan><tspan x="70" dy="17">armed after the first</tspan><tspan x="70" dy="17">private request. Disabled in</tspan><tspan x="70" dy="17">production, where launchd</tspan><tspan x="70" dy="17">owns the schedule.</tspan></text>
      </g><g data-element="scanning.progress"><rect x="913.1599999999999" y="1288" width="212" height="125" rx="14" fill="#ffffff" stroke="#d9e0da" stroke-width="1.3"/>
      <g transform="translate(1099.16 1305) scale(0.667)" color="#9A91C4" opacity="0.85"><title>Component</title><g fill="none" stroke="currentColor" stroke-width="1.5" stroke-linecap="round" stroke-linejoin="round"><path d="M7 7V4h13v16H7v-3m0-6v2"/><rect x="3" y="7" width="8" height="4" rx="1"/><rect x="3" y="13" width="8" height="4" rx="1"/></g></g>
      <text x="933.16" y="1320" font-size="14" font-weight="600" fill="#243b34"><tspan x="933.16" dy="0">Progress bus</tspan></text>
      <text x="933.16" y="1344" font-size="12" font-weight="400" fill="#67746e"><tspan x="933.16" dy="0">In-memory per-run event log</tspan><tspan x="933.16" dy="17">with subscriptions; terminal</tspan><tspan x="933.16" dy="17">events close the run and</tspan><tspan x="933.16" dy="17">are re-sent on reconnect.</tspan></text>
      </g><g data-element="scanning.discover"><rect x="916.4499999999998" y="355" width="212" height="231" rx="14" fill="#ffffff" stroke="#d9e0da" stroke-width="1.3"/>
      <g transform="translate(1102.45 372) scale(0.667)" color="#D4A373" opacity="0.85"><title>Component</title><g fill="none" stroke="currentColor" stroke-width="1.5" stroke-linecap="round" stroke-linejoin="round"><path d="M7 7V4h13v16H7v-3m0-6v2"/><rect x="3" y="7" width="8" height="4" rx="1"/><rect x="3" y="13" width="8" height="4" rx="1"/></g></g>
      <text x="936.45" y="387" font-size="14" font-weight="600" fill="#243b34"><tspan x="936.45" dy="0">Discovery &amp;</tspan><tspan x="936.45" dy="20">reconcile</tspan></text>
      <text x="936.45" y="432" font-size="12" font-weight="400" fill="#67746e"><tspan x="936.45" dy="0">Walks scan roots to a</tspan><tspan x="936.45" dy="17">bounded depth,</tspan><tspan x="936.45" dy="17">canonicalizes each .git</tspan><tspan x="936.45" dy="17">marker with git rev-parse,</tspan><tspan x="936.45" dy="17">upserts rows, marks unseen</tspan><tspan x="936.45" dy="17">projects missing, and</tspan><tspan x="936.45" dy="17">forgets only</tspan><tspan x="936.45" dy="17">confirmed-gone projects</tspan><tspan x="936.45" dy="17">after a grace period.</tspan></text>
      </g><g data-element="scanning.git"><rect x="1354.3999999999996" y="781" width="212" height="176" rx="14" fill="#ffffff" stroke="#d9e0da" stroke-width="1.3"/>
      <g transform="translate(1540.4 798) scale(0.667)" color="#D4A373" opacity="0.85"><title>Component</title><g fill="none" stroke="currentColor" stroke-width="1.5" stroke-linecap="round" stroke-linejoin="round"><path d="M7 7V4h13v16H7v-3m0-6v2"/><rect x="3" y="7" width="8" height="4" rx="1"/><rect x="3" y="13" width="8" height="4" rx="1"/></g></g>
      <text x="1374.4" y="813" font-size="14" font-weight="600" fill="#243b34"><tspan x="1374.4" dy="0">Git metrics</tspan></text>
      <text x="1374.4" y="837" font-size="12" font-weight="400" fill="#67746e"><tspan x="1374.4" dy="0">Commit cadence over</tspan><tspan x="1374.4" dy="17">7/30/90 days, churn,</tspan><tspan x="1374.4" dy="17">contributors, dirty files,</tspan><tspan x="1374.4" dy="17">ahead/behind, tags, and the</tspan><tspan x="1374.4" dy="17">tracked-worktree</tspan><tspan x="1374.4" dy="17">fingerprint that keys the</tspan><tspan x="1374.4" dy="17">cloc cache.</tspan></text>
      </g><g data-element="scanning.loc"><rect x="916.4499999999998" y="902" width="212" height="142" rx="14" fill="#ffffff" stroke="#d9e0da" stroke-width="1.3"/>
      <g transform="translate(1102.45 919) scale(0.667)" color="#D4A373" opacity="0.85"><title>Component</title><g fill="none" stroke="currentColor" stroke-width="1.5" stroke-linecap="round" stroke-linejoin="round"><path d="M7 7V4h13v16H7v-3m0-6v2"/><rect x="3" y="7" width="8" height="4" rx="1"/><rect x="3" y="13" width="8" height="4" rx="1"/></g></g>
      <text x="936.45" y="934" font-size="14" font-weight="600" fill="#243b34"><tspan x="936.45" dy="0">Lines of code</tspan></text>
      <text x="936.45" y="958" font-size="12" font-weight="400" fill="#67746e"><tspan x="936.45" dy="0">Runs cloc only when the</tspan><tspan x="936.45" dy="17">fingerprint changed or a</tspan><tspan x="936.45" dy="17">full refresh is forced;</tspan><tspan x="936.45" dy="17">parses per-language totals</tspan><tspan x="936.45" dy="17">and the dominant language.</tspan></text>
      </g><g data-element="scanning.td"><rect x="1354.3999999999996" y="1357" width="212" height="176" rx="14" fill="#ffffff" stroke="#d9e0da" stroke-width="1.3"/>
      <g transform="translate(1540.4 1374) scale(0.667)" color="#D4A373" opacity="0.85"><title>Adapter</title><g fill="none" stroke="currentColor" stroke-width="1.5" stroke-linecap="round" stroke-linejoin="round"><path d="M3 7h14l-3-3m3 3-3 3M21 17H7l3-3m-3 3 3 3"/></g></g>
      <text x="1374.4" y="1389" font-size="14" font-weight="600" fill="#243b34"><tspan x="1374.4" dy="0">TD issue adapter</tspan></text>
      <text x="1374.4" y="1413" font-size="12" font-weight="400" fill="#67746e"><tspan x="1374.4" dy="0">Prefers a running td serve</tspan><tspan x="1374.4" dy="17">on the port in</tspan><tspan x="1374.4" dy="17">.todos/serve-port, falls</tspan><tspan x="1374.4" dy="17">back to the td CLI, and</tspan><tspan x="1374.4" dy="17">reports open, in-progress,</tspan><tspan x="1374.4" dy="17">blocked, review, and stale</tspan><tspan x="1374.4" dy="17">counts.</tspan></text>
      </g><g data-element="scanning.stack"><rect x="913.1599999999999" y="109" width="212" height="214" rx="14" fill="#ffffff" stroke="#d9e0da" stroke-width="1.3"/>
      <g transform="translate(1099.16 126) scale(0.667)" color="#D4A373" opacity="0.85"><title>Component</title><g fill="none" stroke="currentColor" stroke-width="1.5" stroke-linecap="round" stroke-linejoin="round"><path d="M7 7V4h13v16H7v-3m0-6v2"/><rect x="3" y="7" width="8" height="4" rx="1"/><rect x="3" y="13" width="8" height="4" rx="1"/></g></g>
      <text x="933.16" y="141" font-size="14" font-weight="600" fill="#243b34"><tspan x="933.16" dy="0">Stack</tspan><tspan x="933.16" dy="20">declarations</tspan></text>
      <text x="933.16" y="186" font-size="12" font-weight="400" fill="#67746e"><tspan x="933.16" dy="0">Reads declared toolchain</tspan><tspan x="933.16" dy="17">versions from root</tspan><tspan x="933.16" dy="17">manifests (go.mod,</tspan><tspan x="933.16" dy="17">package.json,</tspan><tspan x="933.16" dy="17">.tool-versions, mise.toml,</tspan><tspan x="933.16" dy="17">Cargo.toml, Gemfile,</tspan><tspan x="933.16" dy="17">Dockerfile, ...) on every</tspan><tspan x="933.16" dy="17">policy.</tspan></text>
      </g><g data-element="scanning.github"><rect x="916.4499999999998" y="618" width="212" height="176" rx="14" fill="#ffffff" stroke="#d9e0da" stroke-width="1.3"/>
      <g transform="translate(1102.45 635) scale(0.667)" color="#D4A373" opacity="0.85"><title>Component</title><g fill="none" stroke="currentColor" stroke-width="1.5" stroke-linecap="round" stroke-linejoin="round"><path d="M7 7V4h13v16H7v-3m0-6v2"/><rect x="3" y="7" width="8" height="4" rx="1"/><rect x="3" y="13" width="8" height="4" rx="1"/></g></g>
      <text x="936.45" y="650" font-size="14" font-weight="600" fill="#243b34"><tspan x="936.45" dy="0">GitHub enrichment</tspan></text>
      <text x="936.45" y="674" font-size="12" font-weight="400" fill="#67746e"><tspan x="936.45" dy="0">Parses the origin remote,</tspan><tspan x="936.45" dy="17">resolves origin errors,</tspan><tspan x="936.45" dy="17">checks provider availability</tspan><tspan x="936.45" dy="17">once per scan, then fetches</tspan><tspan x="936.45" dy="17">hosting and traffic metrics</tspan><tspan x="936.45" dy="17">when due and records star</tspan><tspan x="936.45" dy="17">and traffic snapshots.</tspan></text>
      </g><g data-element="scanning.process"><rect x="2209.9699999999993" y="1355" width="212" height="180" rx="14" fill="#ffffff" stroke="#d9e0da" stroke-width="1.3"/>
      <g transform="translate(2395.97 1372) scale(0.667)" color="#D4A373" opacity="0.85"><title>Component</title><g fill="none" stroke="currentColor" stroke-width="1.5" stroke-linecap="round" stroke-linejoin="round"><path d="M7 7V4h13v16H7v-3m0-6v2"/><rect x="3" y="7" width="8" height="4" rx="1"/><rect x="3" y="13" width="8" height="4" rx="1"/></g></g>
      <text x="2229.97" y="1387" font-size="14" font-weight="600" fill="#243b34"><tspan x="2229.97" dy="0">Subprocess</tspan><tspan x="2229.97" dy="20">runner</tspan></text>
      <text x="2229.97" y="1432" font-size="12" font-weight="400" fill="#67746e"><tspan x="2229.97" dy="0">Spawns commands with</tspan><tspan x="2229.97" dy="17">timeouts, output caps,</tspan><tspan x="2229.97" dy="17">abort signals, and</tspan><tspan x="2229.97" dy="17">process-group kill so one</tspan><tspan x="2229.97" dy="17">hung tool cannot stall a</tspan><tspan x="2229.97" dy="17">scan.</tspan></text>
      </g><g data-element="scanning.github_client"><rect x="1780.6999999999996" y="497" width="212" height="193" rx="14" fill="#ffffff" stroke="#d9e0da" stroke-width="1.3"/>
      <g transform="translate(1966.7 514) scale(0.667)" color="#C48282" opacity="0.85"><title>Adapter</title><g fill="none" stroke="currentColor" stroke-width="1.5" stroke-linecap="round" stroke-linejoin="round"><path d="M3 7h14l-3-3m3 3-3 3M21 17H7l3-3m-3 3 3 3"/></g></g>
      <text x="1800.7" y="529" font-size="14" font-weight="600" fill="#243b34"><tspan x="1800.7" dy="0">GitHub HTTP client</tspan></text>
      <text x="1800.7" y="553" font-size="12" font-weight="400" fill="#67746e"><tspan x="1800.7" dy="0">Token from GH_TOKEN,</tspan><tspan x="1800.7" dy="17">GITHUB_TOKEN, or gh auth</tspan><tspan x="1800.7" dy="17">token; GraphQL and REST</tspan><tspan x="1800.7" dy="17">calls; remembers rate-limit</tspan><tspan x="1800.7" dy="17">resets and classifies</tspan><tspan x="1800.7" dy="17">failures as</tspan><tspan x="1800.7" dy="17">unauthenticated,</tspan><tspan x="1800.7" dy="17">rate-limited, or unavailable.</tspan></text>
      </g><g data-element="scanning.github_provider"><rect x="1354.3999999999996" y="503.5" width="212" height="180" rx="14" fill="#ffffff" stroke="#d9e0da" stroke-width="1.3"/>
      <g transform="translate(1540.4 520.5) scale(0.667)" color="#C48282" opacity="0.85"><title>Adapter</title><g fill="none" stroke="currentColor" stroke-width="1.5" stroke-linecap="round" stroke-linejoin="round"><path d="M3 7h14l-3-3m3 3-3 3M21 17H7l3-3m-3 3 3 3"/></g></g>
      <text x="1374.4" y="535.5" font-size="14" font-weight="600" fill="#243b34"><tspan x="1374.4" dy="0">GitHub hosting</tspan><tspan x="1374.4" dy="20">provider</tspan></text>
      <text x="1374.4" y="580.5" font-size="12" font-weight="400" fill="#67746e"><tspan x="1374.4" dy="0">Batched GraphQL for stars,</tspan><tspan x="1374.4" dy="17">PRs, issues, releases, and</tspan><tspan x="1374.4" dy="17">contributors; REST for</tspan><tspan x="1374.4" dy="17">workflow state and traffic.</tspan><tspan x="1374.4" dy="17">Implements</tspan><tspan x="1374.4" dy="17">HostingMetricsProvider.</tspan></text>
      </g><g data-element="scanning.endoflife"><rect x="1354.3999999999996" y="1076" width="212" height="180" rx="14" fill="#ffffff" stroke="#d9e0da" stroke-width="1.3"/>
      <g transform="translate(1540.4 1093) scale(0.667)" color="#C48282" opacity="0.85"><title>Adapter</title><g fill="none" stroke="currentColor" stroke-width="1.5" stroke-linecap="round" stroke-linejoin="round"><path d="M3 7h14l-3-3m3 3-3 3M21 17H7l3-3m-3 3 3 3"/></g></g>
      <text x="1374.4" y="1108" font-size="14" font-weight="600" fill="#243b34"><tspan x="1374.4" dy="0">endoflife.date</tspan><tspan x="1374.4" dy="20">provider</tspan></text>
      <text x="1374.4" y="1153" font-size="12" font-weight="400" fill="#67746e"><tspan x="1374.4" dy="0">Maps toolchains to</tspan><tspan x="1374.4" dy="17">endoflife.date products and</tspan><tspan x="1374.4" dy="17">parses release cycles. Java</tspan><tspan x="1374.4" dy="17">and Swift have no upstream</tspan><tspan x="1374.4" dy="17">product and resolve to</tspan><tspan x="1374.4" dy="17">unknown.</tspan></text>
      </g><g data-element="scanning.baseline"><rect x="913.1599999999999" y="1076" width="218.57999999999998" height="180" rx="14" fill="#ffffff" stroke="#d9e0da" stroke-width="1.3"/>
      <g transform="translate(1105.74 1093) scale(0.667)" color="#C48282" opacity="0.85"><title>Component</title><g fill="none" stroke="currentColor" stroke-width="1.5" stroke-linecap="round" stroke-linejoin="round"><path d="M7 7V4h13v16H7v-3m0-6v2"/><rect x="3" y="7" width="8" height="4" rx="1"/><rect x="3" y="13" width="8" height="4" rx="1"/></g></g>
      <text x="933.16" y="1108" font-size="14" font-weight="600" fill="#243b34"><tspan x="933.16" dy="0">Release baseline</tspan><tspan x="933.16" dy="20">refresh</tspan></text>
      <text x="933.16" y="1153" font-size="12" font-weight="400" fill="#67746e"><tspan x="933.16" dy="0">Refreshes cycles only for</tspan><tspan x="933.16" dy="17">declared toolchains, at most</tspan><tspan x="933.16" dy="17">daily on success and hourly</tspan><tspan x="933.16" dy="17">after failure; a failure</tspan><tspan x="933.16" dy="17">never discards cached</tspan><tspan x="933.16" dy="17">cycles.</tspan></text>
      </g><g><rect x="324.805" y="979" width="96.49999999999999" height="38" rx="5" fill="#fafbf8"/><text x="373.055" y="992" text-anchor="middle" font-size="11" fill="#66766d"><tspan x="373.055" dy="0">startup and</tspan><tspan x="373.055" dy="15">scheduled runs</tspan></text></g><g><rect x="311" y="725" width="124.10999999999997" height="53" rx="5" fill="#fafbf8"/><text x="373.055" y="738" text-anchor="middle" font-size="11" fill="#66766d"><tspan x="373.055" dy="0">collectHosting and</tspan><tspan x="373.055" dy="15">refreshReleaseBase</tspan><tspan x="373.055" dy="15">lines</tspan></text></g><g><rect x="760.8949999999999" y="1356.5" width="87.47999999999999" height="38" rx="5" fill="#fafbf8"/><text x="804.6349999999999" y="1369.5" text-anchor="middle" font-size="11" fill="#66766d"><tspan x="804.6349999999999" dy="0">Publishes run</tspan><tspan x="804.6349999999999" dy="15">events</tspan></text></g><g><rect x="754.6249999999999" y="476.5" width="100.02" height="38" rx="5" fill="#fafbf8"/><text x="804.6349999999999" y="489.5" text-anchor="middle" font-size="11" fill="#66766d"><tspan x="804.6349999999999" dy="0">Discover and</tspan><tspan x="804.6349999999999" dy="15">reconcile roots</tspan></text></g><g><rect x="962.9249999999998" y="832" width="119.04999999999995" height="38" rx="5" fill="#fafbf8"/><text x="1022.4499999999998" y="845" text-anchor="middle" font-size="11" fill="#66766d"><tspan x="1022.4499999999998" dy="0">Per project, every</tspan><tspan x="1022.4499999999998" dy="15">policy</tspan></text></g><g><rect x="962.9249999999998" y="1451" width="119.04999999999995" height="38" rx="5" fill="#fafbf8"/><text x="1022.4499999999998" y="1464" text-anchor="middle" font-size="11" fill="#66766d"><tspan x="1022.4499999999998" dy="0">Per project, every</tspan><tspan x="1022.4499999999998" dy="15">policy</tspan></text></g><g><rect x="745.1099999999999" y="222" width="119.04999999999995" height="38" rx="5" fill="#fafbf8"/><text x="804.6349999999999" y="235" text-anchor="middle" font-size="11" fill="#66766d"><tspan x="804.6349999999999" dy="0">Per project, every</tspan><tspan x="804.6349999999999" dy="15">policy</tspan></text></g><g><rect x="751.3799999999999" y="979" width="106.50999999999998" height="38" rx="5" fill="#fafbf8"/><text x="804.6349999999999" y="992" text-anchor="middle" font-size="11" fill="#66766d"><tspan x="804.6349999999999" dy="0">Only for changed</tspan><tspan x="804.6349999999999" dy="15">and full policies</tspan></text></g><g><rect x="745.6049999999999" y="1172" width="118.05999999999996" height="38" rx="5" fill="#fafbf8"/><text x="804.6349999999999" y="1185" text-anchor="middle" font-size="11" fill="#66766d"><tspan x="804.6349999999999" dy="0">After per-project</tspan><tspan x="804.6349999999999" dy="15">collection</tspan></text></g><g><rect x="749.6199999999999" y="712" width="110.02999999999997" height="53" rx="5" fill="#fafbf8"/><text x="804.6349999999999" y="725" text-anchor="middle" font-size="11" fill="#66766d"><tspan x="804.6349999999999" dy="0">Hosting and</tspan><tspan x="804.6349999999999" dy="15">traffic, once per</tspan><tspan x="804.6349999999999" dy="15">run</tspan></text></g><g><rect x="1622.2749999999996" y="476.5" width="102.54999999999997" height="38" rx="5" fill="#fafbf8"/><text x="1673.5499999999997" y="489.5" text-anchor="middle" font-size="11" fill="#66766d"><tspan x="1673.5499999999997" dy="0">git rev-parse</tspan><tspan x="1673.5499999999997" dy="15">--show-toplevel</tspan></text></g><g><rect x="1837.5699999999997" y="875" width="98.25999999999998" height="38" rx="5" fill="#fafbf8"/><text x="1886.6999999999996" y="888" text-anchor="middle" font-size="11" fill="#66766d"><tspan x="1886.6999999999996" dy="0">git log, status,</tspan><tspan x="1886.6999999999996" dy="15">ls-files</tspan></text></g><g><rect x="1187.1749999999997" y="875" width="111.78999999999998" height="38" rx="5" fill="#fafbf8"/><text x="1243.0699999999997" y="888" text-anchor="middle" font-size="11" fill="#66766d"><tspan x="1243.0699999999997" dy="0">Tracked worktree</tspan><tspan x="1243.0699999999997" dy="15">fingerprint</tspan></text></g><g><rect x="1617.1599999999996" y="979" width="112.77999999999996" height="38" rx="5" fill="#fafbf8"/><text x="1673.5499999999995" y="992" text-anchor="middle" font-size="11" fill="#66766d"><tspan x="1673.5499999999995" dy="0">cloc --json --vcs</tspan><tspan x="1673.5499999999995" dy="15">git</tspan></text></g><g><rect x="1826.2949999999996" y="1451" width="120.80999999999996" height="38" rx="5" fill="#fafbf8"/><text x="1886.6999999999996" y="1464" text-anchor="middle" font-size="11" fill="#66766d"><tspan x="1886.6999999999996" dy="0">td --json list --all</tspan><tspan x="1886.6999999999996" dy="15">as fallback</tspan></text></g><g><rect x="1615.3999999999996" y="712" width="116.29999999999997" height="38" rx="5" fill="#fafbf8"/><text x="1673.5499999999997" y="725" text-anchor="middle" font-size="11" fill="#66766d"><tspan x="1673.5499999999997" dy="0">git remote get-url</tspan><tspan x="1673.5499999999997" dy="15">origin</tspan></text></g><g><rect x="1180.7399999999998" y="599.5" width="124.65999999999997" height="38" rx="5" fill="#fafbf8"/><text x="1243.0699999999997" y="612.5" text-anchor="middle" font-size="11" fill="#66766d"><tspan x="1243.0699999999997" dy="0">availability, collect,</tspan><tspan x="1243.0699999999997" dy="15">collectTraffic</tspan></text></g><g><rect x="1618.9199999999996" y="599.5" width="109.25999999999998" height="38" rx="5" fill="#fafbf8"/><text x="1673.5499999999995" y="612.5" text-anchor="middle" font-size="11" fill="#66766d"><tspan x="1673.5499999999995" dy="0">GraphQL and REST</tspan><tspan x="1673.5499999999995" dy="15">requests</tspan></text></g><g><rect x="2041.6999999999996" y="599.5" width="119.26999999999997" height="38" rx="5" fill="#fafbf8"/><text x="2101.3349999999996" y="612.5" text-anchor="middle" font-size="11" fill="#66766d"><tspan x="2101.3349999999996" dy="0">gh auth token when</tspan><tspan x="2101.3349999999996" dy="15">no env token</tspan></text></g><g><rect x="1185.0299999999997" y="1172" width="116.07999999999997" height="38" rx="5" fill="#fafbf8"/><text x="1243.0699999999997" y="1185" text-anchor="middle" font-size="11" fill="#66766d"><tspan x="1243.0699999999997" dy="0">Fetch cycles per</tspan><tspan x="1243.0699999999997" dy="15">declared toolchain</tspan></text></g></g>
  <g data-export-layer="legend"></g><path d="M96 1010H1824" stroke="#dce2db"/><text x="96" y="1044" font-size="13" fill="#78867c">STRUCTURE · CURRENT SYSTEM</text><text x="1824" y="1044" text-anchor="end" font-size="13" fill="#78867c">FOCUS: Scanner &amp; collectors · 17 external connections outside view</text></g></svg>
